SplineFontDB: 2.0
FontName: DejaVuSerifCondensed
FullName: DejaVu Serif Condensed
FamilyName: DejaVu Serif Condensed
Weight: Book
Copyright: Copyright (c) 2003 by Bitstream, Inc. All Rights Reserved.\nDejaVu changes are in public domain\n
Version: 2.25
ItalicAngle: 0
UnderlinePosition: -85
UnderlineWidth: 90
Ascent: 1556
Descent: 492
Order2: 1
NeedsXUIDChange: 1
FSType: 0
OS2Version: 0
OS2_WeightWidthSlopeOnly: 0
OS2_UseTypoMetrics: 0
PfmFamily: 17
TTFWeight: 400
TTFWidth: 4
LineGap: 0
VLineGap: 0
Panose: 2 6 6 6 5 6 5 2 2 4
OS2TypoAscent: 1556
OS2TypoAOffset: 0
OS2TypoDescent: -492
OS2TypoDOffset: 0
OS2TypoLinegap: 410
OS2WinAscent: 1901
OS2WinAOffset: 0
OS2WinDescent: 483
OS2WinDOffset: 0
HheadAscent: 1901
HheadAOffset: 0
HheadDescent: -483
HheadDOffset: 0
OS2Vendor: 'PfEd'
Lookup: 6 0 0 "'ccmp' Contextual Chaining Substitution"  {"'ccmp' Contextual Chaining Substitution"  } ['ccmp' ('DFLT' <'dflt' > 'cyrl' <'MKD ' 'SRB ' 'dflt' > 'grek' <'dflt' > 'latn' <'AZE ' 'CRT ' 'GAG ' 'ISM ' 'KAZ ' 'KRK ' 'KSM ' 'LSM ' 'NSM ' 'SKS ' 'SSM ' 'TAT ' 'TRK ' 'dflt' > ) ]
Lookup: 1 0 0 "'locl' Localized Forms in Cyrillic - Serbian"  {"'locl' Localized Forms in Cyrillic - Serbian"  } ['locl' ('cyrl' <'MKD ' 'SRB ' > ) ]
Lookup: 1 0 0 "'locl' Localized Forms in Latin - Sami"  {"'locl' Localized Forms in Latin - Sami"  } ['locl' ('latn' <'ISM ' 'KSM ' 'LSM ' 'NSM ' 'SKS ' 'SSM ' > ) ]
Lookup: 4 0 1 "'liga' Standard Ligatures"  {"'liga' Standard Ligatures"  } ['liga' ('DFLT' <'dflt' > 'cyrl' <'MKD ' 'SRB ' 'dflt' > 'grek' <'dflt' > 'latn' <'AZE ' 'CRT ' 'GAG ' 'ISM ' 'KAZ ' 'KRK ' 'KSM ' 'LSM ' 'NSM ' 'SKS ' 'SSM ' 'TAT ' 'TUR ' 'dflt' > ) ]
Lookup: 4 0 1 "'liga' Standard Ligatures - Without dotless i"  {"'liga' Standard Ligatures - Without dotless i"  } ['liga' ('DFLT' <'dflt' > 'cyrl' <'MKD ' 'SRB ' 'dflt' > 'grek' <'dflt' > 'latn' <'ISM ' 'KSM ' 'LSM ' 'NSM ' 'SKS ' 'SSM ' 'dflt' > ) ]

StartChar: .notdef
Encoding: 0 -1 0
AltUni2: 000000.ffffffff.0
Width: 1106
Flags: W
Fore
91.7998 -362 m 1,0,-1
 91.7998 1444 l 1,1,-1
 1013.4 1444 l 1,2,-1
 1013.4 -362 l 1,3,-1
 91.7998 -362 l 1,0,-1
195.3 -248 m 1,4,-1
 910.8 -248 l 1,5,-1
 910.8 1329 l 1,6,-1
 195.3 1329 l 1,7,-1
 195.3 -248 l 1,4,-1
EndSplineSet
EndChar
StartChar: exclam
Encoding: 33 33 33
Width: 740
Flags: W
Fore
251.1 104 m 0,0,1
 251.1 160 251.1 160 285.3 199 c 128,-1,2
 319.5 238 319.5 238 370.8 238 c 0,3,4
 420.3 238 420.3 238 455.4 199 c 128,-1,5
 490.5 160 490.5 160 490.5 104 c 0,6,7
 490.5 49 490.5 49 455.4 10 c 128,-1,8
 420.3 -29 420.3 -29 370.8 -29 c 0,9,10
 319.5 -29 319.5 -29 285.3 9.5 c 128,-1,11
 251.1 48 251.1 48 251.1 104 c 0,0,1
254.7 1493 m 1,12,-1
 486.9 1493 l 1,13,-1
 425.7 672 l 1,14,-1
 425.7 420 l 1,15,-1
 315 420 l 1,16,-1
 315 672 l 1,17,-1
 254.7 1493 l 1,12,-1
EndSplineSet
EndChar
StartChar: quotedbl
Encoding: 34 34 34
Width: 847
Flags: W
Fore
324 1493 m 1,0,-1
 324 938 l 1,1,-1
 180.9 938 l 1,2,-1
 180.9 1493 l 1,3,-1
 324 1493 l 1,0,-1
666.9 1493 m 1,4,-1
 666.9 938 l 1,5,-1
 523.8 938 l 1,6,-1
 523.8 1493 l 1,7,-1
 666.9 1493 l 1,4,-1
EndSplineSet
EndChar
StartChar: numbersign
Encoding: 35 35 35
Width: 1544
Flags: W
Fore
937.8 901 m 1,0,-1
 684 901 l 1,1,-1
 608.4 567 l 1,2,-1
 864.9 567 l 1,3,-1
 937.8 901 l 1,0,-1
810.9 1470 m 1,4,-1
 719.1 1055 l 1,5,-1
 972.9 1055 l 1,6,-1
 1065.6 1470 l 1,7,-1
 1220.4 1470 l 1,8,-1
 1125.9 1055 l 1,9,-1
 1403.1 1055 l 1,10,-1
 1403.1 901 l 1,11,-1
 1090.8 901 l 1,12,-1
 1017 567 l 1,13,-1
 1299.6 567 l 1,14,-1
 1299.6 414 l 1,15,-1
 982.8 414 l 1,16,-1
 890.1 0 l 1,17,-1
 735.3 0 l 1,18,-1
 829.8 414 l 1,19,-1
 575.1 414 l 1,20,-1
 481.5 0 l 1,21,-1
 328.5 0 l 1,22,-1
 420.3 414 l 1,23,-1
 142.2 414 l 1,24,-1
 142.2 567 l 1,25,-1
 455.4 567 l 1,26,-1
 529.2 901 l 1,27,-1
 244.8 901 l 1,28,-1
 244.8 1055 l 1,29,-1
 564.3 1055 l 1,30,-1
 657.9 1470 l 1,31,-1
 810.9 1470 l 1,4,-1
EndSplineSet
EndChar
StartChar: dollar
Encoding: 36 36 36
Width: 1172
Flags: W
Fore
621 68 m 1,0,1
 722.7 78 722.7 78 776.25 133 c 128,-1,2
 829.8 188 829.8 188 829.8 283 c 0,3,4
 829.8 369 829.8 369 776.7 429 c 128,-1,5
 723.6 489 723.6 489 621 520 c 1,6,-1
 621 68 l 1,0,1
531 1187 m 1,7,8
 438.3 1180 438.3 1180 387 1127.5 c 128,-1,9
 335.7 1075 335.7 1075 335.7 987 c 0,10,11
 335.7 907 335.7 907 382.95 854 c 128,-1,12
 430.2 801 430.2 801 531 768 c 1,13,-1
 531 1187 l 1,7,8
158.4 72 m 1,14,-1
 158.4 348 l 1,15,-1
 255.6 348 l 1,16,17
 259.2 211 259.2 211 327.6 141 c 128,-1,18
 396 71 396 71 531 68 c 1,19,-1
 531 553 l 1,20,21
 324 617 324 617 240.3 700.5 c 128,-1,22
 156.6 784 156.6 784 156.6 922 c 0,23,24
 156.6 1082 156.6 1082 255.6 1179 c 128,-1,25
 354.6 1276 354.6 1276 531 1288 c 1,26,-1
 531 1556 l 1,27,-1
 621 1556 l 1,28,-1
 621 1288 l 1,29,30
 711.9 1280 711.9 1280 796.05 1255.5 c 128,-1,31
 880.2 1231 880.2 1231 960.3 1190 c 1,32,-1
 960.3 928 l 1,33,-1
 862.2 928 l 1,34,35
 851.4 1044 851.4 1044 789.3 1111 c 128,-1,36
 727.2 1178 727.2 1178 621 1187 c 1,37,-1
 621 735 l 1,38,39
 842.4 668 842.4 668 931.05 581.5 c 128,-1,40
 1019.7 495 1019.7 495 1019.7 350 c 0,41,42
 1019.7 184 1019.7 184 915.3 84 c 128,-1,43
 810.9 -16 810.9 -16 621 -31 c 1,44,-1
 621 -301 l 1,45,-1
 531 -301 l 1,46,-1
 531 -31 l 1,47,48
 444.6 -29 444.6 -29 351.9 -3.5 c 128,-1,49
 259.2 22 259.2 22 158.4 72 c 1,14,-1
EndSplineSet
EndChar
StartChar: percent
Encoding: 37 37 37
Width: 1751
Flags: W
Fore
413.1 1427 m 0,0,1
 333.9 1427 333.9 1427 289.35 1344 c 128,-1,2
 244.8 1261 244.8 1261 244.8 1112 c 0,3,4
 244.8 965 244.8 965 290.25 881 c 128,-1,5
 335.7 797 335.7 797 413.1 797 c 0,6,7
 489.6 797 489.6 797 534.15 880.5 c 128,-1,8
 578.7 964 578.7 964 578.7 1112 c 0,9,10
 578.7 1260 578.7 1260 534.15 1343.5 c 128,-1,11
 489.6 1427 489.6 1427 413.1 1427 c 0,0,1
1340.1 694 m 0,12,13
 1261.8 694 1261.8 694 1217.25 610 c 128,-1,14
 1172.7 526 1172.7 526 1172.7 377 c 0,15,16
 1172.7 230 1172.7 230 1217.7 146.5 c 128,-1,17
 1262.7 63 1262.7 63 1340.1 63 c 0,18,19
 1417.5 63 1417.5 63 1461.6 146.5 c 128,-1,20
 1505.7 230 1505.7 230 1505.7 377 c 0,21,22
 1505.7 525 1505.7 525 1461.15 609.5 c 128,-1,23
 1416.6 694 1416.6 694 1340.1 694 c 0,12,13
1340.1 784 m 0,24,25
 1482.3 784 1482.3 784 1566 674 c 128,-1,26
 1649.7 564 1649.7 564 1649.7 377 c 0,27,28
 1649.7 190 1649.7 190 1565.55 80.5 c 128,-1,29
 1481.4 -29 1481.4 -29 1340.1 -29 c 0,30,31
 1196.1 -29 1196.1 -29 1112.4 80.5 c 128,-1,32
 1028.7 190 1028.7 190 1028.7 377 c 0,33,34
 1028.7 565 1028.7 565 1112.85 674.5 c 128,-1,35
 1197 784 1197 784 1340.1 784 c 0,24,25
1227.6 1520 m 1,36,-1
 1364.4 1520 l 1,37,-1
 523.8 -29 l 1,38,-1
 387 -29 l 1,39,-1
 1227.6 1520 l 1,36,-1
411.3 1520 m 0,40,41
 553.5 1520 553.5 1520 638.1 1410.5 c 128,-1,42
 722.7 1301 722.7 1301 722.7 1114 c 0,43,44
 722.7 925 722.7 925 638.55 816 c 128,-1,45
 554.4 707 554.4 707 411.3 707 c 0,46,47
 268.2 707 268.2 707 184.95 816.5 c 128,-1,48
 101.7 926 101.7 926 101.7 1114 c 0,49,50
 101.7 1300 101.7 1300 185.4 1410 c 128,-1,51
 269.1 1520 269.1 1520 411.3 1520 c 0,40,41
EndSplineSet
EndChar
StartChar: ampersand
Encoding: 38 38 38
Width: 1640
Flags: W
Fore
995.4 231 m 1,0,-1
 471.6 844 l 1,1,2
 393.3 766 393.3 766 354.15 675.5 c 128,-1,3
 315 585 315 585 315 483 c 0,4,5
 315 317 315 317 418.5 204.5 c 128,-1,6
 522 92 522 92 676.8 92 c 0,7,8
 768.6 92 768.6 92 850.05 127.5 c 128,-1,9
 931.5 163 931.5 163 995.4 231 c 1,0,-1
1553.4 0 m 1,10,-1
 1192.5 0 l 1,11,-1
 1069.2 145 l 1,12,13
 974.7 57 974.7 57 867.6 14 c 128,-1,14
 760.5 -29 760.5 -29 636.3 -29 c 0,15,16
 404.1 -29 404.1 -29 268.2 103 c 128,-1,17
 132.3 235 132.3 235 132.3 461 c 0,18,19
 132.3 594 132.3 594 201.15 709.5 c 128,-1,20
 270 825 270 825 409.5 926 c 1,21,22
 363.6 987 363.6 987 342 1047.5 c 128,-1,23
 320.4 1108 320.4 1108 320.4 1174 c 0,24,25
 320.4 1333 320.4 1333 423.45 1426.5 c 128,-1,26
 526.5 1520 526.5 1520 703.8 1520 c 0,27,28
 764.1 1520 764.1 1520 844.65 1503 c 128,-1,29
 925.2 1486 925.2 1486 1028.7 1452 c 1,30,-1
 1028.7 1194 l 1,31,-1
 927 1194 l 1,32,33
 914.4 1301 914.4 1301 856.8 1357 c 128,-1,34
 799.2 1413 799.2 1413 700.2 1413 c 0,35,36
 607.5 1413 607.5 1413 549.9 1356.5 c 128,-1,37
 492.3 1300 492.3 1300 492.3 1210 c 0,38,39
 492.3 1149 492.3 1149 522.9 1088.5 c 128,-1,40
 553.5 1028 553.5 1028 650.7 915 c 2,41,-1
 1115.1 371 l 1,42,43
 1177.2 451 1177.2 451 1212.75 543.5 c 128,-1,44
 1248.3 636 1248.3 636 1257.3 741 c 1,45,-1
 1095.3 741 l 1,46,-1
 1095.3 848 l 1,47,-1
 1521 848 l 1,48,-1
 1521 741 l 1,49,-1
 1366.2 741 l 1,50,51
 1350.9 611 1350.9 611 1306.35 498 c 128,-1,52
 1261.8 385 1261.8 385 1187.1 289 c 1,53,-1
 1341.9 106 l 1,54,-1
 1553.4 106 l 1,55,-1
 1553.4 0 l 1,10,-1
EndSplineSet
EndChar
StartChar: quotesingle
Encoding: 39 39 39
Width: 506
Flags: W
Fore
324 1493 m 1,0,-1
 324 938 l 1,1,-1
 180.9 938 l 1,2,-1
 180.9 1493 l 1,3,-1
 324 1493 l 1,0,-1
EndSplineSet
EndChar
StartChar: parenleft
Encoding: 40 40 40
Width: 719
Flags: W
Fore
587.7 -319 m 1,0,1
 369 -210 369 -210 257.4 26.5 c 128,-1,2
 145.8 263 145.8 263 145.8 618 c 0,3,4
 145.8 974 145.8 974 257.4 1210.5 c 128,-1,5
 369 1447 369 1447 587.7 1556 c 1,6,-1
 587.7 1458 l 1,7,8
 449.1 1352 449.1 1352 388.8 1159.5 c 128,-1,9
 328.5 967 328.5 967 328.5 618 c 0,10,11
 328.5 270 328.5 270 388.8 77.5 c 128,-1,12
 449.1 -115 449.1 -115 587.7 -221 c 1,13,-1
 587.7 -319 l 1,0,1
EndSplineSet
EndChar
StartChar: parenright
Encoding: 41 41 41
Width: 719
Flags: W
Fore
130.5 -319 m 1,0,-1
 130.5 -221 l 1,1,2
 269.1 -115 269.1 -115 329.85 77.5 c 128,-1,3
 390.6 270 390.6 270 390.6 618 c 0,4,5
 390.6 967 390.6 967 329.85 1159.5 c 128,-1,6
 269.1 1352 269.1 1352 130.5 1458 c 1,7,-1
 130.5 1556 l 1,8,9
 350.1 1447 350.1 1447 461.7 1210.5 c 128,-1,10
 573.3 974 573.3 974 573.3 618 c 0,11,12
 573.3 263 573.3 263 461.7 26.5 c 128,-1,13
 350.1 -210 350.1 -210 130.5 -319 c 1,0,-1
EndSplineSet
EndChar
StartChar: asterisk
Encoding: 42 42 42
Width: 921
Flags: W
Fore
891.9 1237 m 1,0,-1
 540 1055 l 1,1,-1
 891.9 870 l 1,2,-1
 823.5 752 l 1,3,-1
 510.3 969 l 1,4,-1
 522 588 l 1,5,-1
 399.6 588 l 1,6,-1
 411.3 969 l 1,7,-1
 98.0996 752 l 1,8,-1
 29.7002 870 l 1,9,-1
 381.6 1053 l 1,10,-1
 29.7002 1237 l 1,11,-1
 98.0996 1356 l 1,12,-1
 411.3 1139 l 1,13,-1
 399.6 1520 l 1,14,-1
 522 1520 l 1,15,-1
 510.3 1139 l 1,16,-1
 823.5 1356 l 1,17,-1
 891.9 1237 l 1,0,-1
EndSplineSet
EndChar
StartChar: plus
Encoding: 43 43 43
Width: 1544
Flags: W
Fore
844.2 1284 m 1,0,-1
 844.2 723 l 1,1,-1
 1349.1 723 l 1,2,-1
 1349.1 561 l 1,3,-1
 844.2 561 l 1,4,-1
 844.2 0 l 1,5,-1
 700.2 0 l 1,6,-1
 700.2 561 l 1,7,-1
 195.3 561 l 1,8,-1
 195.3 723 l 1,9,-1
 700.2 723 l 1,10,-1
 700.2 1284 l 1,11,-1
 844.2 1284 l 1,0,-1
EndSplineSet
EndChar
StartChar: comma
Encoding: 44 44 44
Width: 585
Flags: W
Fore
66.5996 -199 m 1,0,1
 151.2 -130 151.2 -130 190.8 -36.5 c 128,-1,2
 230.4 57 230.4 57 230.4 190 c 2,3,-1
 230.4 227 l 1,4,-1
 407.7 227 l 1,5,6
 400.5 56 400.5 56 335.25 -66.5 c 128,-1,7
 270 -189 270 -189 138.6 -279 c 1,8,-1
 66.5996 -199 l 1,0,1
EndSplineSet
EndChar
StartChar: hyphen
Encoding: 45 45 45
Width: 622
Flags: W
Fore
81 627 m 1,0,-1
 541.8 627 l 1,1,-1
 541.8 471 l 1,2,-1
 81 471 l 1,3,-1
 81 627 l 1,0,-1
EndSplineSet
EndChar
StartChar: period
Encoding: 46 46 46
Width: 585
Flags: W
Fore
173.7 104 m 0,0,1
 173.7 160 173.7 160 207.9 199 c 128,-1,2
 242.1 238 242.1 238 293.4 238 c 0,3,4
 342.9 238 342.9 238 378 199 c 128,-1,5
 413.1 160 413.1 160 413.1 104 c 0,6,7
 413.1 49 413.1 49 378 10 c 128,-1,8
 342.9 -29 342.9 -29 293.4 -29 c 0,9,10
 242.1 -29 242.1 -29 207.9 9.5 c 128,-1,11
 173.7 48 173.7 48 173.7 104 c 0,0,1
EndSplineSet
EndChar
StartChar: slash
Encoding: 47 47 47
Width: 621
Flags: W
Fore
477 1493 m 1,0,-1
 621 1493 l 1,1,-1
 144 -190 l 1,2,-1
 0 -190 l 1,3,-1
 477 1493 l 1,0,-1
EndSplineSet
EndChar
StartChar: zero
Encoding: 48 48 48
Width: 1172
Flags: W
Fore
585.9 70 m 0,0,1
 723.6 70 723.6 70 792 238 c 128,-1,2
 860.4 406 860.4 406 860.4 745 c 0,3,4
 860.4 1085 860.4 1085 792 1253 c 128,-1,5
 723.6 1421 723.6 1421 585.9 1421 c 0,6,7
 448.2 1421 448.2 1421 379.8 1253 c 128,-1,8
 311.4 1085 311.4 1085 311.4 745 c 0,9,10
 311.4 406 311.4 406 379.8 238 c 128,-1,11
 448.2 70 448.2 70 585.9 70 c 0,0,1
585.9 -29 m 0,12,13
 367.2 -29 367.2 -29 244.35 175 c 128,-1,14
 121.5 379 121.5 379 121.5 745 c 0,15,16
 121.5 1112 121.5 1112 244.35 1316 c 128,-1,17
 367.2 1520 367.2 1520 585.9 1520 c 0,18,19
 805.5 1520 805.5 1520 927.9 1316 c 128,-1,20
 1050.3 1112 1050.3 1112 1050.3 745 c 0,21,22
 1050.3 379 1050.3 379 927.9 175 c 128,-1,23
 805.5 -29 805.5 -29 585.9 -29 c 0,12,13
EndSplineSet
EndChar
StartChar: one
Encoding: 49 49 49
Width: 1172
Flags: W
Fore
261.9 0 m 1,0,-1
 261.9 106 l 1,1,-1
 495.9 106 l 1,2,-1
 495.9 1348 l 1,3,-1
 225 1153 l 1,4,-1
 225 1284 l 1,5,-1
 552.6 1520 l 1,6,-1
 676.8 1520 l 1,7,-1
 676.8 106 l 1,8,-1
 910.8 106 l 1,9,-1
 910.8 0 l 1,10,-1
 261.9 0 l 1,0,-1
EndSplineSet
EndChar
StartChar: two
Encoding: 50 50 50
Width: 1172
Flags: W
Fore
235.8 1137 m 1,0,-1
 135 1137 l 1,1,-1
 135 1403 l 1,2,3
 231.3 1460 231.3 1460 328.95 1490 c 128,-1,4
 426.6 1520 426.6 1520 520.2 1520 c 0,5,6
 729.9 1520 729.9 1520 851.4 1407 c 128,-1,7
 972.9 1294 972.9 1294 972.9 1100 c 0,8,9
 972.9 881 972.9 881 697.5 576 c 0,10,11
 675.9 553 675.9 553 665.1 541 c 2,12,-1
 325.8 164 l 1,13,-1
 886.5 164 l 1,14,-1
 886.5 348 l 1,15,-1
 991.8 348 l 1,16,-1
 991.8 0 l 1,17,-1
 125.1 0 l 1,18,-1
 125.1 109 l 1,19,-1
 532.8 561 l 2,20,21
 667.8 711 667.8 711 725.4 836.5 c 128,-1,22
 783 962 783 962 783 1100 c 0,23,24
 783 1251 783 1251 712.35 1336 c 128,-1,25
 641.7 1421 641.7 1421 517.5 1421 c 0,26,27
 388.8 1421 388.8 1421 318.6 1350 c 128,-1,28
 248.4 1279 248.4 1279 235.8 1137 c 1,0,-1
EndSplineSet
EndChar
StartChar: three
Encoding: 51 51 51
Width: 1172
Flags: W
Fore
179.1 1430 m 1,0,1
 284.4 1474 284.4 1474 381.15 1497 c 128,-1,2
 477.9 1520 477.9 1520 562.5 1520 c 0,3,4
 759.6 1520 759.6 1520 870.3 1425.5 c 128,-1,5
 981 1331 981 1331 981 1163 c 0,6,7
 981 1028 981 1028 904.5 937.5 c 128,-1,8
 828 847 828 847 687.6 815 c 1,9,10
 853.2 789 853.2 789 944.55 681.5 c 128,-1,11
 1035.9 574 1035.9 574 1035.9 403 c 0,12,13
 1035.9 194 1035.9 194 909.45 82.5 c 128,-1,14
 783 -29 783 -29 545.4 -29 c 0,15,16
 440.1 -29 440.1 -29 339.75 -4 c 128,-1,17
 239.4 21 239.4 21 140.4 72 c 1,18,-1
 140.4 362 l 1,19,-1
 241.2 362 l 1,20,21
 250.2 218 250.2 218 328.5 144 c 128,-1,22
 406.8 70 406.8 70 549 70 c 0,23,24
 686.7 70 686.7 70 766.35 158.5 c 128,-1,25
 846 247 846 247 846 401 c 0,26,27
 846 577 846 577 764.1 667.5 c 128,-1,28
 682.2 758 682.2 758 523.8 758 c 2,29,-1
 438.3 758 l 1,30,-1
 438.3 860 l 1,31,-1
 483.3 860 l 2,32,33
 640.8 860 640.8 860 719.55 932.5 c 128,-1,34
 798.3 1005 798.3 1005 798.3 1151 c 0,35,36
 798.3 1282 798.3 1282 733.5 1351.5 c 128,-1,37
 668.7 1421 668.7 1421 547.2 1421 c 0,38,39
 425.7 1421 425.7 1421 358.65 1357 c 128,-1,40
 291.6 1293 291.6 1293 279.9 1167 c 1,41,-1
 179.1 1167 l 1,42,-1
 179.1 1430 l 1,0,1
EndSplineSet
EndChar
StartChar: four
Encoding: 52 52 52
Width: 1172
Flags: W
Fore
643.5 506 m 1,0,-1
 643.5 1300 l 1,1,-1
 184.5 506 l 1,2,-1
 643.5 506 l 1,0,-1
1039.5 0 m 1,3,-1
 427.5 0 l 1,4,-1
 427.5 106 l 1,5,-1
 643.5 106 l 1,6,-1
 643.5 399 l 1,7,-1
 56.7002 399 l 1,8,-1
 56.7002 508 l 1,9,-1
 645.3 1520 l 1,10,-1
 823.5 1520 l 1,11,-1
 823.5 506 l 1,12,-1
 1080 506 l 1,13,-1
 1080 399 l 1,14,-1
 823.5 399 l 1,15,-1
 823.5 106 l 1,16,-1
 1039.5 106 l 1,17,-1
 1039.5 0 l 1,3,-1
EndSplineSet
EndChar
StartChar: five
Encoding: 53 53 53
Width: 1172
Flags: W
Fore
927 1493 m 1,0,-1
 927 1329 l 1,1,-1
 311.4 1329 l 1,2,-1
 311.4 901 l 1,3,4
 358.2 937 358.2 937 420.75 955 c 128,-1,5
 483.3 973 483.3 973 560.7 973 c 0,6,7
 778.5 973 778.5 973 904.5 839 c 128,-1,8
 1030.5 705 1030.5 705 1030.5 473 c 0,9,10
 1030.5 236 1030.5 236 903.15 103.5 c 128,-1,11
 775.8 -29 775.8 -29 545.4 -29 c 0,12,13
 452.7 -29 452.7 -29 355.5 -4 c 128,-1,14
 258.3 21 258.3 21 156.6 72 c 1,15,-1
 156.6 362 l 1,16,-1
 258.3 362 l 1,17,18
 266.4 220 266.4 220 339.75 145 c 128,-1,19
 413.1 70 413.1 70 545.4 70 c 0,20,21
 687.6 70 687.6 70 764.1 174 c 128,-1,22
 840.6 278 840.6 278 840.6 473 c 0,23,24
 840.6 667 840.6 667 764.55 770.5 c 128,-1,25
 688.5 874 688.5 874 545.4 874 c 0,26,27
 464.4 874 464.4 874 402.75 842 c 128,-1,28
 341.1 810 341.1 810 293.4 743 c 1,29,-1
 216 743 l 1,30,-1
 216 1493 l 1,31,-1
 927 1493 l 1,0,-1
EndSplineSet
EndChar
StartChar: six
Encoding: 54 54 54
Width: 1172
Flags: W
Fore
603 70 m 0,0,1
 729.9 70 729.9 70 798.3 173.5 c 128,-1,2
 866.7 277 866.7 277 866.7 471 c 0,3,4
 866.7 665 866.7 665 798.3 768.5 c 128,-1,5
 729.9 872 729.9 872 603 872 c 0,6,7
 474.3 872 474.3 872 406.8 772 c 128,-1,8
 339.3 672 339.3 672 339.3 483 c 0,9,10
 339.3 284 339.3 284 407.7 177 c 128,-1,11
 476.1 70 476.1 70 603 70 c 0,0,1
309.6 822 m 1,12,13
 370.8 897 370.8 897 448.2 934 c 128,-1,14
 525.6 971 525.6 971 622.8 971 c 0,15,16
 823.5 971 823.5 971 940.05 837 c 128,-1,17
 1056.6 703 1056.6 703 1056.6 471 c 0,18,19
 1056.6 244 1056.6 244 931.05 107.5 c 128,-1,20
 805.5 -29 805.5 -29 595.8 -29 c 0,21,22
 368.1 -29 368.1 -29 245.7 159.5 c 128,-1,23
 123.3 348 123.3 348 123.3 698 c 0,24,25
 123.3 1090 123.3 1090 268.2 1305 c 128,-1,26
 413.1 1520 413.1 1520 676.8 1520 c 0,27,28
 747.9 1520 747.9 1520 826.2 1505 c 128,-1,29
 904.5 1490 904.5 1490 986.4 1460 c 1,30,-1
 986.4 1214 l 1,31,-1
 884.7 1214 l 1,32,33
 873.9 1315 873.9 1315 815.4 1368 c 128,-1,34
 756.9 1421 756.9 1421 657.9 1421 c 0,35,36
 483.3 1421 483.3 1421 397.8 1274 c 128,-1,37
 312.3 1127 312.3 1127 309.6 822 c 1,12,13
EndSplineSet
EndChar
StartChar: seven
Encoding: 55 55 55
Width: 1172
Flags: W
Fore
1039.5 1391 m 1,0,-1
 513.9 0 l 1,1,-1
 379.8 0 l 1,2,-1
 881.1 1329 l 1,3,-1
 260.1 1329 l 1,4,-1
 260.1 1145 l 1,5,-1
 154.8 1145 l 1,6,-1
 154.8 1493 l 1,7,-1
 1039.5 1493 l 1,8,-1
 1039.5 1391 l 1,0,-1
EndSplineSet
EndChar
StartChar: eight
Encoding: 56 56 56
Width: 1172
Flags: W
Fore
858.6 408 m 0,0,1
 858.6 568 858.6 568 787.05 656.5 c 128,-1,2
 715.5 745 715.5 745 585.9 745 c 0,3,4
 456.3 745 456.3 745 384.75 656.5 c 128,-1,5
 313.2 568 313.2 568 313.2 408 c 0,6,7
 313.2 247 313.2 247 384.75 158.5 c 128,-1,8
 456.3 70 456.3 70 585.9 70 c 0,9,10
 715.5 70 715.5 70 787.05 158.5 c 128,-1,11
 858.6 247 858.6 247 858.6 408 c 0,0,1
821.7 1133 m 0,12,13
 821.7 1269 821.7 1269 759.6 1345 c 128,-1,14
 697.5 1421 697.5 1421 585.9 1421 c 0,15,16
 475.2 1421 475.2 1421 412.65 1345 c 128,-1,17
 350.1 1269 350.1 1269 350.1 1133 c 0,18,19
 350.1 996 350.1 996 412.65 920 c 128,-1,20
 475.2 844 475.2 844 585.9 844 c 0,21,22
 697.5 844 697.5 844 759.6 920 c 128,-1,23
 821.7 996 821.7 996 821.7 1133 c 0,12,13
724.5 795 m 1,24,25
 877.5 772 877.5 772 963 669.5 c 128,-1,26
 1048.5 567 1048.5 567 1048.5 408 c 0,27,28
 1048.5 198 1048.5 198 928.8 84.5 c 128,-1,29
 809.1 -29 809.1 -29 585.9 -29 c 0,30,31
 363.6 -29 363.6 -29 243.45 84.5 c 128,-1,32
 123.3 198 123.3 198 123.3 408 c 0,33,34
 123.3 567 123.3 567 208.8 669.5 c 128,-1,35
 294.3 772 294.3 772 448.2 795 c 1,36,37
 312.3 822 312.3 822 239.85 909.5 c 128,-1,38
 167.4 997 167.4 997 167.4 1133 c 0,39,40
 167.4 1313 167.4 1313 279 1416.5 c 128,-1,41
 390.6 1520 390.6 1520 585.9 1520 c 0,42,43
 781.2 1520 781.2 1520 892.8 1416.5 c 128,-1,44
 1004.4 1313 1004.4 1313 1004.4 1133 c 0,45,46
 1004.4 997 1004.4 997 931.95 909.5 c 128,-1,47
 859.5 822 859.5 822 724.5 795 c 1,24,25
EndSplineSet
EndChar
StartChar: nine
Encoding: 57 57 57
Width: 1172
Flags: W
Fore
862.2 669 m 1,0,1
 801.9 594 801.9 594 723.6 557 c 128,-1,2
 645.3 520 645.3 520 547.2 520 c 0,3,4
 347.4 520 347.4 520 231.75 654 c 128,-1,5
 116.1 788 116.1 788 116.1 1020 c 0,6,7
 116.1 1247 116.1 1247 241.65 1383.5 c 128,-1,8
 367.2 1520 367.2 1520 576.9 1520 c 0,9,10
 804.6 1520 804.6 1520 926.55 1331.5 c 128,-1,11
 1048.5 1143 1048.5 1143 1048.5 793 c 0,12,13
 1048.5 401 1048.5 401 903.6 186 c 128,-1,14
 758.7 -29 758.7 -29 495.9 -29 c 0,15,16
 424.8 -29 424.8 -29 346.5 -14 c 128,-1,17
 268.2 1 268.2 1 186.3 31 c 1,18,-1
 186.3 279 l 1,19,-1
 287.1 279 l 1,20,21
 298.8 178 298.8 178 357.3 124 c 128,-1,22
 415.8 70 415.8 70 513.9 70 c 0,23,24
 688.5 70 688.5 70 774 216.5 c 128,-1,25
 859.5 363 859.5 363 862.2 669 c 1,0,1
569.7 1421 m 0,26,27
 441.9 1421 441.9 1421 373.95 1317.5 c 128,-1,28
 306 1214 306 1214 306 1020 c 0,29,30
 306 826 306 826 373.95 722 c 128,-1,31
 441.9 618 441.9 618 569.7 618 c 0,32,33
 697.5 618 697.5 618 765.45 718.5 c 128,-1,34
 833.4 819 833.4 819 833.4 1008 c 0,35,36
 833.4 1207 833.4 1207 765 1314 c 128,-1,37
 696.6 1421 696.6 1421 569.7 1421 c 0,26,27
EndSplineSet
EndChar
StartChar: colon
Encoding: 58 58 58
Width: 621
Flags: W
Fore
191.7 104 m 0,0,1
 191.7 160 191.7 160 226.35 199 c 128,-1,2
 261 238 261 238 311.4 238 c 0,3,4
 361.8 238 361.8 238 396.45 199 c 128,-1,5
 431.1 160 431.1 160 431.1 104 c 0,6,7
 431.1 48 431.1 48 396.9 9.5 c 128,-1,8
 362.7 -29 362.7 -29 311.4 -29 c 0,9,10
 260.1 -29 260.1 -29 225.9 9.5 c 128,-1,11
 191.7 48 191.7 48 191.7 104 c 0,0,1
191.7 756 m 0,12,13
 191.7 812 191.7 812 226.35 850.5 c 128,-1,14
 261 889 261 889 311.4 889 c 0,15,16
 362.7 889 362.7 889 396.9 851 c 128,-1,17
 431.1 813 431.1 813 431.1 756 c 0,18,19
 431.1 699 431.1 699 396.9 661 c 128,-1,20
 362.7 623 362.7 623 311.4 623 c 0,21,22
 261 623 261 623 226.35 661.5 c 128,-1,23
 191.7 700 191.7 700 191.7 756 c 0,12,13
EndSplineSet
EndChar
StartChar: semicolon
Encoding: 59 59 59
Width: 621
Flags: W
Fore
66.5996 -199 m 1,0,1
 151.2 -130 151.2 -130 190.8 -36.5 c 128,-1,2
 230.4 57 230.4 57 230.4 190 c 2,3,-1
 230.4 227 l 1,4,-1
 407.7 227 l 1,5,6
 400.5 56 400.5 56 335.25 -66.5 c 128,-1,7
 270 -189 270 -189 138.6 -279 c 1,8,-1
 66.5996 -199 l 1,0,1
195.3 756 m 0,9,10
 195.3 812 195.3 812 229.95 850.5 c 128,-1,11
 264.6 889 264.6 889 315 889 c 0,12,13
 365.4 889 365.4 889 400.05 850 c 128,-1,14
 434.7 811 434.7 811 434.7 756 c 0,15,16
 434.7 700 434.7 700 400.05 661.5 c 128,-1,17
 365.4 623 365.4 623 315 623 c 0,18,19
 264.6 623 264.6 623 229.95 661.5 c 128,-1,20
 195.3 700 195.3 700 195.3 756 c 0,9,10
EndSplineSet
EndChar
StartChar: less
Encoding: 60 60 60
Width: 1544
Flags: W
Fore
1349.1 1020 m 1,0,-1
 414.9 641 l 1,1,-1
 1349.1 264 l 1,2,-1
 1349.1 94 l 1,3,-1
 195.3 559 l 1,4,-1
 195.3 725 l 1,5,-1
 1349.1 1190 l 1,6,-1
 1349.1 1020 l 1,0,-1
EndSplineSet
EndChar
StartChar: equal
Encoding: 61 61 61
Width: 1544
Flags: W
Fore
195.3 926 m 1,0,-1
 1349.1 926 l 1,1,-1
 1349.1 766 l 1,2,-1
 195.3 766 l 1,3,-1
 195.3 926 l 1,0,-1
195.3 518 m 1,4,-1
 1349.1 518 l 1,5,-1
 1349.1 358 l 1,6,-1
 195.3 358 l 1,7,-1
 195.3 518 l 1,4,-1
EndSplineSet
EndChar
StartChar: greater
Encoding: 62 62 62
Width: 1544
Flags: W
Fore
195.3 1020 m 1,0,-1
 195.3 1190 l 1,1,-1
 1349.1 725 l 1,2,-1
 1349.1 559 l 1,3,-1
 195.3 94 l 1,4,-1
 195.3 264 l 1,5,-1
 1129.5 641 l 1,6,-1
 195.3 1020 l 1,0,-1
EndSplineSet
EndChar
StartChar: question
Encoding: 63 63 63
Width: 988
Flags: W
Fore
324 104 m 0,0,1
 324 160 324 160 358.65 199 c 128,-1,2
 393.3 238 393.3 238 444.6 238 c 0,3,4
 494.1 238 494.1 238 529.2 199 c 128,-1,5
 564.3 160 564.3 160 564.3 104 c 0,6,7
 564.3 49 564.3 49 529.2 10 c 128,-1,8
 494.1 -29 494.1 -29 444.6 -29 c 0,9,10
 393.3 -29 393.3 -29 358.65 9.5 c 128,-1,11
 324 48 324 48 324 104 c 0,0,1
125.1 1427 m 1,12,13
 220.5 1474 220.5 1474 306.45 1497 c 128,-1,14
 392.4 1520 392.4 1520 468 1520 c 0,15,16
 667.8 1520 667.8 1520 783.45 1413 c 128,-1,17
 899.1 1306 899.1 1306 899.1 1124 c 0,18,19
 899.1 938 899.1 938 799.65 820 c 128,-1,20
 700.2 702 700.2 702 499.5 651 c 1,21,-1
 499.5 397 l 1,22,-1
 388.8 397 l 1,23,-1
 388.8 725 l 1,24,25
 548.1 768 548.1 768 628.65 869 c 128,-1,26
 709.2 970 709.2 970 709.2 1126 c 0,27,28
 709.2 1263 709.2 1263 643.5 1342 c 128,-1,29
 577.8 1421 577.8 1421 464.4 1421 c 0,30,31
 361.8 1421 361.8 1421 296.55 1355.5 c 128,-1,32
 231.3 1290 231.3 1290 212.4 1167 c 1,33,-1
 125.1 1167 l 1,34,-1
 125.1 1427 l 1,12,13
EndSplineSet
EndChar
StartChar: at
Encoding: 64 64 64
Width: 1843
Flags: W
Fore
1164.6 248 m 1,0,1
 1111.5 166 1111.5 166 1045.35 126 c 128,-1,2
 979.2 86 979.2 86 895.5 86 c 0,3,4
 738 86 738 86 639.9 211 c 128,-1,5
 541.8 336 541.8 336 541.8 537 c 0,6,7
 541.8 738 541.8 738 639.9 862.5 c 128,-1,8
 738 987 738 987 895.5 987 c 0,9,10
 979.2 987 979.2 987 1045.35 947 c 128,-1,11
 1111.5 907 1111.5 907 1164.6 825 c 1,12,-1
 1164.6 967 l 1,13,-1
 1305 967 l 1,14,-1
 1305 195 l 1,15,16
 1458 232 1458 232 1542.6 357 c 128,-1,17
 1627.2 482 1627.2 482 1627.2 670 c 0,18,19
 1627.2 781 1627.2 781 1596.6 880 c 128,-1,20
 1566 979 1566 979 1505.7 1063 c 0,21,22
 1410.3 1196 1410.3 1196 1273.05 1266.5 c 128,-1,23
 1135.8 1337 1135.8 1337 974.7 1337 c 0,24,25
 893.7 1337 893.7 1337 814.5 1318 c 128,-1,26
 735.3 1299 735.3 1299 657.9 1260 c 0,27,28
 476.1 1167 476.1 1167 375.3 978.5 c 128,-1,29
 274.5 790 274.5 790 274.5 543 c 0,30,31
 274.5 376 274.5 376 319.5 235.5 c 128,-1,32
 364.5 95 364.5 95 450 -8 c 0,33,34
 548.1 -127 548.1 -127 682.65 -189.5 c 128,-1,35
 817.2 -252 817.2 -252 972.9 -252 c 0,36,37
 1089 -252 1089 -252 1189.8 -214 c 128,-1,38
 1290.6 -176 1290.6 -176 1377 -100 c 1,39,-1
 1424.7 -170 l 1,40,41
 1327.5 -263 1327.5 -263 1204.2 -309.5 c 128,-1,42
 1080.9 -356 1080.9 -356 934.2 -356 c 0,43,44
 769.5 -356 769.5 -356 619.65 -289.5 c 128,-1,45
 469.8 -223 469.8 -223 357.3 -100 c 0,46,47
 241.2 27 241.2 27 181.35 190.5 c 128,-1,48
 121.5 354 121.5 354 121.5 543 c 0,49,50
 121.5 727 121.5 727 181.8 890 c 128,-1,51
 242.1 1053 242.1 1053 357.3 1180 c 0,52,53
 471.6 1306 471.6 1306 626.85 1374 c 128,-1,54
 782.1 1442 782.1 1442 956.7 1442 c 0,55,56
 1149.3 1442 1149.3 1442 1308.15 1359 c 128,-1,57
 1467 1276 1467 1276 1574.1 1120 c 0,58,59
 1642.5 1022 1642.5 1022 1677.6 907 c 128,-1,60
 1712.7 792 1712.7 792 1712.7 668 c 0,61,62
 1712.7 400 1712.7 400 1566 244.5 c 128,-1,63
 1419.3 89 1419.3 89 1165.5 86 c 1,64,-1
 1164.6 248 l 1,0,1
1164.6 485 m 2,65,-1
 1164.6 590 l 2,66,67
 1164.6 715 1164.6 715 1100.25 792.5 c 128,-1,68
 1035.9 870 1035.9 870 932.4 870 c 0,69,70
 823.5 870 823.5 870 762.75 782.5 c 128,-1,71
 702 695 702 695 702 537 c 0,72,73
 702 378 702 378 763.2 290.5 c 128,-1,74
 824.4 203 824.4 203 934.2 203 c 0,75,76
 1036.8 203 1036.8 203 1100.7 281.5 c 128,-1,77
 1164.6 360 1164.6 360 1164.6 485 c 2,65,-1
EndSplineSet
EndChar
StartChar: A
Encoding: 65 65 65
Width: 1331
Flags: W
AnchorPoint: "below" 665.1 0 basechar 0
AnchorPoint: "above" 665.1 1465 basechar 0
Fore
369 541 m 1,0,-1
 862.2 541 l 1,1,-1
 615.6 1251 l 1,2,-1
 369 541 l 1,0,-1
-10.7998 0 m 1,3,-1
 -10.7998 106 l 1,4,-1
 107.1 106 l 1,5,-1
 585.9 1493 l 1,6,-1
 737.1 1493 l 1,7,-1
 1216.8 106 l 1,8,-1
 1349.1 106 l 1,9,-1
 1349.1 0 l 1,10,-1
 860.4 0 l 1,11,-1
 860.4 106 l 1,12,-1
 1009.8 106 l 1,13,-1
 897.3 434 l 1,14,-1
 332.1 434 l 1,15,-1
 219.6 106 l 1,16,-1
 367.2 106 l 1,17,-1
 367.2 0 l 1,18,-1
 -10.7998 0 l 1,3,-1
EndSplineSet
EndChar
StartChar: B
Encoding: 66 66 66
Width: 1354
Flags: W
AnchorPoint: "below" 668.7 0 basechar 0
AnchorPoint: "above" 668.7 1465 basechar 0
Fore
455.4 106 m 1,0,-1
 724.5 106 l 2,1,2
 886.5 106 886.5 106 961.2 184 c 128,-1,3
 1035.9 262 1035.9 262 1035.9 432 c 0,4,5
 1035.9 601 1035.9 601 961.65 678.5 c 128,-1,6
 887.4 756 887.4 756 724.5 756 c 2,7,-1
 455.4 756 l 1,8,-1
 455.4 106 l 1,0,-1
455.4 862 m 1,9,-1
 684 862 l 2,10,11
 831.6 862 831.6 862 899.55 925 c 128,-1,12
 967.5 988 967.5 988 967.5 1124 c 0,13,14
 967.5 1261 967.5 1261 899.55 1323.5 c 128,-1,15
 831.6 1386 831.6 1386 684 1386 c 2,16,-1
 455.4 1386 l 1,17,-1
 455.4 862 l 1,9,-1
101.7 0 m 1,18,-1
 101.7 106 l 1,19,-1
 272.7 106 l 1,20,-1
 272.7 1386 l 1,21,-1
 101.7 1386 l 1,22,-1
 101.7 1493 l 1,23,-1
 765 1493 l 2,24,25
 968.4 1493 968.4 1493 1071.45 1400.5 c 128,-1,26
 1174.5 1308 1174.5 1308 1174.5 1124 c 0,27,28
 1174.5 991 1174.5 991 1102.95 912 c 128,-1,29
 1031.4 833 1031.4 833 893.7 815 c 1,30,31
 1064.7 791 1064.7 791 1153.35 693.5 c 128,-1,32
 1242 596 1242 596 1242 432 c 0,33,34
 1242 210 1242 210 1116 105 c 128,-1,35
 990 0 990 0 722.7 0 c 2,36,-1
 101.7 0 l 1,18,-1
EndSplineSet
EndChar
StartChar: C
Encoding: 67 67 67
Width: 1410
Flags: W
AnchorPoint: "below" 746.1 0 basechar 0
AnchorPoint: "above" 746.1 1465 basechar 0
Fore
1299.6 395 m 1,0,1
 1240.2 186 1240.2 186 1100.25 78.5 c 128,-1,2
 960.3 -29 960.3 -29 746.1 -29 c 0,3,4
 614.7 -29 614.7 -29 502.2 21 c 128,-1,5
 389.7 71 389.7 71 302.4 168 c 0,6,7
 201.6 280 201.6 280 152.55 422.5 c 128,-1,8
 103.5 565 103.5 565 103.5 745 c 0,9,10
 103.5 1093 103.5 1093 284.4 1306.5 c 128,-1,11
 465.3 1520 465.3 1520 761.4 1520 c 0,12,13
 871.2 1520 871.2 1520 995.4 1488 c 128,-1,14
 1119.6 1456 1119.6 1456 1262.7 1391 c 1,15,-1
 1262.7 1047 l 1,16,-1
 1161 1047 l 1,17,18
 1127.7 1235 1127.7 1235 1027.35 1324 c 128,-1,19
 927 1413 927 1413 746.1 1413 c 0,20,21
 531 1413 531 1413 420.3 1243.5 c 128,-1,22
 309.6 1074 309.6 1074 309.6 745 c 0,23,24
 309.6 417 309.6 417 420.3 247.5 c 128,-1,25
 531 78 531 78 746.1 78 c 0,26,27
 896.4 78 896.4 78 993.6 157.5 c 128,-1,28
 1090.8 237 1090.8 237 1134 395 c 1,29,-1
 1299.6 395 l 1,0,1
EndSplineSet
EndChar
StartChar: D
Encoding: 68 68 68
Width: 1477
Flags: W
AnchorPoint: "below" 668.7 0 basechar 0
AnchorPoint: "above" 668.7 1465 basechar 0
Fore
455.4 106 m 1,0,-1
 622.8 106 l 2,1,2
 884.7 106 884.7 106 1024.65 272 c 128,-1,3
 1164.6 438 1164.6 438 1164.6 748 c 0,4,5
 1164.6 1058 1164.6 1058 1025.1 1222 c 128,-1,6
 885.6 1386 885.6 1386 622.8 1386 c 2,7,-1
 455.4 1386 l 1,8,-1
 455.4 106 l 1,0,-1
101.7 0 m 1,9,-1
 101.7 106 l 1,10,-1
 272.7 106 l 1,11,-1
 272.7 1386 l 1,12,-1
 101.7 1386 l 1,13,-1
 101.7 1493 l 1,14,-1
 636.3 1493 l 2,15,16
 983.7 1493 983.7 1493 1177.65 1296 c 128,-1,17
 1371.6 1099 1371.6 1099 1371.6 748 c 0,18,19
 1371.6 396 1371.6 396 1177.2 198 c 128,-1,20
 982.8 0 982.8 0 636.3 0 c 2,21,-1
 101.7 0 l 1,9,-1
EndSplineSet
EndChar
StartChar: E
Encoding: 69 69 69
Width: 1345
Flags: W
AnchorPoint: "below" 673.2 0 basechar 0
AnchorPoint: "above" 673.2 1465 basechar 0
Fore
101.7 0 m 1,0,-1
 101.7 106 l 1,1,-1
 272.7 106 l 1,2,-1
 272.7 1386 l 1,3,-1
 101.7 1386 l 1,4,-1
 101.7 1493 l 1,5,-1
 1183.5 1493 l 1,6,-1
 1183.5 1161 l 1,7,-1
 1072.8 1161 l 1,8,-1
 1072.8 1370 l 1,9,-1
 455.4 1370 l 1,10,-1
 455.4 870 l 1,11,-1
 895.5 870 l 1,12,-1
 895.5 1057 l 1,13,-1
 1006.2 1057 l 1,14,-1
 1006.2 561 l 1,15,-1
 895.5 561 l 1,16,-1
 895.5 748 l 1,17,-1
 455.4 748 l 1,18,-1
 455.4 123 l 1,19,-1
 1087.2 123 l 1,20,-1
 1087.2 332 l 1,21,-1
 1197.9 332 l 1,22,-1
 1197.9 0 l 1,23,-1
 101.7 0 l 1,0,-1
EndSplineSet
EndChar
StartChar: F
Encoding: 70 70 70
Width: 1278
Flags: W
AnchorPoint: "above" 682.2 1465 basechar 0
AnchorPoint: "below" 363.6 0 basechar 0
Fore
101.7 0 m 1,0,-1
 101.7 106 l 1,1,-1
 272.7 106 l 1,2,-1
 272.7 1386 l 1,3,-1
 101.7 1386 l 1,4,-1
 101.7 1493 l 1,5,-1
 1201.5 1493 l 1,6,-1
 1201.5 1161 l 1,7,-1
 1090.8 1161 l 1,8,-1
 1090.8 1370 l 1,9,-1
 455.4 1370 l 1,10,-1
 455.4 870 l 1,11,-1
 914.4 870 l 1,12,-1
 914.4 1057 l 1,13,-1
 1025.1 1057 l 1,14,-1
 1025.1 561 l 1,15,-1
 914.4 561 l 1,16,-1
 914.4 748 l 1,17,-1
 455.4 748 l 1,18,-1
 455.4 106 l 1,19,-1
 670.5 106 l 1,20,-1
 670.5 0 l 1,21,-1
 101.7 0 l 1,0,-1
EndSplineSet
EndChar
StartChar: G
Encoding: 71 71 71
Width: 1472
Flags: W
AnchorPoint: "below" 770.4 0 basechar 0
AnchorPoint: "above" 770.4 1465 basechar 0
Fore
1179.9 1047 m 1,0,1
 1148.4 1234 1148.4 1234 1048.5 1323.5 c 128,-1,2
 948.6 1413 948.6 1413 770.4 1413 c 0,3,4
 538.2 1413 538.2 1413 423.9 1247 c 128,-1,5
 309.6 1081 309.6 1081 309.6 745 c 0,6,7
 309.6 416 309.6 416 427.5 247 c 128,-1,8
 545.4 78 545.4 78 774 78 c 0,9,10
 875.7 78 875.7 78 968.4 106 c 128,-1,11
 1061.1 134 1061.1 134 1144.8 190 c 1,12,-1
 1144.8 575 l 1,13,-1
 891.9 575 l 1,14,-1
 891.9 682 l 1,15,-1
 1327.5 682 l 1,16,-1
 1327.5 125 l 1,17,18
 1207.8 48 1207.8 48 1069.65 9.5 c 128,-1,19
 931.5 -29 931.5 -29 774 -29 c 0,20,21
 469.8 -29 469.8 -29 286.65 182.5 c 128,-1,22
 103.5 394 103.5 394 103.5 745 c 0,23,24
 103.5 1099 103.5 1099 287.1 1309.5 c 128,-1,25
 470.7 1520 470.7 1520 781.2 1520 c 0,26,27
 896.4 1520 896.4 1520 1019.25 1490.5 c 128,-1,28
 1142.1 1461 1142.1 1461 1280.7 1401 c 1,29,-1
 1280.7 1047 l 1,30,-1
 1179.9 1047 l 1,0,1
EndSplineSet
EndChar
StartChar: H
Encoding: 72 72 72
Width: 1607
Flags: W
AnchorPoint: "below" 803.7 0 basechar 0
AnchorPoint: "above" 803.7 1465 basechar 0
Fore
101.7 0 m 1,0,-1
 101.7 106 l 1,1,-1
 272.7 106 l 1,2,-1
 272.7 1386 l 1,3,-1
 101.7 1386 l 1,4,-1
 101.7 1493 l 1,5,-1
 626.4 1493 l 1,6,-1
 626.4 1386 l 1,7,-1
 455.4 1386 l 1,8,-1
 455.4 870 l 1,9,-1
 1152 870 l 1,10,-1
 1152 1386 l 1,11,-1
 981 1386 l 1,12,-1
 981 1493 l 1,13,-1
 1505.7 1493 l 1,14,-1
 1505.7 1386 l 1,15,-1
 1334.7 1386 l 1,16,-1
 1334.7 106 l 1,17,-1
 1505.7 106 l 1,18,-1
 1505.7 0 l 1,19,-1
 981 0 l 1,20,-1
 981 106 l 1,21,-1
 1152 106 l 1,22,-1
 1152 748 l 1,23,-1
 455.4 748 l 1,24,-1
 455.4 106 l 1,25,-1
 626.4 106 l 1,26,-1
 626.4 0 l 1,27,-1
 101.7 0 l 1,0,-1
EndSplineSet
EndChar
StartChar: I
Encoding: 73 73 73
Width: 728
Flags: W
AnchorPoint: "below" 365.4 0 basechar 0
AnchorPoint: "above" 365.4 1465 basechar 0
Fore
455.4 106 m 1,0,-1
 626.4 106 l 1,1,-1
 626.4 0 l 1,2,-1
 101.7 0 l 1,3,-1
 101.7 106 l 1,4,-1
 272.7 106 l 1,5,-1
 272.7 1386 l 1,6,-1
 101.7 1386 l 1,7,-1
 101.7 1493 l 1,8,-1
 626.4 1493 l 1,9,-1
 626.4 1386 l 1,10,-1
 455.4 1386 l 1,11,-1
 455.4 106 l 1,0,-1
EndSplineSet
EndChar
StartChar: J
Encoding: 74 74 74
Width: 738
Flags: W
AnchorPoint: "below" 168.3 -430 basechar 0
AnchorPoint: "above" 391.5 1465 basechar 0
Fore
-154.8 -358 m 1,0,-1
 -154.8 -123 l 1,1,-1
 -52.2002 -123 l 1,2,3
 -49.5 -222 -49.5 -222 -9.90039 -270.5 c 128,-1,4
 29.7002 -319 29.7002 -319 108.9 -319 c 0,5,6
 216 -319 216 -319 258.3 -244 c 128,-1,7
 300.6 -169 300.6 -169 300.6 49 c 2,8,-1
 300.6 1386 l 1,9,-1
 91.7998 1386 l 1,10,-1
 91.7998 1493 l 1,11,-1
 654.3 1493 l 1,12,-1
 654.3 1386 l 1,13,-1
 483.3 1386 l 1,14,-1
 483.3 41 l 2,15,16
 483.3 -206 483.3 -206 394.2 -316 c 128,-1,17
 305.1 -426 305.1 -426 107.1 -426 c 0,18,19
 43.2002 -426 43.2002 -426 -22.9502 -409 c 128,-1,20
 -89.0996 -392 -89.0996 -392 -154.8 -358 c 1,0,-1
EndSplineSet
EndChar
StartChar: K
Encoding: 75 75 75
Width: 1377
Flags: W
AnchorPoint: "above" 756.9 1465 basechar 0
AnchorPoint: "below" 756.9 0 basechar 0
Fore
101.7 0 m 1,0,-1
 101.7 106 l 1,1,-1
 272.7 106 l 1,2,-1
 272.7 1386 l 1,3,-1
 101.7 1386 l 1,4,-1
 101.7 1493 l 1,5,-1
 626.4 1493 l 1,6,-1
 626.4 1386 l 1,7,-1
 455.4 1386 l 1,8,-1
 455.4 821 l 1,9,-1
 1034.1 1386 l 1,10,-1
 888.3 1386 l 1,11,-1
 888.3 1493 l 1,12,-1
 1334.7 1493 l 1,13,-1
 1334.7 1386 l 1,14,-1
 1183.5 1386 l 1,15,-1
 606.6 823 l 1,16,-1
 1251.9 106 l 1,17,-1
 1404.9 106 l 1,18,-1
 1404.9 0 l 1,19,-1
 1092.6 0 l 1,20,-1
 455.4 709 l 1,21,-1
 455.4 106 l 1,22,-1
 626.4 106 l 1,23,-1
 626.4 0 l 1,24,-1
 101.7 0 l 1,0,-1
EndSplineSet
EndChar
StartChar: L
Encoding: 76 76 76
Width: 1224
Flags: W
AnchorPoint: "above" 365.4 1465 basechar 0
AnchorPoint: "below" 684 0 basechar 0
Fore
101.7 0 m 1,0,-1
 101.7 106 l 1,1,-1
 272.7 106 l 1,2,-1
 272.7 1386 l 1,3,-1
 101.7 1386 l 1,4,-1
 101.7 1493 l 1,5,-1
 626.4 1493 l 1,6,-1
 626.4 1386 l 1,7,-1
 455.4 1386 l 1,8,-1
 455.4 123 l 1,9,-1
 1069.2 123 l 1,10,-1
 1069.2 373 l 1,11,-1
 1179.9 373 l 1,12,-1
 1179.9 0 l 1,13,-1
 101.7 0 l 1,0,-1
EndSplineSet
EndChar
StartChar: M
Encoding: 77 77 77
Width: 1887
Flags: W
AnchorPoint: "below" 943.2 0 basechar 0
AnchorPoint: "above" 943.2 1465 basechar 0
Fore
101.7 0 m 1,0,-1
 101.7 106 l 1,1,-1
 272.7 106 l 1,2,-1
 272.7 1386 l 1,3,-1
 91.7998 1386 l 1,4,-1
 91.7998 1493 l 1,5,-1
 483.3 1493 l 1,6,-1
 954.9 430 l 1,7,-1
 1426.5 1493 l 1,8,-1
 1793.7 1493 l 1,9,-1
 1793.7 1386 l 1,10,-1
 1614.6 1386 l 1,11,-1
 1614.6 106 l 1,12,-1
 1786.5 106 l 1,13,-1
 1786.5 0 l 1,14,-1
 1260.9 0 l 1,15,-1
 1260.9 106 l 1,16,-1
 1431.9 106 l 1,17,-1
 1431.9 1260 l 1,18,-1
 971.1 219 l 1,19,-1
 844.2 219 l 1,20,-1
 383.4 1260 l 1,21,-1
 383.4 106 l 1,22,-1
 554.4 106 l 1,23,-1
 554.4 0 l 1,24,-1
 101.7 0 l 1,0,-1
EndSplineSet
EndChar
StartChar: N
Encoding: 78 78 78
Width: 1612
Flags: W
AnchorPoint: "below" 783.9 0 basechar 0
AnchorPoint: "above" 783.9 1465 basechar 0
Fore
90 0 m 1,0,-1
 90 106 l 1,1,-1
 270.9 106 l 1,2,-1
 270.9 1386 l 1,3,-1
 90 1386 l 1,4,-1
 90 1493 l 1,5,-1
 434.7 1493 l 1,6,-1
 1240.2 315 l 1,7,-1
 1240.2 1386 l 1,8,-1
 1060.2 1386 l 1,9,-1
 1060.2 1493 l 1,10,-1
 1531.8 1493 l 1,11,-1
 1531.8 1386 l 1,12,-1
 1350.9 1386 l 1,13,-1
 1350.9 -29 l 1,14,-1
 1242 -29 l 1,15,-1
 381.6 1229 l 1,16,-1
 381.6 106 l 1,17,-1
 562.5 106 l 1,18,-1
 562.5 0 l 1,19,-1
 90 0 l 1,0,-1
EndSplineSet
EndChar
StartChar: O
Encoding: 79 79 79
Width: 1511
Flags: W
AnchorPoint: "below" 756 0 basechar 0
AnchorPoint: "above" 756 1465 basechar 0
Fore
756 78 m 0,0,1
 976.5 78 976.5 78 1089 246.5 c 128,-1,2
 1201.5 415 1201.5 415 1201.5 745 c 0,3,4
 1201.5 1076 1201.5 1076 1089 1244.5 c 128,-1,5
 976.5 1413 976.5 1413 756 1413 c 0,6,7
 534.6 1413 534.6 1413 422.1 1244.5 c 128,-1,8
 309.6 1076 309.6 1076 309.6 745 c 0,9,10
 309.6 415 309.6 415 422.1 246.5 c 128,-1,11
 534.6 78 534.6 78 756 78 c 0,0,1
756 -29 m 0,12,13
 619.2 -29 619.2 -29 504.45 21 c 128,-1,14
 389.7 71 389.7 71 302.4 168 c 0,15,16
 201.6 280 201.6 280 152.55 422 c 128,-1,17
 103.5 564 103.5 564 103.5 745 c 0,18,19
 103.5 926 103.5 926 152.55 1068.5 c 128,-1,20
 201.6 1211 201.6 1211 302.4 1323 c 0,21,22
 390.6 1421 390.6 1421 504 1470.5 c 128,-1,23
 617.4 1520 617.4 1520 756 1520 c 0,24,25
 1048.5 1520 1048.5 1520 1228.5 1307 c 128,-1,26
 1408.5 1094 1408.5 1094 1408.5 745 c 0,27,28
 1408.5 566 1408.5 566 1359 422.5 c 128,-1,29
 1309.5 279 1309.5 279 1208.7 168 c 0,30,31
 1120.5 70 1120.5 70 1007.1 20.5 c 128,-1,32
 893.7 -29 893.7 -29 756 -29 c 0,12,13
EndSplineSet
EndChar
StartChar: P
Encoding: 80 80 80
Width: 1240
Flags: W
AnchorPoint: "below" 365.4 0 basechar 0
AnchorPoint: "above" 668.7 1465 basechar 0
Fore
455.4 760 m 1,0,-1
 693 760 l 2,1,2
 827.1 760 827.1 760 897.3 840.5 c 128,-1,3
 967.5 921 967.5 921 967.5 1073 c 0,4,5
 967.5 1226 967.5 1226 897.3 1306 c 128,-1,6
 827.1 1386 827.1 1386 693 1386 c 2,7,-1
 455.4 1386 l 1,8,-1
 455.4 760 l 1,0,-1
101.7 0 m 1,9,-1
 101.7 106 l 1,10,-1
 272.7 106 l 1,11,-1
 272.7 1386 l 1,12,-1
 101.7 1386 l 1,13,-1
 101.7 1493 l 1,14,-1
 737.1 1493 l 2,15,16
 938.7 1493 938.7 1493 1056.6 1379.5 c 128,-1,17
 1174.5 1266 1174.5 1266 1174.5 1073 c 0,18,19
 1174.5 881 1174.5 881 1056.6 767 c 128,-1,20
 938.7 653 938.7 653 737.1 653 c 2,21,-1
 455.4 653 l 1,22,-1
 455.4 106 l 1,23,-1
 663.3 106 l 1,24,-1
 663.3 0 l 1,25,-1
 101.7 0 l 1,9,-1
EndSplineSet
EndChar
StartChar: Q
Encoding: 81 81 81
Width: 1511
Flags: W
AnchorPoint: "above" 756 1465 basechar 0
AnchorPoint: "below" 756 -330 basechar 0
Fore
777.6 -29 m 1,0,1
 468.9 -29 468.9 -29 286.2 181.5 c 128,-1,2
 103.5 392 103.5 392 103.5 745 c 0,3,4
 103.5 926 103.5 926 152.55 1068.5 c 128,-1,5
 201.6 1211 201.6 1211 302.4 1323 c 0,6,7
 390.6 1421 390.6 1421 504 1470.5 c 128,-1,8
 617.4 1520 617.4 1520 756 1520 c 0,9,10
 1048.5 1520 1048.5 1520 1228.5 1307 c 128,-1,11
 1408.5 1094 1408.5 1094 1408.5 745 c 0,12,13
 1408.5 449 1408.5 449 1273.5 247.5 c 128,-1,14
 1138.5 46 1138.5 46 900.9 -12 c 1,15,16
 949.5 -79 949.5 -79 1019.25 -111 c 128,-1,17
 1089 -143 1089 -143 1187.1 -143 c 2,18,-1
 1215 -143 l 1,19,-1
 1215 -328 l 1,20,21
 1062.9 -320 1062.9 -320 954.45 -245.5 c 128,-1,22
 846 -171 846 -171 777.6 -29 c 1,0,1
756 78 m 0,23,24
 976.5 78 976.5 78 1089 246.5 c 128,-1,25
 1201.5 415 1201.5 415 1201.5 745 c 0,26,27
 1201.5 1076 1201.5 1076 1089 1244.5 c 128,-1,28
 976.5 1413 976.5 1413 756 1413 c 0,29,30
 534.6 1413 534.6 1413 422.1 1244.5 c 128,-1,31
 309.6 1076 309.6 1076 309.6 745 c 0,32,33
 309.6 415 309.6 415 422.1 246.5 c 128,-1,34
 534.6 78 534.6 78 756 78 c 0,23,24
EndSplineSet
EndChar
StartChar: R
Encoding: 82 82 82
Width: 1387
Flags: W
AnchorPoint: "below" 657.9 0 basechar 0
AnchorPoint: "above" 657.9 1465 basechar 0
Fore
882.9 741 m 1,0,1
 945.9 722 945.9 722 991.35 676.5 c 128,-1,2
 1036.8 631 1036.8 631 1072.8 549 c 2,3,-1
 1268.1 106 l 1,4,-1
 1431.9 106 l 1,5,-1
 1431.9 0 l 1,6,-1
 1115.1 0 l 1,7,-1
 905.4 475 l 1,8,9
 845.1 613 845.1 613 794.7 653.5 c 128,-1,10
 744.3 694 744.3 694 656.1 694 c 2,11,-1
 455.4 694 l 1,12,-1
 455.4 106 l 1,13,-1
 645.3 106 l 1,14,-1
 645.3 0 l 1,15,-1
 101.7 0 l 1,16,-1
 101.7 106 l 1,17,-1
 272.7 106 l 1,18,-1
 272.7 1386 l 1,19,-1
 101.7 1386 l 1,20,-1
 101.7 1493 l 1,21,-1
 783 1493 l 2,22,23
 979.2 1493 979.2 1493 1085.85 1389 c 128,-1,24
 1192.5 1285 1192.5 1285 1192.5 1094 c 0,25,26
 1192.5 940 1192.5 940 1114.65 851.5 c 128,-1,27
 1036.8 763 1036.8 763 882.9 741 c 1,0,1
455.4 801 m 1,28,-1
 720.9 801 l 2,29,30
 856.8 801 856.8 801 921.6 872.5 c 128,-1,31
 986.4 944 986.4 944 986.4 1094 c 0,32,33
 986.4 1244 986.4 1244 921.6 1315 c 128,-1,34
 856.8 1386 856.8 1386 720.9 1386 c 2,35,-1
 455.4 1386 l 1,36,-1
 455.4 801 l 1,28,-1
EndSplineSet
EndChar
StartChar: S
Encoding: 83 83 83
Width: 1262
Flags: W
AnchorPoint: "below" 631.8 0 basechar 0
AnchorPoint: "above" 631.8 1465 basechar 0
Fore
171 72 m 1,0,-1
 171 412 l 1,1,-1
 274.5 411 l 1,2,3
 279 241 279 241 363.15 159.5 c 128,-1,4
 447.3 78 447.3 78 619.2 78 c 0,5,6
 779.4 78 779.4 78 863.55 148.5 c 128,-1,7
 947.7 219 947.7 219 947.7 354 c 0,8,9
 947.7 462 947.7 462 896.85 520 c 128,-1,10
 846 578 846 578 682.2 633 c 2,11,-1
 504.9 692 l 2,12,13
 312.3 757 312.3 757 233.55 854 c 128,-1,14
 154.8 951 154.8 951 154.8 1120 c 0,15,16
 154.8 1310 154.8 1310 276.3 1415 c 128,-1,17
 397.8 1520 397.8 1520 617.4 1520 c 0,18,19
 711 1520 711 1520 822.6 1497.5 c 128,-1,20
 934.2 1475 934.2 1475 1060.2 1432 c 1,21,-1
 1060.2 1114 l 1,22,-1
 958.5 1114 l 1,23,24
 943.2 1272 943.2 1272 863.55 1342.5 c 128,-1,25
 783.9 1413 783.9 1413 621 1413 c 0,26,27
 478.8 1413 478.8 1413 404.55 1348.5 c 128,-1,28
 330.3 1284 330.3 1284 330.3 1161 c 0,29,30
 330.3 1054 330.3 1054 386.1 993 c 128,-1,31
 441.9 932 441.9 932 622.8 872 c 2,32,-1
 789.3 817 l 2,33,34
 972 756 972 756 1049.85 661.5 c 128,-1,35
 1127.7 567 1127.7 567 1127.7 408 c 0,36,37
 1127.7 191 1127.7 191 1002.6 81 c 128,-1,38
 877.5 -29 877.5 -29 630 -29 c 0,39,40
 519.3 -29 519.3 -29 404.55 -4 c 128,-1,41
 289.8 21 289.8 21 171 72 c 1,0,-1
EndSplineSet
EndChar
StartChar: T
Encoding: 84 84 84
Width: 1229
Flags: W
AnchorPoint: "below" 609.3 0 basechar 0
AnchorPoint: "above" 609.3 1465 basechar 0
Fore
351.9 0 m 1,0,-1
 351.9 106 l 1,1,-1
 523.8 106 l 1,2,-1
 523.8 1374 l 1,3,-1
 128.7 1374 l 1,4,-1
 128.7 1141 l 1,5,-1
 18 1141 l 1,6,-1
 18 1493 l 1,7,-1
 1211.4 1493 l 1,8,-1
 1211.4 1141 l 1,9,-1
 1100.7 1141 l 1,10,-1
 1100.7 1374 l 1,11,-1
 705.6 1374 l 1,12,-1
 705.6 106 l 1,13,-1
 877.5 106 l 1,14,-1
 877.5 0 l 1,15,-1
 351.9 0 l 1,0,-1
EndSplineSet
EndChar
StartChar: U
Encoding: 85 85 85
Width: 1553
Flags: W
AnchorPoint: "below" 812.7 0 basechar 0
AnchorPoint: "above" 812.7 1465 basechar 0
Fore
258.3 1386 m 1,0,-1
 86.4004 1386 l 1,1,-1
 86.4004 1493 l 1,2,-1
 612 1493 l 1,3,-1
 612 1386 l 1,4,-1
 440.1 1386 l 1,5,-1
 440.1 614 l 2,6,7
 440.1 328 440.1 328 524.25 215 c 128,-1,8
 608.4 102 608.4 102 814.5 102 c 0,9,10
 1020.6 102 1020.6 102 1104.75 215 c 128,-1,11
 1188.9 328 1188.9 328 1188.9 614 c 2,12,-1
 1188.9 1386 l 1,13,-1
 1017 1386 l 1,14,-1
 1017 1493 l 1,15,-1
 1470.6 1493 l 1,16,-1
 1470.6 1386 l 1,17,-1
 1299.6 1386 l 1,18,-1
 1299.6 594 l 2,19,20
 1299.6 253 1299.6 253 1181.7 112 c 128,-1,21
 1063.8 -29 1063.8 -29 781.2 -29 c 0,22,23
 498.6 -29 498.6 -29 378.45 113 c 128,-1,24
 258.3 255 258.3 255 258.3 594 c 2,25,-1
 258.3 1386 l 1,0,-1
EndSplineSet
EndChar
StartChar: V
Encoding: 86 86 86
Width: 1331
Flags: W
AnchorPoint: "above" 665.1 1465 basechar 0
AnchorPoint: "below" 665.1 0 basechar 0
Fore
322.2 1386 m 1,0,-1
 719.1 240 l 1,1,-1
 1115.1 1386 l 1,2,-1
 963.9 1386 l 1,3,-1
 963.9 1493 l 1,4,-1
 1358.1 1493 l 1,5,-1
 1358.1 1386 l 1,6,-1
 1227.6 1386 l 1,7,-1
 747.9 0 l 1,8,-1
 593.1 0 l 1,9,-1
 116.1 1386 l 1,10,-1
 -18 1386 l 1,11,-1
 -18 1493 l 1,12,-1
 471.6 1493 l 1,13,-1
 471.6 1386 l 1,14,-1
 322.2 1386 l 1,0,-1
EndSplineSet
EndChar
StartChar: W
Encoding: 87 87 87
Width: 1894
Flags: W
AnchorPoint: "below" 948.6 0 basechar 0
AnchorPoint: "above" 948.6 1465 basechar 0
Fore
1404.9 0 m 1,0,-1
 1257.3 0 l 1,1,-1
 949.5 1214 l 1,2,-1
 641.7 0 l 1,3,-1
 494.1 0 l 1,4,-1
 142.2 1386 l 1,5,-1
 9 1386 l 1,6,-1
 9 1493 l 1,7,-1
 499.5 1493 l 1,8,-1
 499.5 1386 l 1,9,-1
 332.1 1386 l 1,10,-1
 612 283 l 1,11,-1
 918 1493 l 1,12,-1
 1063.8 1493 l 1,13,-1
 1375.2 270 l 1,14,-1
 1656.9 1386 l 1,15,-1
 1502.1 1386 l 1,16,-1
 1502.1 1493 l 1,17,-1
 1889.1 1493 l 1,18,-1
 1889.1 1386 l 1,19,-1
 1756.8 1386 l 1,20,-1
 1404.9 0 l 1,0,-1
EndSplineSet
EndChar
StartChar: X
Encoding: 88 88 88
Width: 1312
Flags: W
AnchorPoint: "above" 656.1 1465 basechar 0
AnchorPoint: "below" 656.1 0 basechar 0
Fore
610.2 639 m 1,0,-1
 281.7 106 l 1,1,-1
 455.4 106 l 1,2,-1
 455.4 0 l 1,3,-1
 10.7998 0 l 1,4,-1
 10.7998 106 l 1,5,-1
 165.6 106 l 1,6,-1
 552.6 733 l 1,7,-1
 160.2 1386 l 1,8,-1
 16.2002 1386 l 1,9,-1
 16.2002 1493 l 1,10,-1
 549 1493 l 1,11,-1
 549 1386 l 1,12,-1
 390.6 1386 l 1,13,-1
 678.6 905 l 1,14,-1
 974.7 1386 l 1,15,-1
 801.9 1386 l 1,16,-1
 801.9 1493 l 1,17,-1
 1242 1493 l 1,18,-1
 1242 1386 l 1,19,-1
 1090.8 1386 l 1,20,-1
 735.3 811 l 1,21,-1
 1159.2 106 l 1,22,-1
 1303.2 106 l 1,23,-1
 1303.2 0 l 1,24,-1
 770.4 0 l 1,25,-1
 770.4 106 l 1,26,-1
 930.6 106 l 1,27,-1
 610.2 639 l 1,0,-1
EndSplineSet
EndChar
StartChar: Y
Encoding: 89 89 89
Width: 1216
Flags: W
AnchorPoint: "below" 605.7 0 basechar 0
AnchorPoint: "above" 605.7 1465 basechar 0
Fore
348.3 0 m 1,0,-1
 348.3 106 l 1,1,-1
 520.2 106 l 1,2,-1
 520.2 643 l 1,3,-1
 105.3 1386 l 1,4,-1
 -20.7002 1386 l 1,5,-1
 -20.7002 1493 l 1,6,-1
 478.8 1493 l 1,7,-1
 478.8 1386 l 1,8,-1
 322.2 1386 l 1,9,-1
 657.9 782 l 1,10,-1
 993.6 1386 l 1,11,-1
 842.4 1386 l 1,12,-1
 842.4 1493 l 1,13,-1
 1233 1493 l 1,14,-1
 1233 1386 l 1,15,-1
 1106.1 1386 l 1,16,-1
 702 662 l 1,17,-1
 702 106 l 1,18,-1
 873.9 106 l 1,19,-1
 873.9 0 l 1,20,-1
 348.3 0 l 1,0,-1
EndSplineSet
EndChar
StartChar: Z
Encoding: 90 90 90
Width: 1280
Flags: W
AnchorPoint: "below" 641.7 0 basechar 0
AnchorPoint: "above" 641.7 1465 basechar 0
Fore
82.7998 0 m 1,0,-1
 82.7998 72 l 1,1,-1
 919.8 1370 l 1,2,-1
 225 1370 l 1,3,-1
 225 1147 l 1,4,-1
 114.3 1147 l 1,5,-1
 114.3 1493 l 1,6,-1
 1176.3 1493 l 1,7,-1
 1176.3 1421 l 1,8,-1
 339.3 123 l 1,9,-1
 1098.9 123 l 1,10,-1
 1098.9 332 l 1,11,-1
 1208.7 332 l 1,12,-1
 1208.7 0 l 1,13,-1
 82.7998 0 l 1,0,-1
EndSplineSet
EndChar
StartChar: bracketleft
Encoding: 91 91 91
Width: 719
Flags: W
Fore
158.4 1556 m 1,0,-1
 576.9 1556 l 1,1,-1
 576.9 1450 l 1,2,-1
 330.3 1450 l 1,3,-1
 330.3 -164 l 1,4,-1
 576.9 -164 l 1,5,-1
 576.9 -270 l 1,6,-1
 158.4 -270 l 1,7,-1
 158.4 1556 l 1,0,-1
EndSplineSet
EndChar
StartChar: backslash
Encoding: 92 92 92
Width: 621
Flags: W
Fore
144 1493 m 1,0,-1
 621 -190 l 1,1,-1
 477 -190 l 1,2,-1
 0 1493 l 1,3,-1
 144 1493 l 1,0,-1
EndSplineSet
EndChar
StartChar: bracketright
Encoding: 93 93 93
Width: 719
Flags: W
Fore
560.7 1556 m 1,0,-1
 560.7 -270 l 1,1,-1
 142.2 -270 l 1,2,-1
 142.2 -164 l 1,3,-1
 388.8 -164 l 1,4,-1
 388.8 1450 l 1,5,-1
 142.2 1450 l 1,6,-1
 142.2 1556 l 1,7,-1
 560.7 1556 l 1,0,-1
EndSplineSet
EndChar
StartChar: asciicircum
Encoding: 94 94 94
Width: 1544
Flags: W
Fore
860.4 1493 m 1,0,-1
 1349.1 936 l 1,1,-1
 1211.4 936 l 1,2,-1
 772.2 1317 l 1,3,-1
 333.9 936 l 1,4,-1
 195.3 936 l 1,5,-1
 684 1493 l 1,6,-1
 860.4 1493 l 1,0,-1
EndSplineSet
EndChar
StartChar: underscore
Encoding: 95 95 95
Width: 921
Flags: W
Fore
921.6 -403 m 1,0,-1
 921.6 -483 l 1,1,-1
 0 -483 l 1,2,-1
 0 -403 l 1,3,-1
 921.6 -403 l 1,0,-1
EndSplineSet
EndChar
StartChar: grave
Encoding: 96 96 96
Width: 921
Flags: W
Fore
330.3 1636 m 1,0,-1
 564.3 1260 l 1,1,-1
 459 1260 l 1,2,-1
 153 1636 l 1,3,-1
 330.3 1636 l 1,0,-1
EndSplineSet
EndChar
StartChar: a
Encoding: 97 97 97
Width: 1098
Flags: W
AnchorPoint: "below" 512.1 0 basechar 0
AnchorPoint: "above" 512.1 1092 basechar 0
Fore
733.5 334 m 2,0,-1
 733.5 559 l 1,1,-1
 520.2 559 l 2,2,3
 396.9 559 396.9 559 336.6 500 c 128,-1,4
 276.3 441 276.3 441 276.3 319 c 0,5,6
 276.3 208 276.3 208 337.5 143 c 128,-1,7
 398.7 78 398.7 78 503.1 78 c 0,8,9
 606.6 78 606.6 78 670.05 149 c 128,-1,10
 733.5 220 733.5 220 733.5 334 c 2,0,-1
899.1 664 m 2,11,-1
 899.1 106 l 1,12,-1
 1046.7 106 l 1,13,-1
 1046.7 0 l 1,14,-1
 733.5 0 l 1,15,-1
 733.5 115 l 1,16,17
 678.6 41 678.6 41 606.6 6 c 128,-1,18
 534.6 -29 534.6 -29 438.3 -29 c 0,19,20
 279 -29 279 -29 185.4 65 c 128,-1,21
 91.7998 159 91.7998 159 91.7998 319 c 0,22,23
 91.7998 484 91.7998 484 198.9 575 c 128,-1,24
 306 666 306 666 501.3 666 c 2,25,-1
 733.5 666 l 1,26,-1
 733.5 739 l 2,27,28
 733.5 860 733.5 860 667.35 926.5 c 128,-1,29
 601.2 993 601.2 993 481.5 993 c 0,30,31
 382.5 993 382.5 993 324 943 c 128,-1,32
 265.5 893 265.5 893 251.1 795 c 1,33,-1
 165.6 795 l 1,34,-1
 165.6 1010 l 1,35,36
 252 1051 252 1051 333.45 1071.5 c 128,-1,37
 414.9 1092 414.9 1092 492.3 1092 c 0,38,39
 691.2 1092 691.2 1092 795.15 982.5 c 128,-1,40
 899.1 873 899.1 873 899.1 664 c 2,11,-1
EndSplineSet
EndChar
StartChar: b
Encoding: 98 98 98
Width: 1179
Flags: W
AnchorPoint: "above" 295.2 1536 basechar 0
AnchorPoint: "below" 656.1 0 basechar 0
Fore
212.4 106 m 1,0,-1
 212.4 1450 l 1,1,-1
 53.0996 1450 l 1,2,-1
 53.0996 1556 l 1,3,-1
 378 1556 l 1,4,-1
 378 897 l 1,5,6
 426.6 997 426.6 997 501.75 1044.5 c 128,-1,7
 576.9 1092 576.9 1092 687.6 1092 c 0,8,9
 864 1092 864 1092 975.6 937 c 128,-1,10
 1087.2 782 1087.2 782 1087.2 532 c 0,11,12
 1087.2 282 1087.2 282 975.6 126.5 c 128,-1,13
 864 -29 864 -29 687.6 -29 c 0,14,15
 576.9 -29 576.9 -29 501.75 18.5 c 128,-1,16
 426.6 66 426.6 66 378 166 c 1,17,-1
 378 0 l 1,18,-1
 53.0996 0 l 1,19,-1
 53.0996 106 l 1,20,-1
 212.4 106 l 1,0,-1
378 479 m 2,21,22
 378 287 378 287 444.15 186.5 c 128,-1,23
 510.3 86 510.3 86 636.3 86 c 0,24,25
 763.2 86 763.2 86 828.45 199 c 128,-1,26
 893.7 312 893.7 312 893.7 532 c 0,27,28
 893.7 753 893.7 753 828.45 865 c 128,-1,29
 763.2 977 763.2 977 636.3 977 c 0,30,31
 510.3 977 510.3 977 444.15 876 c 128,-1,32
 378 775 378 775 378 584 c 2,33,-1
 378 479 l 2,21,22
EndSplineSet
EndChar
StartChar: c
Encoding: 99 99 99
Width: 1032
Flags: W
AnchorPoint: "below" 554.4 10 basechar 0
AnchorPoint: "above" 554.4 1092 basechar 0
Fore
947.7 319 m 1,0,1
 912.6 149 912.6 149 812.7 60 c 128,-1,2
 712.8 -29 712.8 -29 554.4 -29 c 0,3,4
 345.6 -29 345.6 -29 218.7 124.5 c 128,-1,5
 91.7998 278 91.7998 278 91.7998 532 c 0,6,7
 91.7998 787 91.7998 787 218.7 939.5 c 128,-1,8
 345.6 1092 345.6 1092 554.4 1092 c 0,9,10
 645.3 1092 645.3 1092 735.3 1068.5 c 128,-1,11
 825.3 1045 825.3 1045 916.2 997 c 1,12,-1
 916.2 725 l 1,13,-1
 819.9 725 l 1,14,15
 801 865 801 865 737.55 929 c 128,-1,16
 674.1 993 674.1 993 556.2 993 c 0,17,18
 422.1 993 422.1 993 353.7 877.5 c 128,-1,19
 285.3 762 285.3 762 285.3 532 c 0,20,21
 285.3 302 285.3 302 353.25 186 c 128,-1,22
 421.2 70 421.2 70 556.2 70 c 0,23,24
 663.3 70 663.3 70 727.2 132 c 128,-1,25
 791.1 194 791.1 194 814.5 319 c 1,26,-1
 947.7 319 l 1,0,1
EndSplineSet
EndChar
StartChar: d
Encoding: 100 100 100
Width: 1179
Flags: W
AnchorPoint: "above" 884.7 1536 basechar 0
AnchorPoint: "below" 512.1 0 basechar 0
Fore
967.5 106 m 1,0,-1
 1125.9 106 l 1,1,-1
 1125.9 0 l 1,2,-1
 801.9 0 l 1,3,-1
 801.9 166 l 1,4,5
 753.3 66 753.3 66 678.15 18.5 c 128,-1,6
 603 -29 603 -29 492.3 -29 c 0,7,8
 315.9 -29 315.9 -29 203.85 126.5 c 128,-1,9
 91.7998 282 91.7998 282 91.7998 532 c 0,10,11
 91.7998 782 91.7998 782 203.4 937 c 128,-1,12
 315 1092 315 1092 492.3 1092 c 0,13,14
 603 1092 603 1092 678.15 1044.5 c 128,-1,15
 753.3 997 753.3 997 801.9 897 c 1,16,-1
 801.9 1450 l 1,17,-1
 645.3 1450 l 1,18,-1
 645.3 1556 l 1,19,-1
 967.5 1556 l 1,20,-1
 967.5 106 l 1,0,-1
801.9 479 m 2,21,-1
 801.9 584 l 2,22,23
 801.9 775 801.9 775 735.75 876 c 128,-1,24
 669.6 977 669.6 977 543.6 977 c 0,25,26
 415.8 977 415.8 977 350.55 865 c 128,-1,27
 285.3 753 285.3 753 285.3 532 c 0,28,29
 285.3 312 285.3 312 350.55 199 c 128,-1,30
 415.8 86 415.8 86 543.6 86 c 0,31,32
 669.6 86 669.6 86 735.75 186.5 c 128,-1,33
 801.9 287 801.9 287 801.9 479 c 2,21,-1
EndSplineSet
EndChar
StartChar: e
Encoding: 101 101 101
Width: 1090
Flags: W
AnchorPoint: "below" 545.4 0 basechar 0
AnchorPoint: "above" 545.4 1092 basechar 0
Fore
999 512 m 1,0,-1
 285.3 512 l 1,1,-1
 285.3 504 l 2,2,3
 285.3 289 285.3 289 358.2 179.5 c 128,-1,4
 431.1 70 431.1 70 573.3 70 c 0,5,6
 682.2 70 682.2 70 751.95 133.5 c 128,-1,7
 821.7 197 821.7 197 849.6 322 c 1,8,-1
 982.8 322 l 1,9,10
 943.2 147 943.2 147 836.55 59 c 128,-1,11
 729.9 -29 729.9 -29 556.2 -29 c 0,12,13
 346.5 -29 346.5 -29 219.15 124.5 c 128,-1,14
 91.7998 278 91.7998 278 91.7998 532 c 0,15,16
 91.7998 784 91.7998 784 216.9 938 c 128,-1,17
 342 1092 342 1092 545.4 1092 c 0,18,19
 762.3 1092 762.3 1092 878.4 943.5 c 128,-1,20
 994.5 795 994.5 795 999 512 c 1,0,-1
803.7 618 m 1,21,22
 798.3 804 798.3 804 733.05 898.5 c 128,-1,23
 667.8 993 667.8 993 545.4 993 c 0,24,25
 431.1 993 431.1 993 365.4 898 c 128,-1,26
 299.7 803 299.7 803 285.3 618 c 1,27,-1
 803.7 618 l 1,21,22
EndSplineSet
EndChar
StartChar: f
Encoding: 102 102 102
Width: 682
Flags: W
AnchorPoint: "below" 307.8 0 basechar 0
AnchorPoint: "above" 508.5 1536 basechar 0
Fore
792.9 1305 m 1,0,-1
 705.6 1305 l 1,1,2
 704.7 1380 704.7 1380 667.35 1419 c 128,-1,3
 630 1458 630 1458 558.9 1458 c 0,4,5
 466.2 1458 466.2 1458 428.4 1401.5 c 128,-1,6
 390.6 1345 390.6 1345 390.6 1200 c 2,7,-1
 390.6 1063 l 1,8,-1
 657.9 1063 l 1,9,-1
 657.9 956 l 1,10,-1
 390.6 956 l 1,11,-1
 390.6 106 l 1,12,-1
 603 106 l 1,13,-1
 603 0 l 1,14,-1
 66.5996 0 l 1,15,-1
 66.5996 106 l 1,16,-1
 225 106 l 1,17,-1
 225 956 l 1,18,-1
 66.5996 956 l 1,19,-1
 66.5996 1063 l 1,20,-1
 225 1063 l 1,21,-1
 225 1196 l 2,22,23
 225 1374 225 1374 308.25 1465 c 128,-1,24
 391.5 1556 391.5 1556 552.6 1556 c 0,25,26
 612.9 1556 612.9 1556 673.2 1544 c 128,-1,27
 733.5 1532 733.5 1532 792.9 1507 c 1,28,-1
 792.9 1305 l 1,0,-1
EndSplineSet
EndChar
StartChar: g
Encoding: 103 103 103
Width: 1179
Flags: W
AnchorPoint: "below" 543.6 -430 basechar 0
AnchorPoint: "above" 543.6 1092 basechar 0
Fore
967.5 956 m 1,0,-1
 967.5 23 l 2,1,2
 967.5 -206 967.5 -206 854.1 -330.5 c 128,-1,3
 740.7 -455 740.7 -455 531 -455 c 0,4,5
 436.5 -455 436.5 -455 350.1 -436 c 128,-1,6
 263.7 -417 263.7 -417 184.5 -379 c 1,7,-1
 184.5 -156 l 1,8,-1
 270.9 -156 l 1,9,10
 287.1 -260 287.1 -260 347.4 -308 c 128,-1,11
 407.7 -356 407.7 -356 520.2 -356 c 0,12,13
 666 -356 666 -356 733.95 -264.5 c 128,-1,14
 801.9 -173 801.9 -173 801.9 23 c 2,15,-1
 801.9 166 l 1,16,17
 753.3 66 753.3 66 678.15 18.5 c 128,-1,18
 603 -29 603 -29 492.3 -29 c 0,19,20
 315.9 -29 315.9 -29 203.85 126.5 c 128,-1,21
 91.7998 282 91.7998 282 91.7998 532 c 0,22,23
 91.7998 782 91.7998 782 203.4 937 c 128,-1,24
 315 1092 315 1092 492.3 1092 c 0,25,26
 603 1092 603 1092 678.15 1044.5 c 128,-1,27
 753.3 997 753.3 997 801.9 897 c 1,28,-1
 801.9 1063 l 1,29,-1
 1125.9 1063 l 1,30,-1
 1125.9 956 l 1,31,-1
 967.5 956 l 1,0,-1
801.9 584 m 2,32,33
 801.9 775 801.9 775 735.75 876 c 128,-1,34
 669.6 977 669.6 977 543.6 977 c 0,35,36
 415.8 977 415.8 977 350.55 865 c 128,-1,37
 285.3 753 285.3 753 285.3 532 c 0,38,39
 285.3 312 285.3 312 350.55 199 c 128,-1,40
 415.8 86 415.8 86 543.6 86 c 0,41,42
 669.6 86 669.6 86 735.75 186.5 c 128,-1,43
 801.9 287 801.9 287 801.9 479 c 2,44,-1
 801.9 584 l 2,32,33
EndSplineSet
EndChar
StartChar: h
Encoding: 104 104 104
Width: 1187
Flags: W
AnchorPoint: "below" 605.7 0 basechar 0
AnchorPoint: "above" 295.2 1537 basechar 0
Fore
75.5996 0 m 1,0,-1
 75.5996 106 l 1,1,-1
 225 106 l 1,2,-1
 225 1450 l 1,3,-1
 66.5996 1450 l 1,4,-1
 66.5996 1556 l 1,5,-1
 390.6 1556 l 1,6,-1
 390.6 874 l 1,7,8
 436.5 982 436.5 982 509.85 1037 c 128,-1,9
 583.2 1092 583.2 1092 680.4 1092 c 0,10,11
 838.8 1092 838.8 1092 913.5 991 c 128,-1,12
 988.2 890 988.2 890 988.2 676 c 2,13,-1
 988.2 106 l 1,14,-1
 1135.8 106 l 1,15,-1
 1135.8 0 l 1,16,-1
 678.6 0 l 1,17,-1
 678.6 106 l 1,18,-1
 821.7 106 l 1,19,-1
 821.7 618 l 2,20,21
 821.7 813 821.7 813 778.95 884.5 c 128,-1,22
 736.2 956 736.2 956 626.4 956 c 0,23,24
 511.2 956 511.2 956 450.9 863 c 128,-1,25
 390.6 770 390.6 770 390.6 592 c 2,26,-1
 390.6 106 l 1,27,-1
 534.6 106 l 1,28,-1
 534.6 0 l 1,29,-1
 75.5996 0 l 1,0,-1
EndSplineSet
EndChar
StartChar: i
Encoding: 105 105 105
Width: 589
Flags: W
AnchorPoint: "below" 295.2 0 basechar 0
AnchorPoint: "above" 295.2 1536 basechar 0
Fore
179.1 1393 m 0,0,1
 179.1 1439 179.1 1439 209.25 1473 c 128,-1,2
 239.4 1507 239.4 1507 281.7 1507 c 0,3,4
 323.1 1507 323.1 1507 353.25 1473 c 128,-1,5
 383.4 1439 383.4 1439 383.4 1393 c 0,6,7
 383.4 1346 383.4 1346 353.7 1313 c 128,-1,8
 324 1280 324 1280 281.7 1280 c 0,9,10
 239.4 1280 239.4 1280 209.25 1313 c 128,-1,11
 179.1 1346 179.1 1346 179.1 1393 c 0,0,1
390.6 106 m 1,12,-1
 547.2 106 l 1,13,-1
 547.2 0 l 1,14,-1
 66.5996 0 l 1,15,-1
 66.5996 106 l 1,16,-1
 225 106 l 1,17,-1
 225 956 l 1,18,-1
 66.5996 956 l 1,19,-1
 66.5996 1063 l 1,20,-1
 390.6 1063 l 1,21,-1
 390.6 106 l 1,12,-1
EndSplineSet
Substitution2: "Single Substitution - Dotless Form" dotlessi
EndChar
StartChar: j
Encoding: 106 106 106
Width: 571
Flags: W
AnchorPoint: "below" 106.2 -430 basechar 0
AnchorPoint: "above" 295.2 1536 basechar 0
Fore
184.5 1393 m 0,0,1
 184.5 1439 184.5 1439 214.65 1473 c 128,-1,2
 244.8 1507 244.8 1507 287.1 1507 c 0,3,4
 328.5 1507 328.5 1507 358.65 1473 c 128,-1,5
 388.8 1439 388.8 1439 388.8 1393 c 0,6,7
 388.8 1346 388.8 1346 359.55 1313 c 128,-1,8
 330.3 1280 330.3 1280 287.1 1280 c 0,9,10
 244.8 1280 244.8 1280 214.65 1313 c 128,-1,11
 184.5 1346 184.5 1346 184.5 1393 c 0,0,1
225 956 m 1,12,-1
 68.4004 956 l 1,13,-1
 68.4004 1063 l 1,14,-1
 390.6 1063 l 1,15,-1
 390.6 -104 l 2,16,17
 390.6 -268 390.6 -268 302.85 -361.5 c 128,-1,18
 215.1 -455 215.1 -455 61.2002 -455 c 0,19,20
 -3.59961 -455 -3.59961 -455 -62.5498 -438.5 c 128,-1,21
 -121.5 -422 -121.5 -422 -177.3 -389 c 1,22,-1
 -177.3 -170 l 1,23,-1
 -91.7998 -170 l 1,24,25
 -85.5 -266 -85.5 -266 -47.25 -311 c 128,-1,26
 -9 -356 -9 -356 64.7998 -356 c 0,27,28
 146.7 -356 146.7 -356 185.85 -294.5 c 128,-1,29
 225 -233 225 -233 225 -104 c 2,30,-1
 225 956 l 1,12,-1
EndSplineSet
Substitution2: "Single Substitution - Dotless Form" dotlessj
EndChar
StartChar: k
Encoding: 107 107 107
Width: 1116
Flags: W
AnchorPoint: "below" 592.2 0 basechar 0
AnchorPoint: "above" 295.2 1536 basechar 0
Fore
527.4 0 m 1,0,-1
 63 0 l 1,1,-1
 63 106 l 1,2,-1
 212.4 106 l 1,3,-1
 212.4 1450 l 1,4,-1
 53.0996 1450 l 1,5,-1
 53.0996 1556 l 1,6,-1
 378 1556 l 1,7,-1
 378 543 l 1,8,-1
 781.2 956 l 1,9,-1
 643.5 956 l 1,10,-1
 643.5 1063 l 1,11,-1
 1076.4 1063 l 1,12,-1
 1076.4 956 l 1,13,-1
 912.6 956 l 1,14,-1
 628.2 664 l 1,15,-1
 991.8 106 l 1,16,-1
 1129.5 106 l 1,17,-1
 1129.5 0 l 1,18,-1
 657.9 0 l 1,19,-1
 657.9 106 l 1,20,-1
 794.7 106 l 1,21,-1
 508.5 543 l 1,22,-1
 378 408 l 1,23,-1
 378 106 l 1,24,-1
 527.4 106 l 1,25,-1
 527.4 0 l 1,0,-1
EndSplineSet
EndChar
StartChar: l
Encoding: 108 108 108
Width: 589
Flags: W
AnchorPoint: "below" 295.2 0 basechar 0
AnchorPoint: "above" 295.2 1536 basechar 0
Fore
378 106 m 1,0,-1
 534.6 106 l 1,1,-1
 534.6 0 l 1,2,-1
 53.0996 0 l 1,3,-1
 53.0996 106 l 1,4,-1
 212.4 106 l 1,5,-1
 212.4 1450 l 1,6,-1
 53.0996 1450 l 1,7,-1
 53.0996 1556 l 1,8,-1
 378 1556 l 1,9,-1
 378 106 l 1,0,-1
EndSplineSet
EndChar
StartChar: m
Encoding: 109 109 109
Width: 1747
Flags: W
AnchorPoint: "above" 886.5 1092 basechar 0
AnchorPoint: "below" 886.5 0 basechar 0
Fore
954.9 856 m 1,0,1
 1002.6 973 1002.6 973 1076.85 1032.5 c 128,-1,2
 1151.1 1092 1151.1 1092 1250.1 1092 c 0,3,4
 1400.4 1092 1400.4 1092 1474.2 988.5 c 128,-1,5
 1548 885 1548 885 1548 676 c 2,6,-1
 1548 106 l 1,7,-1
 1697.4 106 l 1,8,-1
 1697.4 0 l 1,9,-1
 1238.4 0 l 1,10,-1
 1238.4 106 l 1,11,-1
 1382.4 106 l 1,12,-1
 1382.4 655 l 2,13,14
 1382.4 818 1382.4 818 1339.2 887 c 128,-1,15
 1296 956 1296 956 1196.1 956 c 0,16,17
 1085.4 956 1085.4 956 1027.35 863 c 128,-1,18
 969.3 770 969.3 770 969.3 592 c 2,19,-1
 969.3 106 l 1,20,-1
 1113.3 106 l 1,21,-1
 1113.3 0 l 1,22,-1
 659.7 0 l 1,23,-1
 659.7 106 l 1,24,-1
 803.7 106 l 1,25,-1
 803.7 662 l 2,26,27
 803.7 821 803.7 821 760.5 888.5 c 128,-1,28
 717.3 956 717.3 956 617.4 956 c 0,29,30
 506.7 956 506.7 956 448.65 863 c 128,-1,31
 390.6 770 390.6 770 390.6 592 c 2,32,-1
 390.6 106 l 1,33,-1
 534.6 106 l 1,34,-1
 534.6 0 l 1,35,-1
 75.5996 0 l 1,36,-1
 75.5996 106 l 1,37,-1
 225 106 l 1,38,-1
 225 958 l 1,39,-1
 66.5996 958 l 1,40,-1
 66.5996 1063 l 1,41,-1
 390.6 1063 l 1,42,-1
 390.6 874 l 1,43,44
 436.5 980 436.5 980 507.6 1036 c 128,-1,45
 578.7 1092 578.7 1092 668.7 1092 c 0,46,47
 780.3 1092 780.3 1092 855 1030.5 c 128,-1,48
 929.7 969 929.7 969 954.9 856 c 1,0,1
EndSplineSet
EndChar
StartChar: n
Encoding: 110 110 110
Width: 1187
Flags: W
AnchorPoint: "below" 605.7 0 basechar 0
AnchorPoint: "above" 534.6 1092 basechar 0
Fore
75.5996 0 m 1,0,-1
 75.5996 106 l 1,1,-1
 225 106 l 1,2,-1
 225 956 l 1,3,-1
 66.5996 956 l 1,4,-1
 66.5996 1063 l 1,5,-1
 390.6 1063 l 1,6,-1
 390.6 874 l 1,7,8
 436.5 982 436.5 982 509.85 1037 c 128,-1,9
 583.2 1092 583.2 1092 680.4 1092 c 0,10,11
 838.8 1092 838.8 1092 913.5 991 c 128,-1,12
 988.2 890 988.2 890 988.2 676 c 2,13,-1
 988.2 106 l 1,14,-1
 1135.8 106 l 1,15,-1
 1135.8 0 l 1,16,-1
 678.6 0 l 1,17,-1
 678.6 106 l 1,18,-1
 821.7 106 l 1,19,-1
 821.7 618 l 2,20,21
 821.7 813 821.7 813 778.5 885.5 c 128,-1,22
 735.3 958 735.3 958 626.4 958 c 0,23,24
 511.2 958 511.2 958 450.9 864.5 c 128,-1,25
 390.6 771 390.6 771 390.6 592 c 2,26,-1
 390.6 106 l 1,27,-1
 534.6 106 l 1,28,-1
 534.6 0 l 1,29,-1
 75.5996 0 l 1,0,-1
EndSplineSet
EndChar
StartChar: o
Encoding: 111 111 111
Width: 1109
Flags: W
AnchorPoint: "below" 554.4 0 basechar 0
AnchorPoint: "above" 554.4 1092 basechar 0
Fore
554.4 70 m 0,0,1
 687.6 70 687.6 70 755.55 187 c 128,-1,2
 823.5 304 823.5 304 823.5 532 c 0,3,4
 823.5 760 823.5 760 755.55 876.5 c 128,-1,5
 687.6 993 687.6 993 554.4 993 c 0,6,7
 421.2 993 421.2 993 353.25 876.5 c 128,-1,8
 285.3 760 285.3 760 285.3 532 c 0,9,10
 285.3 304 285.3 304 353.7 187 c 128,-1,11
 422.1 70 422.1 70 554.4 70 c 0,0,1
554.4 -29 m 0,12,13
 345.6 -29 345.6 -29 218.7 124.5 c 128,-1,14
 91.7998 278 91.7998 278 91.7998 532 c 0,15,16
 91.7998 786 91.7998 786 218.25 939 c 128,-1,17
 344.7 1092 344.7 1092 554.4 1092 c 0,18,19
 764.1 1092 764.1 1092 890.55 939 c 128,-1,20
 1017 786 1017 786 1017 532 c 0,21,22
 1017 278 1017 278 890.55 124.5 c 128,-1,23
 764.1 -29 764.1 -29 554.4 -29 c 0,12,13
EndSplineSet
EndChar
StartChar: p
Encoding: 112 112 112
Width: 1179
Flags: W
AnchorPoint: "below" 295.2 -430 basechar 0
AnchorPoint: "above" 638.1 1092 basechar 0
Fore
378 584 m 2,0,-1
 378 479 l 2,1,2
 378 287 378 287 444.15 186.5 c 128,-1,3
 510.3 86 510.3 86 636.3 86 c 0,4,5
 763.2 86 763.2 86 828.45 199 c 128,-1,6
 893.7 312 893.7 312 893.7 532 c 0,7,8
 893.7 753 893.7 753 828.45 865 c 128,-1,9
 763.2 977 763.2 977 636.3 977 c 0,10,11
 510.3 977 510.3 977 444.15 876 c 128,-1,12
 378 775 378 775 378 584 c 2,0,-1
212.4 956 m 1,13,-1
 53.0996 956 l 1,14,-1
 53.0996 1063 l 1,15,-1
 378 1063 l 1,16,-1
 378 897 l 1,17,18
 426.6 997 426.6 997 501.75 1044.5 c 128,-1,19
 576.9 1092 576.9 1092 687.6 1092 c 0,20,21
 864 1092 864 1092 975.6 937 c 128,-1,22
 1087.2 782 1087.2 782 1087.2 532 c 0,23,24
 1087.2 282 1087.2 282 975.6 126.5 c 128,-1,25
 864 -29 864 -29 687.6 -29 c 0,26,27
 576.9 -29 576.9 -29 501.75 18.5 c 128,-1,28
 426.6 66 426.6 66 378 166 c 1,29,-1
 378 -319 l 1,30,-1
 534.6 -319 l 1,31,-1
 534.6 -426 l 1,32,-1
 53.0996 -426 l 1,33,-1
 53.0996 -319 l 1,34,-1
 212.4 -319 l 1,35,-1
 212.4 956 l 1,13,-1
EndSplineSet
EndChar
StartChar: q
Encoding: 113 113 113
Width: 1179
Flags: W
AnchorPoint: "above" 512.1 1092 basechar 0
AnchorPoint: "below" 884.7 -430 basechar 0
Fore
967.5 956 m 1,0,-1
 967.5 -319 l 1,1,-1
 1125.9 -319 l 1,2,-1
 1125.9 -426 l 1,3,-1
 645.3 -426 l 1,4,-1
 645.3 -319 l 1,5,-1
 801.9 -319 l 1,6,-1
 801.9 166 l 1,7,8
 753.3 66 753.3 66 678.15 18.5 c 128,-1,9
 603 -29 603 -29 492.3 -29 c 0,10,11
 315.9 -29 315.9 -29 203.85 126.5 c 128,-1,12
 91.7998 282 91.7998 282 91.7998 532 c 0,13,14
 91.7998 782 91.7998 782 203.4 937 c 128,-1,15
 315 1092 315 1092 492.3 1092 c 0,16,17
 603 1092 603 1092 678.15 1044.5 c 128,-1,18
 753.3 997 753.3 997 801.9 897 c 1,19,-1
 801.9 1063 l 1,20,-1
 1125.9 1063 l 1,21,-1
 1125.9 956 l 1,22,-1
 967.5 956 l 1,0,-1
801.9 584 m 2,23,24
 801.9 775 801.9 775 735.75 876 c 128,-1,25
 669.6 977 669.6 977 543.6 977 c 0,26,27
 415.8 977 415.8 977 350.55 865 c 128,-1,28
 285.3 753 285.3 753 285.3 532 c 0,29,30
 285.3 312 285.3 312 350.55 199 c 128,-1,31
 415.8 86 415.8 86 543.6 86 c 0,32,33
 669.6 86 669.6 86 735.75 186.5 c 128,-1,34
 801.9 287 801.9 287 801.9 479 c 2,35,-1
 801.9 584 l 2,23,24
EndSplineSet
EndChar
StartChar: r
Encoding: 114 114 114
Width: 881
Flags: W
AnchorPoint: "below" 295.2 0 basechar 0
AnchorPoint: "above" 496.8 1092 basechar 0
Fore
881.1 1065 m 1,0,-1
 881.1 799 l 1,1,-1
 785.7 799 l 1,2,3
 781.2 878 781.2 878 746.1 917 c 128,-1,4
 711 956 711 956 643.5 956 c 0,5,6
 521.1 956 521.1 956 455.85 862 c 128,-1,7
 390.6 768 390.6 768 390.6 592 c 2,8,-1
 390.6 106 l 1,9,-1
 582.3 106 l 1,10,-1
 582.3 0 l 1,11,-1
 75.5996 0 l 1,12,-1
 75.5996 106 l 1,13,-1
 225 106 l 1,14,-1
 225 958 l 1,15,-1
 66.5996 958 l 1,16,-1
 66.5996 1063 l 1,17,-1
 390.6 1063 l 1,18,-1
 390.6 874 l 1,19,20
 439.2 985 439.2 985 515.7 1038.5 c 128,-1,21
 592.2 1092 592.2 1092 702 1092 c 0,22,23
 742.5 1092 742.5 1092 787.05 1085 c 128,-1,24
 831.6 1078 831.6 1078 881.1 1065 c 1,0,-1
EndSplineSet
EndChar
StartChar: s
Encoding: 115 115 115
Width: 945
Flags: W
AnchorPoint: "below" 473.4 0 basechar 0
AnchorPoint: "above" 473.4 1092 basechar 0
Fore
103.5 59 m 1,0,-1
 103.5 307 l 1,1,-1
 198.9 307 l 1,2,3
 202.5 188 202.5 188 265.95 129 c 128,-1,4
 329.4 70 329.4 70 453.6 70 c 0,5,6
 565.2 70 565.2 70 623.7 116.5 c 128,-1,7
 682.2 163 682.2 163 682.2 252 c 0,8,9
 682.2 322 682.2 322 639.45 365 c 128,-1,10
 596.7 408 596.7 408 459 457 c 1,11,-1
 339.3 502 l 1,12,13
 216 546 216 546 160.65 612 c 128,-1,14
 105.3 678 105.3 678 105.3 780 c 0,15,16
 105.3 926 105.3 926 201.6 1009 c 128,-1,17
 297.9 1092 297.9 1092 468 1092 c 0,18,19
 543.6 1092 543.6 1092 627.3 1070 c 128,-1,20
 711 1048 711 1048 800.1 1006 c 1,21,-1
 800.1 774 l 1,22,-1
 704.7 774 l 1,23,24
 701.1 877 701.1 877 639.9 935 c 128,-1,25
 578.7 993 578.7 993 473.4 993 c 0,26,27
 369 993 369 993 315.45 952 c 128,-1,28
 261.9 911 261.9 911 261.9 829 c 0,29,30
 261.9 762 261.9 762 302.4 721.5 c 128,-1,31
 342.9 681 342.9 681 464.4 639 c 2,32,-1
 595.8 594 l 2,33,34
 731.7 547 731.7 547 791.55 476.5 c 128,-1,35
 851.4 406 851.4 406 851.4 295 c 0,36,37
 851.4 144 851.4 144 747.45 57.5 c 128,-1,38
 643.5 -29 643.5 -29 460.8 -29 c 0,39,40
 368.1 -29 368.1 -29 279.9 -7 c 128,-1,41
 191.7 15 191.7 15 103.5 59 c 1,0,-1
EndSplineSet
EndChar
StartChar: t
Encoding: 116 116 116
Width: 740
Flags: W
AnchorPoint: "above" 281.7 1536 basechar 0
AnchorPoint: "below" 462.6 0 basechar 0
Fore
198.9 956 m 1,0,-1
 53.0996 956 l 1,1,-1
 53.0996 1063 l 1,2,-1
 198.9 1063 l 1,3,-1
 198.9 1393 l 1,4,-1
 365.4 1393 l 1,5,-1
 365.4 1063 l 1,6,-1
 676.8 1063 l 1,7,-1
 676.8 956 l 1,8,-1
 365.4 956 l 1,9,-1
 365.4 281 l 2,10,11
 365.4 146 365.4 146 388.8 108 c 128,-1,12
 412.2 70 412.2 70 475.2 70 c 0,13,14
 540 70 540 70 569.7 112.5 c 128,-1,15
 599.4 155 599.4 155 601.2 250 c 1,16,-1
 726.3 250 l 1,17,18
 719.1 105 719.1 105 655.2 38 c 128,-1,19
 591.3 -29 591.3 -29 460.8 -29 c 0,20,21
 317.7 -29 317.7 -29 258.3 41.5 c 128,-1,22
 198.9 112 198.9 112 198.9 281 c 2,23,-1
 198.9 956 l 1,0,-1
EndSplineSet
EndChar
StartChar: u
Encoding: 117 117 117
Width: 1187
Flags: W
AnchorPoint: "below" 534.6 0 basechar 0
AnchorPoint: "above" 525.6 1092 basechar 0
Fore
652.5 1063 m 1,0,-1
 962.1 1063 l 1,1,-1
 962.1 106 l 1,2,-1
 1118.7 106 l 1,3,-1
 1118.7 0 l 1,4,-1
 796.5 0 l 1,5,-1
 796.5 188 l 1,6,7
 750.6 82 750.6 82 677.7 26.5 c 128,-1,8
 604.8 -29 604.8 -29 508.5 -29 c 0,9,10
 349.2 -29 349.2 -29 274.05 71.5 c 128,-1,11
 198.9 172 198.9 172 198.9 387 c 2,12,-1
 198.9 956 l 1,13,-1
 49.5 956 l 1,14,-1
 49.5 1063 l 1,15,-1
 365.4 1063 l 1,16,-1
 365.4 444 l 2,17,18
 365.4 250 365.4 250 408.15 178 c 128,-1,19
 450.9 106 450.9 106 560.7 106 c 0,20,21
 675.9 106 675.9 106 736.2 200 c 128,-1,22
 796.5 294 796.5 294 796.5 473 c 2,23,-1
 796.5 956 l 1,24,-1
 652.5 956 l 1,25,-1
 652.5 1063 l 1,0,-1
EndSplineSet
EndChar
StartChar: v
Encoding: 118 118 118
Width: 1041
Flags: W
AnchorPoint: "above" 520.2 1092 basechar 0
AnchorPoint: "below" 520.2 0 basechar 0
Fore
455.4 0 m 1,0,-1
 103.5 956 l 1,1,-1
 -5.40039 956 l 1,2,-1
 -5.40039 1063 l 1,3,-1
 434.7 1063 l 1,4,-1
 434.7 956 l 1,5,-1
 281.7 956 l 1,6,-1
 550.8 225 l 1,7,-1
 819.9 956 l 1,8,-1
 676.8 956 l 1,9,-1
 676.8 1063 l 1,10,-1
 1035.9 1063 l 1,11,-1
 1035.9 956 l 1,12,-1
 928.8 956 l 1,13,-1
 576.9 0 l 1,14,-1
 455.4 0 l 1,0,-1
EndSplineSet
EndChar
StartChar: w
Encoding: 119 119 119
Width: 1577
Flags: W
AnchorPoint: "below" 791.1 0 basechar 0
AnchorPoint: "above" 791.1 1092 basechar 0
Fore
884.7 1063 m 1,0,-1
 1129.5 233 l 1,1,-1
 1345.5 956 l 1,2,-1
 1206.9 956 l 1,3,-1
 1206.9 1063 l 1,4,-1
 1553.4 1063 l 1,5,-1
 1553.4 956 l 1,6,-1
 1447.2 956 l 1,7,-1
 1162.8 0 l 1,8,-1
 1025.1 0 l 1,9,-1
 789.3 795 l 1,10,-1
 552.6 0 l 1,11,-1
 420.3 0 l 1,12,-1
 136.8 956 l 1,13,-1
 29.7002 956 l 1,14,-1
 29.7002 1063 l 1,15,-1
 462.6 1063 l 1,16,-1
 462.6 956 l 1,17,-1
 307.8 956 l 1,18,-1
 522 233 l 1,19,-1
 768.6 1063 l 1,20,-1
 884.7 1063 l 1,0,-1
EndSplineSet
EndChar
StartChar: x
Encoding: 120 120 120
Width: 1039
Flags: W
AnchorPoint: "below" 520.2 0 basechar 0
AnchorPoint: "above" 520.2 1092 basechar 0
Fore
536.4 649 m 1,0,-1
 737.1 956 l 1,1,-1
 608.4 956 l 1,2,-1
 608.4 1063 l 1,3,-1
 976.5 1063 l 1,4,-1
 976.5 956 l 1,5,-1
 849.6 956 l 1,6,-1
 593.1 563 l 1,7,-1
 891.9 106 l 1,8,-1
 1017 106 l 1,9,-1
 1017 0 l 1,10,-1
 575.1 0 l 1,11,-1
 575.1 106 l 1,12,-1
 696.6 106 l 1,13,-1
 488.7 424 l 1,14,-1
 279.9 106 l 1,15,-1
 404.1 106 l 1,16,-1
 404.1 0 l 1,17,-1
 40.5 0 l 1,18,-1
 40.5 106 l 1,19,-1
 167.4 106 l 1,20,-1
 431.1 510 l 1,21,-1
 140.4 956 l 1,22,-1
 22.5 956 l 1,23,-1
 22.5 1063 l 1,24,-1
 450 1063 l 1,25,-1
 450 956 l 1,26,-1
 335.7 956 l 1,27,-1
 536.4 649 l 1,0,-1
EndSplineSet
EndChar
StartChar: y
Encoding: 121 121 121
Width: 1041
Flags: W
AnchorPoint: "below" 514.8 -430 basechar 0
AnchorPoint: "above" 514.8 1092 basechar 0
Fore
397.8 -195 m 1,0,-1
 460.8 -18 l 1,1,-1
 103.5 956 l 1,2,-1
 -5.40039 956 l 1,3,-1
 -5.40039 1063 l 1,4,-1
 434.7 1063 l 1,5,-1
 434.7 956 l 1,6,-1
 281.7 956 l 1,7,-1
 550.8 225 l 1,8,-1
 819.9 956 l 1,9,-1
 676.8 956 l 1,10,-1
 676.8 1063 l 1,11,-1
 1035.9 1063 l 1,12,-1
 1035.9 956 l 1,13,-1
 928.8 956 l 1,14,-1
 490.5 -240 l 1,15,16
 445.5 -364 445.5 -364 390.6 -409.5 c 128,-1,17
 335.7 -455 335.7 -455 235.8 -455 c 0,18,19
 193.5 -455 193.5 -455 148.95 -447 c 128,-1,20
 104.4 -439 104.4 -439 59.4004 -424 c 1,21,-1
 59.4004 -221 l 1,22,-1
 144 -221 l 1,23,24
 149.4 -289 149.4 -289 175.05 -318.5 c 128,-1,25
 200.7 -348 200.7 -348 254.7 -348 c 0,26,27
 304.2 -348 304.2 -348 334.35 -317.5 c 128,-1,28
 364.5 -287 364.5 -287 397.8 -195 c 1,0,-1
EndSplineSet
EndChar
StartChar: z
Encoding: 122 122 122
Width: 971
Flags: W
AnchorPoint: "below" 476.1 0 basechar 0
AnchorPoint: "above" 476.1 1092 basechar 0
Fore
73.7998 0 m 1,0,-1
 73.7998 86 l 1,1,-1
 673.2 956 l 1,2,-1
 198.9 956 l 1,3,-1
 198.9 772 l 1,4,-1
 103.5 772 l 1,5,-1
 103.5 1063 l 1,6,-1
 886.5 1063 l 1,7,-1
 886.5 977 l 1,8,-1
 287.1 106 l 1,9,-1
 807.3 106 l 1,10,-1
 807.3 299 l 1,11,-1
 903.6 299 l 1,12,-1
 903.6 0 l 1,13,-1
 73.7998 0 l 1,0,-1
EndSplineSet
EndChar
StartChar: braceleft
Encoding: 123 123 123
Width: 1172
Flags: W
Fore
942.3 -229 m 1,0,-1
 942.3 -334 l 1,1,-1
 886.5 -334 l 2,2,3
 662.4 -334 662.4 -334 586.35 -260 c 128,-1,4
 510.3 -186 510.3 -186 510.3 35 c 2,5,-1
 510.3 293 l 2,6,7
 510.3 443 510.3 443 461.7 501 c 128,-1,8
 413.1 559 413.1 559 285.3 559 c 2,9,-1
 230.4 559 l 1,10,-1
 230.4 664 l 1,11,-1
 285.3 664 l 2,12,13
 413.1 664 413.1 664 461.7 722 c 128,-1,14
 510.3 780 510.3 780 510.3 930 c 2,15,-1
 510.3 1188 l 2,16,17
 510.3 1409 510.3 1409 586.35 1482.5 c 128,-1,18
 662.4 1556 662.4 1556 886.5 1556 c 2,19,-1
 942.3 1556 l 1,20,-1
 942.3 1452 l 1,21,-1
 881.1 1452 l 2,22,23
 754.2 1452 754.2 1452 715.5 1408 c 128,-1,24
 676.8 1364 676.8 1364 676.8 1223 c 2,25,-1
 676.8 936 l 2,26,27
 676.8 778 676.8 778 631.8 710 c 128,-1,28
 586.8 642 586.8 642 469.8 612 c 1,29,30
 588.6 578 588.6 578 632.7 511 c 128,-1,31
 676.8 444 676.8 444 676.8 287 c 2,32,-1
 676.8 0 l 2,33,34
 676.8 -141 676.8 -141 715.5 -185 c 128,-1,35
 754.2 -229 754.2 -229 881.1 -229 c 2,36,-1
 942.3 -229 l 1,0,-1
EndSplineSet
EndChar
StartChar: bar
Encoding: 124 124 124
Width: 621
Flags: W
Fore
383.4 1565 m 1,0,-1
 383.4 -483 l 1,1,-1
 237.6 -483 l 1,2,-1
 237.6 1565 l 1,3,-1
 383.4 1565 l 1,0,-1
EndSplineSet
EndChar
StartChar: braceright
Encoding: 125 125 125
Width: 1172
Flags: W
Fore
230.4 -229 m 1,0,-1
 293.4 -229 l 2,1,2
 419.4 -229 419.4 -229 457.65 -185.5 c 128,-1,3
 495.9 -142 495.9 -142 495.9 0 c 2,4,-1
 495.9 287 l 2,5,6
 495.9 444 495.9 444 540 511 c 128,-1,7
 584.1 578 584.1 578 702 612 c 1,8,9
 585 642 585 642 540.45 710 c 128,-1,10
 495.9 778 495.9 778 495.9 936 c 2,11,-1
 495.9 1223 l 2,12,13
 495.9 1365 495.9 1365 457.65 1408.5 c 128,-1,14
 419.4 1452 419.4 1452 293.4 1452 c 2,15,-1
 230.4 1452 l 1,16,-1
 230.4 1556 l 1,17,-1
 287.1 1556 l 2,18,19
 511.2 1556 511.2 1556 586.35 1482.5 c 128,-1,20
 661.5 1409 661.5 1409 661.5 1188 c 2,21,-1
 661.5 930 l 2,22,23
 661.5 780 661.5 780 710.1 722 c 128,-1,24
 758.7 664 758.7 664 886.5 664 c 2,25,-1
 942.3 664 l 1,26,-1
 942.3 559 l 1,27,-1
 886.5 559 l 2,28,29
 758.7 559 758.7 559 710.1 501 c 128,-1,30
 661.5 443 661.5 443 661.5 293 c 2,31,-1
 661.5 35 l 2,32,33
 661.5 -186 661.5 -186 586.35 -260 c 128,-1,34
 511.2 -334 511.2 -334 287.1 -334 c 2,35,-1
 230.4 -334 l 1,36,-1
 230.4 -229 l 1,0,-1
EndSplineSet
EndChar
StartChar: asciitilde
Encoding: 126 126 126
Width: 1544
Flags: W
Fore
1349.1 807 m 1,0,-1
 1349.1 659 l 1,1,2
 1259.1 571 1259.1 571 1178.1 529 c 128,-1,3
 1097.1 487 1097.1 487 1013.4 487 c 0,4,5
 927 487 927 487 770.4 553 c 2,6,-1
 761.4 557 l 2,7,8
 751.5 561 751.5 561 731.7 570 c 0,9,10
 599.4 627 599.4 627 513.9 627 c 0,11,12
 431.1 627 431.1 627 353.25 590.5 c 128,-1,13
 275.4 554 275.4 554 195.3 477 c 1,14,-1
 195.3 629 l 1,15,16
 285.3 716 285.3 716 365.85 756.5 c 128,-1,17
 446.4 797 446.4 797 531 797 c 0,18,19
 617.4 797 617.4 797 774 731 c 2,20,-1
 783 727 l 2,21,22
 792.9 723 792.9 723 810.9 715 c 0,23,24
 941.4 657 941.4 657 1028.7 657 c 0,25,26
 1111.5 657 1111.5 657 1190.7 694 c 128,-1,27
 1269.9 731 1269.9 731 1349.1 807 c 1,0,-1
EndSplineSet
EndChar
StartChar: exclamdown
Encoding: 161 161 161
Width: 740
Flags: W
Fore
251.1 1389 m 0,0,1
 251.1 1445 251.1 1445 285.3 1483.5 c 128,-1,2
 319.5 1522 319.5 1522 370.8 1522 c 0,3,4
 420.3 1522 420.3 1522 455.4 1483 c 128,-1,5
 490.5 1444 490.5 1444 490.5 1389 c 0,6,7
 490.5 1333 490.5 1333 455.4 1294 c 128,-1,8
 420.3 1255 420.3 1255 370.8 1255 c 0,9,10
 319.5 1255 319.5 1255 285.3 1294 c 128,-1,11
 251.1 1333 251.1 1333 251.1 1389 c 0,0,1
254.7 0 m 1,12,-1
 315 821 l 1,13,-1
 315 1073 l 1,14,-1
 425.7 1073 l 1,15,-1
 425.7 821 l 1,16,-1
 486.9 0 l 1,17,-1
 254.7 0 l 1,12,-1
EndSplineSet
EndChar
StartChar: cent
Encoding: 162 162 162
Width: 1172
Flags: W
Fore
566.1 991 m 1,0,1
 450 976 450 976 391.95 861 c 128,-1,2
 333.9 746 333.9 746 333.9 532 c 0,3,4
 333.9 317 333.9 317 391.95 202 c 128,-1,5
 450 87 450 87 566.1 72 c 1,6,-1
 566.1 991 l 1,0,1
993.6 319 m 1,7,8
 962.1 165 962.1 165 877.5 78.5 c 128,-1,9
 792.9 -8 792.9 -8 656.1 -27 c 1,10,-1
 656.1 -297 l 1,11,-1
 566.1 -297 l 1,12,-1
 566.1 -27 l 1,13,14
 368.1 -8 368.1 -8 253.35 142 c 128,-1,15
 138.6 292 138.6 292 138.6 532 c 0,16,17
 138.6 774 138.6 774 253.35 923.5 c 128,-1,18
 368.1 1073 368.1 1073 566.1 1090 c 1,19,-1
 566.1 1356 l 1,20,-1
 656.1 1356 l 1,21,-1
 656.1 1090 l 1,22,23
 738.9 1082 738.9 1082 814.5 1059 c 128,-1,24
 890.1 1036 890.1 1036 962.1 997 c 1,25,-1
 962.1 725 l 1,26,-1
 866.7 725 l 1,27,28
 849.6 848 849.6 848 797.85 913.5 c 128,-1,29
 746.1 979 746.1 979 656.1 991 c 1,30,-1
 656.1 72 l 1,31,32
 737.1 84 737.1 84 789.3 147.5 c 128,-1,33
 841.5 211 841.5 211 860.4 319 c 1,34,-1
 993.6 319 l 1,7,8
EndSplineSet
EndChar
StartChar: sterling
Encoding: 163 163 163
Width: 1172
Flags: W
Fore
991.8 1225 m 1,0,-1
 897.3 1225 l 1,1,2
 888.3 1320 888.3 1320 837.45 1370.5 c 128,-1,3
 786.6 1421 786.6 1421 700.2 1421 c 0,4,5
 585.9 1421 585.9 1421 531.45 1343.5 c 128,-1,6
 477 1266 477 1266 477 1102 c 2,7,-1
 477 807 l 1,8,-1
 847.8 807 l 1,9,-1
 847.8 700 l 1,10,-1
 477 700 l 1,11,-1
 477 121 l 1,12,-1
 907.2 121 l 1,13,-1
 907.2 348 l 1,14,-1
 1011.6 348 l 1,15,-1
 1011.6 0 l 1,16,-1
 123.3 0 l 1,17,-1
 123.3 106 l 1,18,-1
 297 106 l 1,19,-1
 297 700 l 1,20,-1
 123.3 700 l 1,21,-1
 123.3 807 l 1,22,-1
 297 807 l 1,23,-1
 297 1102 l 2,24,25
 297 1307 297 1307 400.05 1413.5 c 128,-1,26
 503.1 1520 503.1 1520 702 1520 c 0,27,28
 778.5 1520 778.5 1520 851.4 1507.5 c 128,-1,29
 924.3 1495 924.3 1495 991.8 1470 c 1,30,-1
 991.8 1225 l 1,0,-1
EndSplineSet
EndChar
StartChar: currency
Encoding: 164 164 164
Width: 1172
Flags: W
Fore
810.9 985 m 1,0,-1
 999 1192 l 1,1,-1
 1083.6 1098 l 1,2,-1
 895.5 889 l 1,3,4
 934.2 829 934.2 829 952.65 768 c 128,-1,5
 971.1 707 971.1 707 971.1 641 c 0,6,7
 971.1 572 971.1 572 952.65 513 c 128,-1,8
 934.2 454 934.2 454 893.7 397 c 1,9,-1
 1080 190 l 1,10,-1
 993.6 96 l 1,11,-1
 807.3 301 l 1,12,13
 756.9 257 756.9 257 703.35 236 c 128,-1,14
 649.8 215 649.8 215 587.7 215 c 0,15,16
 530.1 215 530.1 215 473.85 235.5 c 128,-1,17
 417.6 256 417.6 256 362.7 297 c 1,18,-1
 179.1 92 l 1,19,-1
 93.5996 186 l 1,20,-1
 278.1 393 l 1,21,22
 241.2 455 241.2 455 222.75 516 c 128,-1,23
 204.3 577 204.3 577 204.3 641 c 0,24,25
 204.3 711 204.3 711 223.2 770.5 c 128,-1,26
 242.1 830 242.1 830 281.7 887 c 1,27,-1
 95.4004 1094 l 1,28,-1
 180.9 1188 l 1,29,-1
 367.2 981 l 1,30,31
 417.6 1025 417.6 1025 471.6 1046 c 128,-1,32
 525.6 1067 525.6 1067 587.7 1067 c 0,33,34
 647.1 1067 647.1 1067 702 1047 c 128,-1,35
 756.9 1027 756.9 1027 810.9 985 c 1,0,-1
829.8 643 m 0,36,37
 829.8 755 829.8 755 760.05 832 c 128,-1,38
 690.3 909 690.3 909 587.7 909 c 0,39,40
 486.9 909 486.9 909 416.7 832 c 128,-1,41
 346.5 755 346.5 755 346.5 643 c 0,42,43
 346.5 529 346.5 529 416.25 451 c 128,-1,44
 486 373 486 373 587.7 373 c 0,45,46
 689.4 373 689.4 373 759.6 451.5 c 128,-1,47
 829.8 530 829.8 530 829.8 643 c 0,36,37
EndSplineSet
EndChar
StartChar: yen
Encoding: 165 165 165
Width: 1172
Flags: W
Fore
324 0 m 1,0,-1
 324 106 l 1,1,-1
 495.9 106 l 1,2,-1
 495.9 473 l 1,3,-1
 132.3 473 l 1,4,-1
 132.3 578 l 1,5,-1
 495.9 578 l 1,6,-1
 495.9 643 l 1,7,-1
 422.1 784 l 1,8,-1
 132.3 784 l 1,9,-1
 132.3 889 l 1,10,-1
 369 889 l 1,11,-1
 110.7 1386 l 1,12,-1
 -14.4004 1386 l 1,13,-1
 -14.4004 1493 l 1,14,-1
 483.3 1493 l 1,15,-1
 483.3 1386 l 1,16,-1
 325.8 1386 l 1,17,-1
 634.5 782 l 1,18,-1
 939.6 1386 l 1,19,-1
 789.3 1386 l 1,20,-1
 789.3 1493 l 1,21,-1
 1178.1 1493 l 1,22,-1
 1178.1 1386 l 1,23,-1
 1050.3 1386 l 1,24,-1
 794.7 889 l 1,25,-1
 1039.5 889 l 1,26,-1
 1039.5 784 l 1,27,-1
 740.7 784 l 1,28,-1
 676.8 662 l 1,29,-1
 676.8 578 l 1,30,-1
 1039.5 578 l 1,31,-1
 1039.5 473 l 1,32,-1
 676.8 473 l 1,33,-1
 676.8 106 l 1,34,-1
 847.8 106 l 1,35,-1
 847.8 0 l 1,36,-1
 324 0 l 1,0,-1
EndSplineSet
EndChar
StartChar: brokenbar
Encoding: 166 166 166
Width: 621
Flags: W
Fore
383.4 408 m 1,0,-1
 383.4 -350 l 1,1,-1
 237.6 -350 l 1,2,-1
 237.6 408 l 1,3,-1
 383.4 408 l 1,0,-1
383.4 1432 m 1,4,-1
 383.4 674 l 1,5,-1
 237.6 674 l 1,6,-1
 237.6 1432 l 1,7,-1
 383.4 1432 l 1,4,-1
EndSplineSet
EndChar
StartChar: section
Encoding: 167 167 167
Width: 921
Flags: W
Fore
341.1 936 m 1,0,1
 279.9 890 279.9 890 255.15 848.5 c 128,-1,2
 230.4 807 230.4 807 230.4 754 c 0,3,4
 230.4 622 230.4 622 557.1 419 c 2,5,-1
 585.9 401 l 1,6,7
 638.1 439 638.1 439 664.65 487 c 128,-1,8
 691.2 535 691.2 535 691.2 592 c 0,9,10
 691.2 667 691.2 667 628.65 734 c 128,-1,11
 566.1 801 566.1 801 341.1 936 c 1,0,1
746.1 1464 m 1,12,-1
 746.1 1262 l 1,13,-1
 663.3 1262 l 1,14,15
 661.5 1334 661.5 1334 614.7 1375.5 c 128,-1,16
 567.9 1417 567.9 1417 488.7 1417 c 0,17,18
 398.7 1417 398.7 1417 346.95 1368.5 c 128,-1,19
 295.2 1320 295.2 1320 295.2 1237 c 0,20,21
 295.2 1140 295.2 1140 516.6 1003 c 0,22,23
 540 988 540 988 550.8 981 c 0,24,25
 726.3 872 726.3 872 782.55 797 c 128,-1,26
 838.8 722 838.8 722 838.8 623 c 0,27,28
 838.8 528 838.8 528 791.55 465 c 128,-1,29
 744.3 402 744.3 402 641.7 358 c 1,30,31
 711.9 311 711.9 311 744.75 248 c 128,-1,32
 777.6 185 777.6 185 777.6 94 c 0,33,34
 777.6 -37 777.6 -37 685.8 -116 c 128,-1,35
 594 -195 594 -195 438.3 -195 c 0,36,37
 357.3 -195 357.3 -195 285.3 -181.5 c 128,-1,38
 213.3 -168 213.3 -168 144 -139 c 1,39,-1
 144 70 l 1,40,-1
 226.8 69 l 1,41,42
 228.6 -11 228.6 -11 277.2 -51.5 c 128,-1,43
 325.8 -92 325.8 -92 422.1 -92 c 0,44,45
 515.7 -92 515.7 -92 570.15 -43 c 128,-1,46
 624.6 6 624.6 6 624.6 90 c 0,47,48
 624.6 203 624.6 203 419.4 330 c 0,49,50
 400.5 342 400.5 342 390.6 348 c 0,51,52
 196.2 470 196.2 470 139.5 545 c 128,-1,53
 82.7998 620 82.7998 620 82.7998 719 c 0,54,55
 82.7998 813 82.7998 813 135.9 879.5 c 128,-1,56
 189 946 189 946 287.1 977 c 1,57,58
 213.3 1026 213.3 1026 177.75 1089 c 128,-1,59
 142.2 1152 142.2 1152 142.2 1231 c 0,60,61
 142.2 1361 142.2 1361 232.2 1440.5 c 128,-1,62
 322.2 1520 322.2 1520 471.6 1520 c 0,63,64
 541.8 1520 541.8 1520 610.2 1506 c 128,-1,65
 678.6 1492 678.6 1492 746.1 1464 c 1,12,-1
EndSplineSet
EndChar
StartChar: dieresis
Encoding: 168 168 168
Width: 921
Flags: W
Fore
285.3 1569 m 0,0,1
 328.5 1569 328.5 1569 359.55 1534.5 c 128,-1,2
 390.6 1500 390.6 1500 390.6 1452 c 0,3,4
 390.6 1401 390.6 1401 360.9 1368 c 128,-1,5
 331.2 1335 331.2 1335 285.3 1335 c 0,6,7
 240.3 1335 240.3 1335 210.6 1368 c 128,-1,8
 180.9 1401 180.9 1401 180.9 1452 c 0,9,10
 180.9 1500 180.9 1500 211.95 1534.5 c 128,-1,11
 243 1569 243 1569 285.3 1569 c 0,0,1
636.3 1569 m 0,12,13
 678.6 1569 678.6 1569 709.65 1534.5 c 128,-1,14
 740.7 1500 740.7 1500 740.7 1452 c 0,15,16
 740.7 1401 740.7 1401 711 1368 c 128,-1,17
 681.3 1335 681.3 1335 636.3 1335 c 0,18,19
 590.4 1335 590.4 1335 560.7 1368 c 128,-1,20
 531 1401 531 1401 531 1452 c 0,21,22
 531 1500 531 1500 562.05 1534.5 c 128,-1,23
 593.1 1569 593.1 1569 636.3 1569 c 0,12,13
EndSplineSet
EndChar
StartChar: copyright
Encoding: 169 169 169
Width: 1843
Flags: W
Fore
1238.4 573 m 1,0,1
 1214.1 442 1214.1 442 1132.65 371.5 c 128,-1,2
 1051.2 301 1051.2 301 923.4 301 c 0,3,4
 755.1 301 755.1 301 654.75 421 c 128,-1,5
 554.4 541 554.4 541 554.4 741 c 0,6,7
 554.4 942 554.4 942 655.65 1063 c 128,-1,8
 756.9 1184 756.9 1184 923.4 1184 c 0,9,10
 995.4 1184 995.4 1184 1065.15 1165.5 c 128,-1,11
 1134.9 1147 1134.9 1147 1213.2 1108 c 1,12,-1
 1213.2 895 l 1,13,-1
 1137.6 895 l 1,14,15
 1122.3 1004 1122.3 1004 1071 1055 c 128,-1,16
 1019.7 1106 1019.7 1106 925.2 1106 c 0,17,18
 818.1 1106 818.1 1106 763.65 1014.5 c 128,-1,19
 709.2 923 709.2 923 709.2 741 c 0,20,21
 709.2 560 709.2 560 763.2 469.5 c 128,-1,22
 817.2 379 817.2 379 923.4 379 c 0,23,24
 1010.7 379 1010.7 379 1061.55 426.5 c 128,-1,25
 1112.4 474 1112.4 474 1131.3 573 c 1,26,-1
 1238.4 573 l 1,0,1
921.6 1485 m 0,27,28
 1058.4 1485 1058.4 1485 1176.75 1430 c 128,-1,29
 1295.1 1375 1295.1 1375 1393.2 1266 c 0,30,31
 1491.3 1157 1491.3 1157 1539.9 1026 c 128,-1,32
 1588.5 895 1588.5 895 1588.5 741 c 0,33,34
 1588.5 589 1588.5 589 1539.9 458.5 c 128,-1,35
 1491.3 328 1491.3 328 1393.2 219 c 0,36,37
 1295.1 110 1295.1 110 1176.75 55 c 128,-1,38
 1058.4 0 1058.4 0 921.6 0 c 0,39,40
 784.8 0 784.8 0 666.45 55 c 128,-1,41
 548.1 110 548.1 110 450 219 c 0,42,43
 351.9 328 351.9 328 303.3 458.5 c 128,-1,44
 254.7 589 254.7 589 254.7 741 c 0,45,46
 254.7 895 254.7 895 303.3 1026 c 128,-1,47
 351.9 1157 351.9 1157 450 1266 c 0,48,49
 548.1 1375 548.1 1375 666.45 1430 c 128,-1,50
 784.8 1485 784.8 1485 921.6 1485 c 0,27,28
921.6 1382 m 0,51,52
 803.7 1382 803.7 1382 702 1335 c 128,-1,53
 600.3 1288 600.3 1288 515.7 1194 c 0,54,55
 432 1101 432 1101 389.25 986.5 c 128,-1,56
 346.5 872 346.5 872 346.5 741 c 0,57,58
 346.5 611 346.5 611 389.25 498 c 128,-1,59
 432 385 432 385 515.7 291 c 0,60,61
 600.3 197 600.3 197 702 149.5 c 128,-1,62
 803.7 102 803.7 102 921.6 102 c 0,63,64
 1040.4 102 1040.4 102 1142.55 149.5 c 128,-1,65
 1244.7 197 1244.7 197 1329.3 291 c 0,66,67
 1413 384 1413 384 1454.85 497 c 128,-1,68
 1496.7 610 1496.7 610 1496.7 741 c 0,69,70
 1496.7 874 1496.7 874 1454.4 987.5 c 128,-1,71
 1412.1 1101 1412.1 1101 1329.3 1194 c 0,72,73
 1244.7 1288 1244.7 1288 1142.55 1335 c 128,-1,74
 1040.4 1382 1040.4 1382 921.6 1382 c 0,51,52
EndSplineSet
EndChar
StartChar: ordfeminine
Encoding: 170 170 170
Width: 875
Flags: W
Fore
754.2 1219 m 2,0,-1
 754.2 840 l 1,1,-1
 826.2 840 l 1,2,-1
 826.2 756 l 1,3,-1
 621 756 l 1,4,-1
 621 836 l 1,5,6
 577.8 785 577.8 785 521.55 761 c 128,-1,7
 465.3 737 465.3 737 387 737 c 0,8,9
 260.1 737 260.1 737 186.3 802 c 128,-1,10
 112.5 867 112.5 867 112.5 979 c 0,11,12
 112.5 1093 112.5 1093 198 1157 c 128,-1,13
 283.5 1221 283.5 1221 436.5 1221 c 2,14,-1
 621 1221 l 1,15,-1
 621 1266 l 2,16,17
 621 1350 621 1350 568.8 1397 c 128,-1,18
 516.6 1444 516.6 1444 422.1 1444 c 0,19,20
 343.8 1444 343.8 1444 297.9 1409 c 128,-1,21
 252 1374 252 1374 239.4 1305 c 1,22,-1
 171 1305 l 1,23,-1
 171 1462 l 1,24,25
 240.3 1491 240.3 1491 305.1 1505.5 c 128,-1,26
 369.9 1520 369.9 1520 429.3 1520 c 0,27,28
 588.6 1520 588.6 1520 671.4 1443 c 128,-1,29
 754.2 1366 754.2 1366 754.2 1219 c 2,0,-1
621 997 m 2,30,-1
 621 1145 l 1,31,-1
 451.8 1145 l 2,32,33
 357.3 1145 357.3 1145 308.7 1105 c 128,-1,34
 260.1 1065 260.1 1065 260.1 987 c 0,35,36
 260.1 906 260.1 906 305.55 863.5 c 128,-1,37
 351 821 351 821 438.3 821 c 0,38,39
 521.1 821 521.1 821 571.05 869.5 c 128,-1,40
 621 918 621 918 621 997 c 2,30,-1
149.4 639 m 1,41,-1
 777.6 639 l 1,42,-1
 777.6 535 l 1,43,-1
 149.4 535 l 1,44,-1
 149.4 639 l 1,41,-1
EndSplineSet
EndChar
StartChar: guillemotleft
Encoding: 171 171 171
Width: 1127
Flags: W
Fore
954.9 1059 m 1,0,-1
 954.9 944 l 1,1,-1
 687.6 600 l 1,2,-1
 954.9 256 l 1,3,-1
 954.9 141 l 1,4,-1
 532.8 559 l 1,5,-1
 532.8 641 l 1,6,-1
 954.9 1059 l 1,0,-1
564.3 1059 m 1,7,-1
 564.3 944 l 1,8,-1
 297 600 l 1,9,-1
 564.3 256 l 1,10,-1
 564.3 141 l 1,11,-1
 142.2 559 l 1,12,-1
 142.2 641 l 1,13,-1
 564.3 1059 l 1,7,-1
EndSplineSet
EndChar
StartChar: logicalnot
Encoding: 172 172 172
Width: 1544
Flags: W
Fore
195.3 862 m 1,0,-1
 1349.1 862 l 1,1,-1
 1349.1 287 l 1,2,-1
 1205.1 287 l 1,3,-1
 1205.1 700 l 1,4,-1
 195.3 700 l 1,5,-1
 195.3 862 l 1,0,-1
EndSplineSet
EndChar
StartChar: sfthyphen
Encoding: 173 173 173
Width: 622
Flags: W
Fore
81 627 m 1,0,-1
 541.8 627 l 1,1,-1
 541.8 471 l 1,2,-1
 81 471 l 1,3,-1
 81 627 l 1,0,-1
EndSplineSet
EndChar
StartChar: registered
Encoding: 174 174 174
Width: 1843
Flags: W
Fore
805.5 791 m 1,0,-1
 918 791 l 2,1,2
 992.7 791 992.7 791 1030.05 829 c 128,-1,3
 1067.4 867 1067.4 867 1067.4 942 c 0,4,5
 1067.4 1016 1067.4 1016 1029.6 1054 c 128,-1,6
 991.8 1092 991.8 1092 918 1092 c 2,7,-1
 805.5 1092 l 1,8,-1
 805.5 791 l 1,0,-1
1026.9 754 m 1,9,10
 1064.7 740 1064.7 740 1091.25 714.5 c 128,-1,11
 1117.8 689 1117.8 689 1135.8 649 c 2,12,-1
 1240.2 420 l 1,13,-1
 1308.6 420 l 1,14,-1
 1308.6 352 l 1,15,-1
 1137.6 352 l 1,16,-1
 1019.7 606 l 1,17,18
 988.2 676 988.2 676 960.3 699.5 c 128,-1,19
 932.4 723 932.4 723 888.3 723 c 2,20,-1
 805.5 723 l 1,21,-1
 805.5 420 l 1,22,-1
 881.1 420 l 1,23,-1
 881.1 352 l 1,24,-1
 595.8 352 l 1,25,-1
 595.8 420 l 1,26,-1
 670.5 420 l 1,27,-1
 670.5 1092 l 1,28,-1
 595.8 1092 l 1,29,-1
 595.8 1159 l 1,30,-1
 969.3 1159 l 2,31,32
 1084.5 1159 1084.5 1159 1143 1103 c 128,-1,33
 1201.5 1047 1201.5 1047 1201.5 938 c 0,34,35
 1201.5 855 1201.5 855 1158.3 809.5 c 128,-1,36
 1115.1 764 1115.1 764 1026.9 754 c 1,9,10
921.6 1382 m 0,37,38
 803.7 1382 803.7 1382 702 1335 c 128,-1,39
 600.3 1288 600.3 1288 515.7 1194 c 0,40,41
 432 1101 432 1101 389.25 986.5 c 128,-1,42
 346.5 872 346.5 872 346.5 741 c 0,43,44
 346.5 611 346.5 611 389.25 498 c 128,-1,45
 432 385 432 385 515.7 291 c 0,46,47
 600.3 197 600.3 197 702 149.5 c 128,-1,48
 803.7 102 803.7 102 921.6 102 c 0,49,50
 1040.4 102 1040.4 102 1142.55 149.5 c 128,-1,51
 1244.7 197 1244.7 197 1329.3 291 c 0,52,53
 1413 384 1413 384 1454.85 497 c 128,-1,54
 1496.7 610 1496.7 610 1496.7 741 c 0,55,56
 1496.7 874 1496.7 874 1454.4 987.5 c 128,-1,57
 1412.1 1101 1412.1 1101 1329.3 1194 c 0,58,59
 1244.7 1288 1244.7 1288 1142.55 1335 c 128,-1,60
 1040.4 1382 1040.4 1382 921.6 1382 c 0,37,38
921.6 1485 m 0,61,62
 1058.4 1485 1058.4 1485 1176.75 1430 c 128,-1,63
 1295.1 1375 1295.1 1375 1393.2 1266 c 0,64,65
 1491.3 1157 1491.3 1157 1539.9 1026 c 128,-1,66
 1588.5 895 1588.5 895 1588.5 741 c 0,67,68
 1588.5 589 1588.5 589 1539.9 458.5 c 128,-1,69
 1491.3 328 1491.3 328 1393.2 219 c 0,70,71
 1295.1 110 1295.1 110 1176.75 55 c 128,-1,72
 1058.4 0 1058.4 0 921.6 0 c 0,73,74
 784.8 0 784.8 0 666.45 55 c 128,-1,75
 548.1 110 548.1 110 450 219 c 0,76,77
 351.9 328 351.9 328 303.3 458.5 c 128,-1,78
 254.7 589 254.7 589 254.7 741 c 0,79,80
 254.7 895 254.7 895 303.3 1026 c 128,-1,81
 351.9 1157 351.9 1157 450 1266 c 0,82,83
 548.1 1375 548.1 1375 666.45 1430 c 128,-1,84
 784.8 1485 784.8 1485 921.6 1485 c 0,61,62
EndSplineSet
EndChar
StartChar: macron
Encoding: 175 175 175
Width: 921
Flags: W
Fore
191.7 1526 m 1,0,-1
 729.9 1526 l 1,1,-1
 729.9 1378 l 1,2,-1
 191.7 1378 l 1,3,-1
 191.7 1526 l 1,0,-1
EndSplineSet
LCarets2: 1 0 
EndChar
StartChar: degree
Encoding: 176 176 176
Width: 921
Flags: W
Fore
460.8 1382 m 0,0,1
 392.4 1382 392.4 1382 345.6 1329.5 c 128,-1,2
 298.8 1277 298.8 1277 298.8 1200 c 0,3,4
 298.8 1124 298.8 1124 345.15 1073 c 128,-1,5
 391.5 1022 391.5 1022 460.8 1022 c 0,6,7
 529.2 1022 529.2 1022 576 1073.5 c 128,-1,8
 622.8 1125 622.8 1125 622.8 1200 c 0,9,10
 622.8 1275 622.8 1275 575.1 1328.5 c 128,-1,11
 527.4 1382 527.4 1382 460.8 1382 c 0,0,1
460.8 1520 m 0,12,13
 518.4 1520 518.4 1520 571.5 1495.5 c 128,-1,14
 624.6 1471 624.6 1471 663.3 1425 c 1,15,16
 704.7 1380 704.7 1380 725.4 1323 c 128,-1,17
 746.1 1266 746.1 1266 746.1 1200 c 0,18,19
 746.1 1068 746.1 1068 662.85 976.5 c 128,-1,20
 579.6 885 579.6 885 459 885 c 0,21,22
 337.5 885 337.5 885 256.5 975 c 128,-1,23
 175.5 1065 175.5 1065 175.5 1200 c 0,24,25
 175.5 1334 175.5 1334 258.3 1427 c 128,-1,26
 341.1 1520 341.1 1520 460.8 1520 c 0,12,13
EndSplineSet
EndChar
StartChar: plusminus
Encoding: 177 177 177
Width: 1544
Flags: W
Fore
844.2 1284 m 1,0,-1
 844.2 893 l 1,1,-1
 1349.1 893 l 1,2,-1
 1349.1 731 l 1,3,-1
 844.2 731 l 1,4,-1
 844.2 340 l 1,5,-1
 700.2 340 l 1,6,-1
 700.2 731 l 1,7,-1
 195.3 731 l 1,8,-1
 195.3 893 l 1,9,-1
 700.2 893 l 1,10,-1
 700.2 1284 l 1,11,-1
 844.2 1284 l 1,0,-1
195.3 160 m 1,12,-1
 1349.1 160 l 1,13,-1
 1349.1 0 l 1,14,-1
 195.3 0 l 1,15,-1
 195.3 160 l 1,12,-1
EndSplineSet
EndChar
StartChar: twosuperior
Encoding: 178 178 178
Width: 738
Flags: W
Fore
153 1296 m 1,0,-1
 90 1296 l 1,1,-1
 90 1454 l 1,2,3
 149.4 1486 149.4 1486 212.4 1503 c 128,-1,4
 275.4 1520 275.4 1520 337.5 1520 c 0,5,6
 461.7 1520 461.7 1520 538.65 1454 c 128,-1,7
 615.6 1388 615.6 1388 615.6 1284 c 0,8,9
 615.6 1162 615.6 1162 441 988 c 2,10,-1
 423.9 971 l 1,11,-1
 209.7 756 l 1,12,-1
 556.2 756 l 1,13,-1
 556.2 864 l 1,14,-1
 622.8 864 l 1,15,-1
 622.8 668 l 1,16,-1
 81 668 l 1,17,-1
 81 743 l 1,18,-1
 337.5 997 l 2,19,20
 414.9 1074 414.9 1074 448.2 1135 c 128,-1,21
 481.5 1196 481.5 1196 481.5 1262 c 0,22,23
 481.5 1347 481.5 1347 437.85 1396.5 c 128,-1,24
 394.2 1446 394.2 1446 318.6 1446 c 0,25,26
 248.4 1446 248.4 1446 206.1 1408 c 128,-1,27
 163.8 1370 163.8 1370 153 1296 c 1,0,-1
EndSplineSet
EndChar
StartChar: threesuperior
Encoding: 179 179 179
Width: 738
Flags: W
Fore
112.5 1468 m 1,0,1
 178.2 1494 178.2 1494 238.5 1507 c 128,-1,2
 298.8 1520 298.8 1520 351.9 1520 c 0,3,4
 476.1 1520 476.1 1520 543.15 1466 c 128,-1,5
 610.2 1412 610.2 1412 610.2 1313 c 0,6,7
 610.2 1241 610.2 1241 562.5 1191 c 128,-1,8
 514.8 1141 514.8 1141 429.3 1124 c 1,9,10
 536.4 1108 536.4 1108 590.85 1048.5 c 128,-1,11
 645.3 989 645.3 989 645.3 889 c 0,12,13
 645.3 775 645.3 775 566.55 714 c 128,-1,14
 487.8 653 487.8 653 341.1 653 c 0,15,16
 276.3 653 276.3 653 213.75 667 c 128,-1,17
 151.2 681 151.2 681 90 709 c 1,18,-1
 90 879 l 1,19,-1
 153 878 l 1,20,21
 157.5 804 157.5 804 201.6 765.5 c 128,-1,22
 245.7 727 245.7 727 328.5 727 c 0,23,24
 413.1 727 413.1 727 459 771 c 128,-1,25
 504.9 815 504.9 815 504.9 897 c 0,26,27
 504.9 990 504.9 990 459 1037.5 c 128,-1,28
 413.1 1085 413.1 1085 322.2 1085 c 2,29,-1
 274.5 1085 l 1,30,-1
 274.5 1159 l 1,31,-1
 298.8 1159 l 2,32,33
 386.1 1159 386.1 1159 430.65 1196 c 128,-1,34
 475.2 1233 475.2 1233 475.2 1307 c 0,35,36
 475.2 1374 475.2 1374 438.75 1410 c 128,-1,37
 402.3 1446 402.3 1446 333.9 1446 c 0,38,39
 260.1 1446 260.1 1446 220.95 1414 c 128,-1,40
 181.8 1382 181.8 1382 175.5 1317 c 1,41,-1
 112.5 1317 l 1,42,-1
 112.5 1468 l 1,0,1
EndSplineSet
EndChar
StartChar: acute
Encoding: 180 180 180
Width: 921
Flags: W
Fore
585.9 1638 m 1,0,-1
 765 1638 l 1,1,-1
 459 1262 l 1,2,-1
 353.7 1262 l 1,3,-1
 585.9 1638 l 1,0,-1
EndSplineSet
LCarets2: 1 0 
EndChar
StartChar: mu
Encoding: 181 181 181
Width: 1197
Flags: W
Fore
665.1 1063 m 1,0,-1
 974.7 1063 l 1,1,-1
 974.7 104 l 1,2,-1
 1131.3 104 l 1,3,-1
 1131.3 0 l 1,4,-1
 809.1 0 l 1,5,-1
 809.1 188 l 1,6,7
 762.3 82 762.3 82 696.15 26.5 c 128,-1,8
 630 -29 630 -29 549 -29 c 0,9,10
 497.7 -29 497.7 -29 455.4 -11 c 128,-1,11
 413.1 7 413.1 7 378 43 c 1,12,-1
 378 -319 l 1,13,-1
 534.6 -319 l 1,14,-1
 534.6 -426 l 1,15,-1
 53.0996 -426 l 1,16,-1
 53.0996 -319 l 1,17,-1
 212.4 -319 l 1,18,-1
 212.4 956 l 1,19,-1
 63 956 l 1,20,-1
 63 1063 l 1,21,-1
 378 1063 l 1,22,-1
 378 444 l 2,23,24
 378 250 378 250 421.2 178 c 128,-1,25
 464.4 106 464.4 106 573.3 106 c 0,26,27
 688.5 106 688.5 106 748.8 200 c 128,-1,28
 809.1 294 809.1 294 809.1 473 c 2,29,-1
 809.1 956 l 1,30,-1
 665.1 956 l 1,31,-1
 665.1 1063 l 1,0,-1
EndSplineSet
EndChar
StartChar: paragraph
Encoding: 182 182 182
Width: 1172
Flags: W
Fore
569.7 1493 m 2,0,-1
 1053.9 1493 l 1,1,-1
 1053.9 1386 l 1,2,-1
 947.7 1386 l 1,3,-1
 947.7 -197 l 1,4,-1
 851.4 -197 l 1,5,-1
 851.4 1386 l 1,6,-1
 643.5 1386 l 1,7,-1
 643.5 -197 l 1,8,-1
 547.2 -197 l 1,9,-1
 547.2 649 l 1,10,11
 353.7 666 353.7 666 247.95 776.5 c 128,-1,12
 142.2 887 142.2 887 142.2 1071 c 0,13,14
 142.2 1261 142.2 1261 259.2 1377 c 128,-1,15
 376.2 1493 376.2 1493 569.7 1493 c 2,0,-1
EndSplineSet
EndChar
StartChar: periodcentered
Encoding: 183 183 183
Width: 585
Flags: W
Fore
171 711 m 0,0,1
 171 767 171 767 205.65 805.5 c 128,-1,2
 240.3 844 240.3 844 291.6 844 c 0,3,4
 341.1 844 341.1 844 376.2 805 c 128,-1,5
 411.3 766 411.3 766 411.3 711 c 0,6,7
 411.3 655 411.3 655 376.2 616.5 c 128,-1,8
 341.1 578 341.1 578 291.6 578 c 0,9,10
 240.3 578 240.3 578 205.65 616 c 128,-1,11
 171 654 171 654 171 711 c 0,0,1
EndSplineSet
EndChar
StartChar: cedilla
Encoding: 184 184 184
Width: 921
Flags: W
Fore
520.2 0 m 1,0,1
 577.8 -64 577.8 -64 606.15 -120 c 128,-1,2
 634.5 -176 634.5 -176 634.5 -225 c 0,3,4
 634.5 -306 634.5 -306 577.8 -350.5 c 128,-1,5
 521.1 -395 521.1 -395 420.3 -395 c 0,6,7
 382.5 -395 382.5 -395 342.9 -389 c 128,-1,8
 303.3 -383 303.3 -383 261.9 -371 c 1,9,-1
 261.9 -240 l 1,10,11
 298.8 -257 298.8 -257 334.35 -265.5 c 128,-1,12
 369.9 -274 369.9 -274 401.4 -274 c 0,13,14
 452.7 -274 452.7 -274 482.4 -247.5 c 128,-1,15
 512.1 -221 512.1 -221 512.1 -176 c 0,16,17
 512.1 -148 512.1 -148 492.3 -104 c 128,-1,18
 472.5 -60 472.5 -60 432.9 0 c 1,19,-1
 520.2 0 l 1,0,1
EndSplineSet
LCarets2: 1 0 
EndChar
StartChar: onesuperior
Encoding: 185 185 185
Width: 738
Flags: W
Fore
158.4 668 m 1,0,-1
 158.4 752 l 1,1,-1
 313.2 752 l 1,2,-1
 313.2 1386 l 1,3,-1
 132.3 1280 l 1,4,-1
 132.3 1374 l 1,5,-1
 348.3 1503 l 1,6,-1
 440.1 1503 l 1,7,-1
 440.1 752 l 1,8,-1
 595.8 752 l 1,9,-1
 595.8 668 l 1,10,-1
 158.4 668 l 1,0,-1
EndSplineSet
EndChar
StartChar: ordmasculine
Encoding: 186 186 186
Width: 866
Flags: W
Fore
432.9 813 m 0,0,1
 528.3 813 528.3 813 576.45 892.5 c 128,-1,2
 624.6 972 624.6 972 624.6 1128 c 0,3,4
 624.6 1284 624.6 1284 576 1364 c 128,-1,5
 527.4 1444 527.4 1444 432.9 1444 c 0,6,7
 339.3 1444 339.3 1444 290.25 1363 c 128,-1,8
 241.2 1282 241.2 1282 241.2 1128 c 0,9,10
 241.2 973 241.2 973 289.8 893 c 128,-1,11
 338.4 813 338.4 813 432.9 813 c 0,0,1
432.9 737 m 0,12,13
 275.4 737 275.4 737 180 844.5 c 128,-1,14
 84.5996 952 84.5996 952 84.5996 1128 c 0,15,16
 84.5996 1305 84.5996 1305 180 1412.5 c 128,-1,17
 275.4 1520 275.4 1520 432.9 1520 c 0,18,19
 590.4 1520 590.4 1520 685.8 1412.5 c 128,-1,20
 781.2 1305 781.2 1305 781.2 1128 c 0,21,22
 781.2 951 781.2 951 686.25 844 c 128,-1,23
 591.3 737 591.3 737 432.9 737 c 0,12,13
123.3 639 m 1,24,-1
 742.5 639 l 1,25,-1
 742.5 535 l 1,26,-1
 123.3 535 l 1,27,-1
 123.3 639 l 1,24,-1
EndSplineSet
EndChar
StartChar: guillemotright
Encoding: 187 187 187
Width: 1127
Flags: W
Fore
564.3 1059 m 1,0,-1
 986.4 641 l 1,1,-1
 986.4 559 l 1,2,-1
 564.3 141 l 1,3,-1
 564.3 256 l 1,4,-1
 831.6 600 l 1,5,-1
 564.3 944 l 1,6,-1
 564.3 1059 l 1,0,-1
173.7 1059 m 1,7,-1
 595.8 641 l 1,8,-1
 595.8 559 l 1,9,-1
 173.7 141 l 1,10,-1
 173.7 256 l 1,11,-1
 440.1 600 l 1,12,-1
 173.7 944 l 1,13,-1
 173.7 1059 l 1,7,-1
EndSplineSet
EndChar
StartChar: questiondown
Encoding: 191 191 191
Width: 988
Flags: W
Fore
700.2 1389 m 0,0,1
 700.2 1333 700.2 1333 665.55 1294 c 128,-1,2
 630.9 1255 630.9 1255 580.5 1255 c 0,3,4
 531 1255 531 1255 495.9 1294 c 128,-1,5
 460.8 1333 460.8 1333 460.8 1389 c 0,6,7
 460.8 1444 460.8 1444 495.9 1483 c 128,-1,8
 531 1522 531 1522 580.5 1522 c 0,9,10
 631.8 1522 631.8 1522 666 1483.5 c 128,-1,11
 700.2 1445 700.2 1445 700.2 1389 c 0,0,1
899.1 66 m 1,12,13
 803.7 19 803.7 19 718.2 -4 c 128,-1,14
 632.7 -27 632.7 -27 556.2 -27 c 0,15,16
 357.3 -27 357.3 -27 241.2 80 c 128,-1,17
 125.1 187 125.1 187 125.1 369 c 0,18,19
 125.1 555 125.1 555 225 673 c 128,-1,20
 324.9 791 324.9 791 525.6 842 c 1,21,-1
 525.6 1096 l 1,22,-1
 636.3 1096 l 1,23,-1
 636.3 768 l 1,24,25
 477 725 477 725 396 624 c 128,-1,26
 315 523 315 523 315 367 c 0,27,28
 315 230 315 230 381.15 151 c 128,-1,29
 447.3 72 447.3 72 560.7 72 c 0,30,31
 662.4 72 662.4 72 728.1 137.5 c 128,-1,32
 793.8 203 793.8 203 812.7 326 c 1,33,-1
 899.1 326 l 1,34,-1
 899.1 66 l 1,12,13
EndSplineSet
EndChar
StartChar: Aring
Encoding: 197 197 197
Width: 1331
Flags: W
AnchorPoint: "above" 657.9 1907 basechar 0
Fore
798.3 1626 m 0,0,1
 798.3 1689 798.3 1689 758.25 1733.5 c 128,-1,2
 718.2 1778 718.2 1778 661.5 1778 c 0,3,4
 603.9 1778 603.9 1778 564.75 1734.5 c 128,-1,5
 525.6 1691 525.6 1691 525.6 1626 c 0,6,7
 525.6 1563 525.6 1563 564.75 1519 c 128,-1,8
 603.9 1475 603.9 1475 661.5 1475 c 0,9,10
 718.2 1475 718.2 1475 758.25 1519 c 128,-1,11
 798.3 1563 798.3 1563 798.3 1626 c 0,0,1
369 541 m 1,12,-1
 860.4 541 l 1,13,-1
 615.6 1251 l 1,14,-1
 369 541 l 1,12,-1
-10.7998 0 m 1,15,-1
 -10.7998 106 l 1,16,-1
 107.1 106 l 1,17,-1
 547.2 1384 l 1,18,19
 482.4 1421 482.4 1421 448.65 1482 c 128,-1,20
 414.9 1543 414.9 1543 414.9 1626 c 0,21,22
 414.9 1740 414.9 1740 486.9 1820.5 c 128,-1,23
 558.9 1901 558.9 1901 661.5 1901 c 0,24,25
 764.1 1901 764.1 1901 836.55 1820.5 c 128,-1,26
 909 1740 909 1740 909 1626 c 0,27,28
 909 1546 909 1546 873.9 1482.5 c 128,-1,29
 838.8 1419 838.8 1419 774 1384 c 1,30,-1
 1216.8 106 l 1,31,-1
 1349.1 106 l 1,32,-1
 1349.1 0 l 1,33,-1
 860.4 0 l 1,34,-1
 860.4 106 l 1,35,-1
 1009.8 106 l 1,36,-1
 897.3 434 l 1,37,-1
 332.1 434 l 1,38,-1
 219.6 106 l 1,39,-1
 367.2 106 l 1,40,-1
 367.2 0 l 1,41,-1
 -10.7998 0 l 1,15,-1
EndSplineSet
EndChar
StartChar: AE
Encoding: 198 198 198
Width: 1845
Flags: W
AnchorPoint: "above" 1080.9 1465 basechar 0
AnchorPoint: "below" 1080.9 0 basechar 0
Fore
383.4 541 m 1,0,-1
 823.5 541 l 1,1,-1
 823.5 1386 l 1,2,-1
 733.5 1386 l 1,3,-1
 383.4 541 l 1,0,-1
652.5 0 m 1,4,-1
 652.5 106 l 1,5,-1
 823.5 106 l 1,6,-1
 823.5 434 l 1,7,-1
 339.3 434 l 1,8,-1
 202.5 106 l 1,9,-1
 350.1 106 l 1,10,-1
 350.1 0 l 1,11,-1
 -31.5 0 l 1,12,-1
 -31.5 106 l 1,13,-1
 86.4004 106 l 1,14,-1
 617.4 1386 l 1,15,-1
 423.9 1386 l 1,16,-1
 423.9 1493 l 1,17,-1
 1734.3 1493 l 1,18,-1
 1734.3 1161 l 1,19,-1
 1623.6 1161 l 1,20,-1
 1623.6 1370 l 1,21,-1
 1004.4 1370 l 1,22,-1
 1004.4 870 l 1,23,-1
 1447.2 870 l 1,24,-1
 1447.2 1057 l 1,25,-1
 1557.9 1057 l 1,26,-1
 1557.9 561 l 1,27,-1
 1447.2 561 l 1,28,-1
 1447.2 748 l 1,29,-1
 1004.4 748 l 1,30,-1
 1004.4 123 l 1,31,-1
 1638.9 123 l 1,32,-1
 1638.9 332 l 1,33,-1
 1749.6 332 l 1,34,-1
 1749.6 0 l 1,35,-1
 652.5 0 l 1,4,-1
EndSplineSet
EndChar
StartChar: Eth
Encoding: 208 208 208
Width: 1487
Flags: W
Fore
462.6 106 m 1,0,-1
 631.8 106 l 2,1,2
 893.7 106 893.7 106 1034.1 272 c 128,-1,3
 1174.5 438 1174.5 438 1174.5 748 c 0,4,5
 1174.5 1058 1174.5 1058 1034.55 1222 c 128,-1,6
 894.6 1386 894.6 1386 631.8 1386 c 2,7,-1
 462.6 1386 l 1,8,-1
 462.6 844 l 1,9,-1
 765 844 l 1,10,-1
 765 719 l 1,11,-1
 462.6 719 l 1,12,-1
 462.6 106 l 1,0,-1
110.7 0 m 1,13,-1
 110.7 106 l 1,14,-1
 281.7 106 l 1,15,-1
 281.7 719 l 1,16,-1
 101.7 719 l 1,17,-1
 101.7 844 l 1,18,-1
 281.7 844 l 1,19,-1
 281.7 1386 l 1,20,-1
 110.7 1386 l 1,21,-1
 110.7 1493 l 1,22,-1
 645.3 1493 l 2,23,24
 992.7 1493 992.7 1493 1186.65 1296 c 128,-1,25
 1380.6 1099 1380.6 1099 1380.6 748 c 0,26,27
 1380.6 396 1380.6 396 1186.2 198 c 128,-1,28
 991.8 0 991.8 0 645.3 0 c 2,29,-1
 110.7 0 l 1,13,-1
EndSplineSet
EndChar
StartChar: multiply
Encoding: 215 215 215
Width: 1544
Flags: W
Fore
1290.6 1104 m 1,0,-1
 873.9 641 l 1,1,-1
 1290.6 180 l 1,2,-1
 1187.1 68 l 1,3,-1
 772.2 528 l 1,4,-1
 357.3 68 l 1,5,-1
 254.7 180 l 1,6,-1
 668.7 641 l 1,7,-1
 254.7 1104 l 1,8,-1
 357.3 1217 l 1,9,-1
 772.2 756 l 1,10,-1
 1187.1 1217 l 1,11,-1
 1290.6 1104 l 1,0,-1
EndSplineSet
EndChar
StartChar: Oslash
Encoding: 216 216 216
Width: 1511
Flags: W
AnchorPoint: "above" 756 1465 basechar 0
AnchorPoint: "below" 756 0 basechar 0
Fore
1092.6 1239 m 1,0,1
 1034.1 1327 1034.1 1327 950.85 1370 c 128,-1,2
 867.6 1413 867.6 1413 756 1413 c 0,3,4
 534.6 1413 534.6 1413 422.1 1244.5 c 128,-1,5
 309.6 1076 309.6 1076 309.6 745 c 0,6,7
 309.6 626 309.6 626 324 529.5 c 128,-1,8
 338.4 433 338.4 433 369 352 c 1,9,-1
 1092.6 1239 l 1,0,1
416.7 256 m 1,10,11
 474.3 167 474.3 167 558.9 122.5 c 128,-1,12
 643.5 78 643.5 78 756 78 c 0,13,14
 976.5 78 976.5 78 1089 246.5 c 128,-1,15
 1201.5 415 1201.5 415 1201.5 745 c 0,16,17
 1201.5 862 1201.5 862 1186.65 960.5 c 128,-1,18
 1171.8 1059 1171.8 1059 1141.2 1141 c 1,19,-1
 416.7 256 l 1,10,11
1251.9 1276 m 1,20,21
 1330.2 1168 1330.2 1168 1369.35 1036.5 c 128,-1,22
 1408.5 905 1408.5 905 1408.5 745 c 0,23,24
 1408.5 400 1408.5 400 1228.05 185.5 c 128,-1,25
 1047.6 -29 1047.6 -29 756 -29 c 0,26,27
 629.1 -29 629.1 -29 522 14 c 128,-1,28
 414.9 57 414.9 57 324 143 c 1,29,-1
 160.2 -57 l 1,30,-1
 90 12 l 1,31,-1
 258.3 219 l 1,32,33
 180 324 180 324 141.75 454.5 c 128,-1,34
 103.5 585 103.5 585 103.5 745 c 0,35,36
 103.5 1091 103.5 1091 284.4 1305.5 c 128,-1,37
 465.3 1520 465.3 1520 756 1520 c 0,38,39
 882.9 1520 882.9 1520 990.9 1477.5 c 128,-1,40
 1098.9 1435 1098.9 1435 1185.3 1352 c 1,41,-1
 1345.5 1550 l 1,42,-1
 1417.5 1479 l 1,43,-1
 1251.9 1276 l 1,20,21
EndSplineSet
EndChar
StartChar: Thorn
Encoding: 222 222 222
Width: 1245
Flags: W
Fore
455.4 434 m 1,0,-1
 693 434 l 2,1,2
 827.1 434 827.1 434 897.3 514.5 c 128,-1,3
 967.5 595 967.5 595 967.5 748 c 0,4,5
 967.5 900 967.5 900 897.3 980.5 c 128,-1,6
 827.1 1061 827.1 1061 693 1061 c 2,7,-1
 455.4 1061 l 1,8,-1
 455.4 434 l 1,0,-1
101.7 0 m 1,9,-1
 101.7 106 l 1,10,-1
 272.7 106 l 1,11,-1
 272.7 1386 l 1,12,-1
 101.7 1386 l 1,13,-1
 101.7 1493 l 1,14,-1
 663.3 1493 l 1,15,-1
 663.3 1386 l 1,16,-1
 455.4 1386 l 1,17,-1
 455.4 1167 l 1,18,-1
 737.1 1167 l 2,19,20
 938.7 1167 938.7 1167 1056.6 1053.5 c 128,-1,21
 1174.5 940 1174.5 940 1174.5 748 c 0,22,23
 1174.5 554 1174.5 554 1056.15 440 c 128,-1,24
 937.8 326 937.8 326 737.1 326 c 2,25,-1
 455.4 326 l 1,26,-1
 455.4 106 l 1,27,-1
 663.3 106 l 1,28,-1
 663.3 0 l 1,29,-1
 101.7 0 l 1,9,-1
EndSplineSet
EndChar
StartChar: germandbls
Encoding: 223 223 223
Width: 1231
Flags: W
Fore
846 1210 m 1,0,1
 838.8 1329 838.8 1329 776.25 1393.5 c 128,-1,2
 713.7 1458 713.7 1458 606.6 1458 c 0,3,4
 487.8 1458 487.8 1458 432.9 1393.5 c 128,-1,5
 378 1329 378 1329 378 1190 c 2,6,-1
 378 0 l 1,7,-1
 53.0996 0 l 1,8,-1
 53.0996 106 l 1,9,-1
 212.4 106 l 1,10,-1
 212.4 1186 l 2,11,12
 212.4 1362 212.4 1362 315.45 1459 c 128,-1,13
 418.5 1556 418.5 1556 606.6 1556 c 0,14,15
 798.3 1556 798.3 1556 898.65 1452 c 128,-1,16
 999 1348 999 1348 1009.8 1137 c 1,17,-1
 990 1137 l 2,18,19
 859.5 1137 859.5 1137 784.35 1083 c 128,-1,20
 709.2 1029 709.2 1029 709.2 936 c 0,21,22
 709.2 884 709.2 884 733.5 845.5 c 128,-1,23
 757.8 807 757.8 807 823.5 760 c 1,24,-1
 903.6 705 l 1,25,26
 1043.1 606 1043.1 606 1096.65 521 c 128,-1,27
 1150.2 436 1150.2 436 1150.2 322 c 0,28,29
 1150.2 167 1150.2 167 1046.25 69 c 128,-1,30
 942.3 -29 942.3 -29 775.8 -29 c 0,31,32
 699.3 -29 699.3 -29 623.7 -10.5 c 128,-1,33
 548.1 8 548.1 8 477 43 c 1,34,-1
 477 276 l 1,35,-1
 575.1 276 l 1,36,37
 578.7 175 578.7 175 628.65 122.5 c 128,-1,38
 678.6 70 678.6 70 770.4 70 c 0,39,40
 870.3 70 870.3 70 927.45 130.5 c 128,-1,41
 984.6 191 984.6 191 984.6 295 c 0,42,43
 984.6 379 984.6 379 948.6 437.5 c 128,-1,44
 912.6 496 912.6 496 807.3 569 c 2,45,-1
 729.9 623 l 2,46,47
 636.3 688 636.3 688 596.25 752.5 c 128,-1,48
 556.2 817 556.2 817 556.2 899 c 0,49,50
 556.2 1021 556.2 1021 632.25 1103 c 128,-1,51
 708.3 1185 708.3 1185 846 1210 c 1,0,1
EndSplineSet
EndChar
StartChar: ae
Encoding: 230 230 230
Width: 1732
Flags: W
AnchorPoint: "above" 833.4 1097 basechar 0
AnchorPoint: "below" 833.4 5 basechar 0
Fore
733.5 334 m 2,0,-1
 733.5 559 l 1,1,-1
 520.2 559 l 2,2,3
 396.9 559 396.9 559 336.6 500 c 128,-1,4
 276.3 441 276.3 441 276.3 319 c 0,5,6
 276.3 208 276.3 208 337.5 143 c 128,-1,7
 398.7 78 398.7 78 503.1 78 c 0,8,9
 606.6 78 606.6 78 670.05 149 c 128,-1,10
 733.5 220 733.5 220 733.5 334 c 2,0,-1
831.6 150 m 1,11,12
 756.9 59 756.9 59 666 15 c 128,-1,13
 575.1 -29 575.1 -29 462.6 -29 c 0,14,15
 285.3 -29 285.3 -29 188.55 62 c 128,-1,16
 91.7998 153 91.7998 153 91.7998 319 c 0,17,18
 91.7998 484 91.7998 484 199.35 575 c 128,-1,19
 306.9 666 306.9 666 501.3 666 c 2,20,-1
 733.5 666 l 1,21,-1
 733.5 739 l 2,22,23
 733.5 859 733.5 859 668.7 926 c 128,-1,24
 603.9 993 603.9 993 488.7 993 c 0,25,26
 384.3 993 384.3 993 324.9 943.5 c 128,-1,27
 265.5 894 265.5 894 251.1 795 c 1,28,-1
 165.6 795 l 1,29,-1
 165.6 1010 l 1,30,31
 252 1051 252 1051 333.45 1071.5 c 128,-1,32
 414.9 1092 414.9 1092 492.3 1092 c 0,33,34
 619.2 1092 619.2 1092 706.05 1048.5 c 128,-1,35
 792.9 1005 792.9 1005 842.4 915 c 1,36,37
 909 1003 909 1003 995.4 1047.5 c 128,-1,38
 1081.8 1092 1081.8 1092 1187.1 1092 c 0,39,40
 1404 1092 1404 1092 1520.1 943 c 128,-1,41
 1636.2 794 1636.2 794 1639.8 512 c 1,42,-1
 927 512 l 1,43,-1
 927 504 l 2,44,45
 927 289 927 289 999.45 179.5 c 128,-1,46
 1071.9 70 1071.9 70 1215 70 c 0,47,48
 1323.9 70 1323.9 70 1393.65 133.5 c 128,-1,49
 1463.4 197 1463.4 197 1491.3 322 c 1,50,-1
 1623.6 322 l 1,51,52
 1584.9 147 1584.9 147 1477.8 59 c 128,-1,53
 1370.7 -29 1370.7 -29 1197.9 -29 c 0,54,55
 1088.1 -29 1088.1 -29 994.95 16.5 c 128,-1,56
 901.8 62 901.8 62 831.6 150 c 1,11,12
1445.4 618 m 1,57,58
 1440 804 1440 804 1374.75 898.5 c 128,-1,59
 1309.5 993 1309.5 993 1187.1 993 c 0,60,61
 1072.8 993 1072.8 993 1006.65 898 c 128,-1,62
 940.5 803 940.5 803 927 618 c 1,63,-1
 1445.4 618 l 1,57,58
EndSplineSet
EndChar
StartChar: eth
Encoding: 240 240 240
Width: 1109
Flags: W
Fore
738.9 928 m 1,0,1
 698.4 937 698.4 937 661.95 941.5 c 128,-1,2
 625.5 946 625.5 946 589.5 946 c 0,3,4
 433.8 946 433.8 946 359.55 839 c 128,-1,5
 285.3 732 285.3 732 285.3 508 c 0,6,7
 285.3 298 285.3 298 355.95 184 c 128,-1,8
 426.6 70 426.6 70 554.4 70 c 0,9,10
 684 70 684 70 753.75 184.5 c 128,-1,11
 823.5 299 823.5 299 823.5 512 c 0,12,13
 823.5 624 823.5 624 802.35 729.5 c 128,-1,14
 781.2 835 781.2 835 738.9 928 c 1,0,1
684 1307 m 1,15,16
 848.7 1140 848.7 1140 932.85 944.5 c 128,-1,17
 1017 749 1017 749 1017 532 c 0,18,19
 1017 278 1017 278 890.55 124.5 c 128,-1,20
 764.1 -29 764.1 -29 554.4 -29 c 0,21,22
 348.3 -29 348.3 -29 220.05 122.5 c 128,-1,23
 91.7998 274 91.7998 274 91.7998 518 c 0,24,25
 91.7998 754 91.7998 754 218.7 899 c 128,-1,26
 345.6 1044 345.6 1044 550.8 1044 c 0,27,28
 582.3 1044 582.3 1044 616.05 1041 c 128,-1,29
 649.8 1038 649.8 1038 696.6 1030 c 1,30,31
 676.8 1083 676.8 1083 643.95 1136.5 c 128,-1,32
 611.1 1190 611.1 1190 566.1 1245 c 1,33,-1
 276.3 1096 l 1,34,-1
 243 1174 l 1,35,-1
 506.7 1309 l 1,36,37
 451.8 1367 451.8 1367 381.15 1407.5 c 128,-1,38
 310.5 1448 310.5 1448 225 1470 c 1,39,-1
 241.2 1556 l 1,40,41
 348.3 1530 348.3 1530 442.35 1483 c 128,-1,42
 536.4 1436 536.4 1436 619.2 1368 c 1,43,-1
 909 1518 l 1,44,-1
 942.3 1440 l 1,45,-1
 684 1307 l 1,15,16
EndSplineSet
EndChar
StartChar: divide
Encoding: 247 247 247
Width: 1544
Flags: W
Fore
652.5 1012 m 0,0,1
 652.5 1068 652.5 1068 687.15 1106.5 c 128,-1,2
 721.8 1145 721.8 1145 772.2 1145 c 0,3,4
 821.7 1145 821.7 1145 856.8 1106 c 128,-1,5
 891.9 1067 891.9 1067 891.9 1012 c 0,6,7
 891.9 956 891.9 956 856.8 917.5 c 128,-1,8
 821.7 879 821.7 879 772.2 879 c 0,9,10
 720.9 879 720.9 879 686.7 917 c 128,-1,11
 652.5 955 652.5 955 652.5 1012 c 0,0,1
652.5 272 m 0,12,13
 652.5 328 652.5 328 687.15 367 c 128,-1,14
 721.8 406 721.8 406 772.2 406 c 0,15,16
 821.7 406 821.7 406 856.8 367 c 128,-1,17
 891.9 328 891.9 328 891.9 272 c 0,18,19
 891.9 217 891.9 217 856.8 178 c 128,-1,20
 821.7 139 821.7 139 772.2 139 c 0,21,22
 720.9 139 720.9 139 686.7 177.5 c 128,-1,23
 652.5 216 652.5 216 652.5 272 c 0,12,13
195.3 723 m 1,24,-1
 1349.1 723 l 1,25,-1
 1349.1 561 l 1,26,-1
 195.3 561 l 1,27,-1
 195.3 723 l 1,24,-1
EndSplineSet
EndChar
StartChar: oslash
Encoding: 248 248 248
Width: 1109
Flags: W
Fore
756 879 m 1,0,1
 721.8 936 721.8 936 671.4 964.5 c 128,-1,2
 621 993 621 993 554.4 993 c 0,3,4
 422.1 993 422.1 993 353.7 876 c 128,-1,5
 285.3 759 285.3 759 285.3 532 c 0,6,7
 285.3 460 285.3 460 292.05 401 c 128,-1,8
 298.8 342 298.8 342 311.4 293 c 1,9,-1
 756 879 l 1,0,1
351.9 190 m 1,10,11
 387.9 129 387.9 129 437.85 99.5 c 128,-1,12
 487.8 70 487.8 70 554.4 70 c 0,13,14
 686.7 70 686.7 70 755.1 187.5 c 128,-1,15
 823.5 305 823.5 305 823.5 532 c 0,16,17
 823.5 608 823.5 608 816.75 668.5 c 128,-1,18
 810 729 810 729 796.5 780 c 1,19,-1
 351.9 190 l 1,10,11
903.6 922 m 1,20,21
 959.4 848 959.4 848 988.2 749 c 128,-1,22
 1017 650 1017 650 1017 532 c 0,23,24
 1017 278 1017 278 890.55 124.5 c 128,-1,25
 764.1 -29 764.1 -29 554.4 -29 c 0,26,27
 469.8 -29 469.8 -29 397.8 -2.5 c 128,-1,28
 325.8 24 325.8 24 265.5 78 c 1,29,-1
 136.8 -94 l 1,30,-1
 68.4004 -31 l 1,31,-1
 202.5 147 l 1,32,33
 147.6 224 147.6 224 119.7 320.5 c 128,-1,34
 91.7998 417 91.7998 417 91.7998 532 c 0,35,36
 91.7998 786 91.7998 786 218.25 939 c 128,-1,37
 344.7 1092 344.7 1092 554.4 1092 c 0,38,39
 639 1092 639 1092 711 1066.5 c 128,-1,40
 783 1041 783 1041 840.6 991 c 1,41,-1
 965.7 1157 l 1,42,-1
 1034.1 1094 l 1,43,-1
 903.6 922 l 1,20,21
EndSplineSet
EndChar
StartChar: thorn
Encoding: 254 254 254
Width: 1179
Flags: W
Fore
378 584 m 2,0,-1
 378 479 l 2,1,2
 378 287 378 287 444.15 186.5 c 128,-1,3
 510.3 86 510.3 86 636.3 86 c 0,4,5
 763.2 86 763.2 86 828.45 199 c 128,-1,6
 893.7 312 893.7 312 893.7 532 c 0,7,8
 893.7 753 893.7 753 828.45 865 c 128,-1,9
 763.2 977 763.2 977 636.3 977 c 0,10,11
 510.3 977 510.3 977 444.15 876 c 128,-1,12
 378 775 378 775 378 584 c 2,0,-1
212.4 1450 m 1,13,-1
 53.0996 1450 l 1,14,-1
 53.0996 1556 l 1,15,-1
 378 1556 l 1,16,-1
 378 897 l 1,17,18
 426.6 997 426.6 997 501.75 1044.5 c 128,-1,19
 576.9 1092 576.9 1092 687.6 1092 c 0,20,21
 864 1092 864 1092 975.6 937 c 128,-1,22
 1087.2 782 1087.2 782 1087.2 532 c 0,23,24
 1087.2 282 1087.2 282 975.6 126.5 c 128,-1,25
 864 -29 864 -29 687.6 -29 c 0,26,27
 576.9 -29 576.9 -29 501.75 18.5 c 128,-1,28
 426.6 66 426.6 66 378 166 c 1,29,-1
 378 -319 l 1,30,-1
 534.6 -319 l 1,31,-1
 534.6 -426 l 1,32,-1
 53.0996 -426 l 1,33,-1
 53.0996 -319 l 1,34,-1
 212.4 -319 l 1,35,-1
 212.4 1450 l 1,13,-1
EndSplineSet
EndChar
StartChar: dcroat
Encoding: 273 273 273
Width: 1179
Flags: W
Fore
967.5 106 m 1,0,-1
 1125.9 106 l 1,1,-1
 1125.9 0 l 1,2,-1
 801.9 0 l 1,3,-1
 801.9 166 l 1,4,5
 753.3 66 753.3 66 678.15 18.5 c 128,-1,6
 603 -29 603 -29 492.3 -29 c 0,7,8
 315.9 -29 315.9 -29 203.85 126.5 c 128,-1,9
 91.7998 282 91.7998 282 91.7998 532 c 0,10,11
 91.7998 782 91.7998 782 203.4 937 c 128,-1,12
 315 1092 315 1092 492.3 1092 c 0,13,14
 603 1092 603 1092 678.15 1044.5 c 128,-1,15
 753.3 997 753.3 997 801.9 897 c 1,16,-1
 801.9 1227 l 1,17,-1
 508.5 1227 l 1,18,-1
 508.5 1333 l 1,19,-1
 801.9 1333 l 1,20,-1
 801.9 1450 l 1,21,-1
 645.3 1450 l 1,22,-1
 645.3 1556 l 1,23,-1
 967.5 1556 l 1,24,-1
 967.5 1333 l 1,25,-1
 1125.9 1333 l 1,26,-1
 1125.9 1227 l 1,27,-1
 967.5 1227 l 1,28,-1
 967.5 106 l 1,0,-1
801.9 479 m 2,29,-1
 801.9 584 l 2,30,31
 801.9 775 801.9 775 735.75 876 c 128,-1,32
 669.6 977 669.6 977 543.6 977 c 0,33,34
 415.8 977 415.8 977 350.55 865 c 128,-1,35
 285.3 753 285.3 753 285.3 532 c 0,36,37
 285.3 312 285.3 312 350.55 199 c 128,-1,38
 415.8 86 415.8 86 543.6 86 c 0,39,40
 669.6 86 669.6 86 735.75 186.5 c 128,-1,41
 801.9 287 801.9 287 801.9 479 c 2,29,-1
EndSplineSet
EndChar
StartChar: Hbar
Encoding: 294 294 294
Width: 1607
Flags: W
Fore
455.4 870 m 1,0,-1
 1152 870 l 1,1,-1
 1152 1067 l 1,2,-1
 455.4 1067 l 1,3,-1
 455.4 870 l 1,0,-1
101.7 0 m 1,4,-1
 101.7 106 l 1,5,-1
 272.7 106 l 1,6,-1
 272.7 1067 l 1,7,-1
 101.7 1067 l 1,8,-1
 101.7 1189 l 1,9,-1
 272.7 1189 l 1,10,-1
 272.7 1386 l 1,11,-1
 101.7 1386 l 1,12,-1
 101.7 1493 l 1,13,-1
 626.4 1493 l 1,14,-1
 626.4 1386 l 1,15,-1
 455.4 1386 l 1,16,-1
 455.4 1189 l 1,17,-1
 1152 1189 l 1,18,-1
 1152 1386 l 1,19,-1
 981 1386 l 1,20,-1
 981 1493 l 1,21,-1
 1505.7 1493 l 1,22,-1
 1505.7 1386 l 1,23,-1
 1334.7 1386 l 1,24,-1
 1334.7 1189 l 1,25,-1
 1505.7 1189 l 1,26,-1
 1505.7 1067 l 1,27,-1
 1334.7 1067 l 1,28,-1
 1334.7 106 l 1,29,-1
 1505.7 106 l 1,30,-1
 1505.7 0 l 1,31,-1
 981 0 l 1,32,-1
 981 106 l 1,33,-1
 1152 106 l 1,34,-1
 1152 748 l 1,35,-1
 455.4 748 l 1,36,-1
 455.4 106 l 1,37,-1
 626.4 106 l 1,38,-1
 626.4 0 l 1,39,-1
 101.7 0 l 1,4,-1
EndSplineSet
EndChar
StartChar: hbar
Encoding: 295 295 295
Width: 1187
Flags: W
Fore
75.5996 0 m 1,0,-1
 75.5996 106 l 1,1,-1
 225 106 l 1,2,-1
 225 1210 l 1,3,-1
 66.5996 1210 l 1,4,-1
 66.5996 1332 l 1,5,-1
 225 1332 l 1,6,-1
 225 1450 l 1,7,-1
 66.5996 1450 l 1,8,-1
 66.5996 1556 l 1,9,-1
 390.6 1556 l 1,10,-1
 390.6 1332 l 1,11,-1
 675 1332 l 1,12,-1
 675 1210 l 1,13,-1
 390.6 1210 l 1,14,-1
 390.6 874 l 1,15,16
 436.5 982 436.5 982 509.85 1037 c 128,-1,17
 583.2 1092 583.2 1092 680.4 1092 c 0,18,19
 838.8 1092 838.8 1092 913.5 991 c 128,-1,20
 988.2 890 988.2 890 988.2 676 c 2,21,-1
 988.2 106 l 1,22,-1
 1135.8 106 l 1,23,-1
 1135.8 0 l 1,24,-1
 678.6 0 l 1,25,-1
 678.6 106 l 1,26,-1
 821.7 106 l 1,27,-1
 821.7 618 l 2,28,29
 821.7 813 821.7 813 778.95 884.5 c 128,-1,30
 736.2 956 736.2 956 626.4 956 c 0,31,32
 511.2 956 511.2 956 450.9 863 c 128,-1,33
 390.6 770 390.6 770 390.6 592 c 2,34,-1
 390.6 106 l 1,35,-1
 534.6 106 l 1,36,-1
 534.6 0 l 1,37,-1
 75.5996 0 l 1,0,-1
EndSplineSet
EndChar
StartChar: dotlessi
Encoding: 305 305 305
Width: 589
Flags: W
AnchorPoint: "below" 295.2 0 basechar 0
AnchorPoint: "above" 295.2 1092 basechar 0
Fore
390.6 106 m 1,0,-1
 547.2 106 l 1,1,-1
 547.2 0 l 1,2,-1
 66.5996 0 l 1,3,-1
 66.5996 106 l 1,4,-1
 225 106 l 1,5,-1
 225 956 l 1,6,-1
 66.5996 956 l 1,7,-1
 66.5996 1063 l 1,8,-1
 390.6 1063 l 1,9,-1
 390.6 106 l 1,0,-1
EndSplineSet
EndChar
StartChar: kgreenlandic
Encoding: 312 312 312
Width: 1116
Flags: W
Fore
527.4 0 m 1,0,-1
 63 0 l 1,1,-1
 63 106 l 1,2,-1
 212.4 106 l 1,3,-1
 212.4 953 l 1,4,-1
 53.0996 953 l 1,5,-1
 53.0996 1060 l 1,6,-1
 378 1060 l 1,7,-1
 378 541 l 1,8,-1
 781.2 953 l 1,9,-1
 643.5 953 l 1,10,-1
 643.5 1060 l 1,11,-1
 1076.4 1060 l 1,12,-1
 1076.4 953 l 1,13,-1
 912.6 953 l 1,14,-1
 628.2 662 l 1,15,-1
 991.8 106 l 1,16,-1
 1129.5 106 l 1,17,-1
 1129.5 0 l 1,18,-1
 657.9 0 l 1,19,-1
 657.9 106 l 1,20,-1
 794.7 106 l 1,21,-1
 508.5 541 l 1,22,-1
 378 406 l 1,23,-1
 378 106 l 1,24,-1
 527.4 106 l 1,25,-1
 527.4 0 l 1,0,-1
EndSplineSet
EndChar
StartChar: Lslash
Encoding: 321 321 321
Width: 1233
Flags: W
Fore
110.7 0 m 1,0,-1
 110.7 106 l 1,1,-1
 281.7 106 l 1,2,-1
 281.7 586 l 1,3,-1
 140.4 473 l 1,4,-1
 77.4004 565 l 1,5,-1
 281.7 727 l 1,6,-1
 281.7 1386 l 1,7,-1
 110.7 1386 l 1,8,-1
 110.7 1493 l 1,9,-1
 634.5 1493 l 1,10,-1
 634.5 1386 l 1,11,-1
 462.6 1386 l 1,12,-1
 462.6 870 l 1,13,-1
 738.9 1096 l 1,14,-1
 801.9 1004 l 1,15,-1
 462.6 729 l 1,16,-1
 462.6 123 l 1,17,-1
 1078.2 123 l 1,18,-1
 1078.2 373 l 1,19,-1
 1188.9 373 l 1,20,-1
 1188.9 0 l 1,21,-1
 110.7 0 l 1,0,-1
EndSplineSet
EndChar
StartChar: lslash
Encoding: 322 322 322
Width: 597
Flags: W
Fore
385.2 106 m 1,0,-1
 543.6 106 l 1,1,-1
 543.6 0 l 1,2,-1
 63 0 l 1,3,-1
 63 106 l 1,4,-1
 219.6 106 l 1,5,-1
 219.6 680 l 1,6,-1
 95.4004 584 l 1,7,-1
 40.5 670 l 1,8,-1
 219.6 811 l 1,9,-1
 219.6 1450 l 1,10,-1
 63 1450 l 1,11,-1
 63 1556 l 1,12,-1
 385.2 1556 l 1,13,-1
 385.2 940 l 1,14,-1
 517.5 1038 l 1,15,-1
 571.5 952 l 1,16,-1
 385.2 811 l 1,17,-1
 385.2 106 l 1,0,-1
EndSplineSet
EndChar
StartChar: Eng
Encoding: 330 330 330
Width: 1553
Flags: W
Fore
86.4004 0 m 1,0,-1
 86.4004 107 l 1,1,-1
 258.3 107 l 1,2,-1
 258.3 1386 l 1,3,-1
 99.9004 1386 l 1,4,-1
 99.9004 1493 l 1,5,-1
 441 1493 l 1,6,-1
 441 1292 l 1,7,8
 507.6 1406 507.6 1406 612.9 1464 c 128,-1,9
 718.2 1522 718.2 1522 857.7 1522 c 0,10,11
 1085.4 1522 1085.4 1522 1192.5 1376.5 c 128,-1,12
 1299.6 1231 1299.6 1231 1299.6 922 c 2,13,-1
 1299.6 41 l 2,14,15
 1299.6 -206 1299.6 -206 1210.5 -316 c 128,-1,16
 1121.4 -426 1121.4 -426 923.4 -426 c 0,17,18
 859.5 -426 859.5 -426 793.35 -409 c 128,-1,19
 727.2 -392 727.2 -392 661.5 -358 c 1,20,-1
 661.5 -123 l 1,21,-1
 762.3 -123 l 1,22,23
 762.3 -222 762.3 -222 803.25 -270.5 c 128,-1,24
 844.2 -319 844.2 -319 923.4 -319 c 0,25,26
 1028.7 -319 1028.7 -319 1072.8 -244 c 0,27,28
 1115.1 -171 1115.1 -171 1115.1 49 c 2,29,-1
 1115.1 881 l 2,30,31
 1115.1 1173 1115.1 1173 1047.6 1282 c 128,-1,32
 980.1 1391 980.1 1391 809.1 1391 c 0,33,34
 629.1 1391 629.1 1391 535.05 1262.5 c 128,-1,35
 441 1134 441 1134 441 887 c 2,36,-1
 441 107 l 1,37,-1
 612 107 l 1,38,-1
 612 0 l 1,39,-1
 86.4004 0 l 1,0,-1
EndSplineSet
Substitution2: "'locl' Localized Forms in Latin - Sami" Eng.alt
EndChar
StartChar: eng
Encoding: 331 331 331
Width: 1187
Flags: W
AnchorPoint: "above" 534.6 1092 basechar 0
Fore
75.5996 0 m 1,0,-1
 75.5996 106 l 1,1,-1
 225 106 l 1,2,-1
 225 956 l 1,3,-1
 66.5996 956 l 1,4,-1
 66.5996 1063 l 1,5,-1
 390.6 1063 l 1,6,-1
 390.6 874 l 1,7,8
 436.5 982 436.5 982 509.85 1037 c 128,-1,9
 583.2 1092 583.2 1092 680.4 1092 c 0,10,11
 837 1092 837 1092 913.5 991 c 0,12,13
 988.2 892.5 988.2 892.5 988.2 676 c 2,14,-1
 988.2 -104 l 2,15,16
 988.2 -268 988.2 -268 900.45 -361.5 c 128,-1,17
 812.7 -455 812.7 -455 658.8 -455 c 0,18,19
 594 -455 594 -455 535.05 -438.5 c 128,-1,20
 476.1 -422 476.1 -422 420.3 -389 c 1,21,-1
 420.3 -170 l 1,22,-1
 505.8 -170 l 1,23,24
 512.1 -266 512.1 -266 550.35 -311 c 128,-1,25
 588.6 -356 588.6 -356 662.4 -356 c 0,26,27
 744.3 -356 744.3 -356 783.45 -294.5 c 0,28,29
 821.7 -234.5 821.7 -234.5 821.7 -104 c 2,30,-1
 821.7 618 l 2,31,32
 821.7 813 821.7 813 778.5 885.5 c 128,-1,33
 735.3 958 735.3 958 626.4 958 c 0,34,35
 511.2 958 511.2 958 450.9 864.5 c 128,-1,36
 390.6 771 390.6 771 390.6 592 c 2,37,-1
 390.6 106 l 1,38,-1
 534.6 106 l 1,39,-1
 534.6 0 l 1,40,-1
 75.5996 0 l 1,0,-1
EndSplineSet
EndChar
StartChar: OE
Encoding: 338 338 338
Width: 2096
Flags: W
AnchorPoint: "above" 1118.7 1459 basechar 0
AnchorPoint: "below" 1118.7 -6 basechar 0
Fore
1023.3 106 m 1,0,-1
 1023.3 1386 l 1,1,-1
 855 1386 l 2,2,3
 592.2 1386 592.2 1386 452.7 1222 c 128,-1,4
 313.2 1058 313.2 1058 313.2 750 c 0,5,6
 313.2 439 313.2 439 453.15 272.5 c 128,-1,7
 593.1 106 593.1 106 855 106 c 2,8,-1
 1023.3 106 l 1,0,-1
1948.5 0 m 1,9,-1
 842.4 0 l 2,10,11
 495.9 0 495.9 0 301.5 198 c 128,-1,12
 107.1 396 107.1 396 107.1 750 c 0,13,14
 107.1 1101 107.1 1101 301.05 1297 c 128,-1,15
 495 1493 495 1493 842.4 1493 c 2,16,-1
 1933.2 1493 l 1,17,-1
 1933.2 1161 l 1,18,-1
 1822.5 1161 l 1,19,-1
 1822.5 1370 l 1,20,-1
 1205.1 1370 l 1,21,-1
 1205.1 870 l 1,22,-1
 1647.9 870 l 1,23,-1
 1647.9 1057 l 1,24,-1
 1756.8 1057 l 1,25,-1
 1756.8 561 l 1,26,-1
 1647.9 561 l 1,27,-1
 1647.9 748 l 1,28,-1
 1205.1 748 l 1,29,-1
 1205.1 123 l 1,30,-1
 1837.8 123 l 1,31,-1
 1837.8 332 l 1,32,-1
 1948.5 332 l 1,33,-1
 1948.5 0 l 1,9,-1
EndSplineSet
EndChar
StartChar: oe
Encoding: 339 339 339
Width: 1822
Flags: W
AnchorPoint: "above" 923.4 1092 basechar 0
AnchorPoint: "below" 923.4 0 basechar 0
Fore
554.4 70 m 0,0,1
 687.6 70 687.6 70 755.55 187 c 128,-1,2
 823.5 304 823.5 304 823.5 532 c 0,3,4
 823.5 760 823.5 760 755.55 876.5 c 128,-1,5
 687.6 993 687.6 993 554.4 993 c 0,6,7
 421.2 993 421.2 993 353.25 876.5 c 128,-1,8
 285.3 760 285.3 760 285.3 532 c 0,9,10
 285.3 304 285.3 304 353.7 187 c 128,-1,11
 422.1 70 422.1 70 554.4 70 c 0,0,1
1730.7 512 m 1,12,-1
 1017 512 l 1,13,-1
 1017 504 l 2,14,15
 1017 289 1017 289 1089.9 179.5 c 128,-1,16
 1162.8 70 1162.8 70 1305 70 c 0,17,18
 1413.9 70 1413.9 70 1483.65 133.5 c 128,-1,19
 1553.4 197 1553.4 197 1581.3 322 c 1,20,-1
 1714.5 322 l 1,21,22
 1674.9 147 1674.9 147 1568.25 59 c 128,-1,23
 1461.6 -29 1461.6 -29 1288.8 -29 c 0,24,25
 1171.8 -29 1171.8 -29 1078.65 20 c 128,-1,26
 985.5 69 985.5 69 919.8 166 c 1,27,28
 857.7 70 857.7 70 764.55 20.5 c 128,-1,29
 671.4 -29 671.4 -29 554.4 -29 c 0,30,31
 345.6 -29 345.6 -29 218.7 124.5 c 128,-1,32
 91.7998 278 91.7998 278 91.7998 532 c 0,33,34
 91.7998 786 91.7998 786 218.25 939 c 128,-1,35
 344.7 1092 344.7 1092 554.4 1092 c 0,36,37
 673.2 1092 673.2 1092 765.9 1042.5 c 128,-1,38
 858.6 993 858.6 993 921.6 897 c 1,39,40
 987.3 993 987.3 993 1077.3 1042.5 c 128,-1,41
 1167.3 1092 1167.3 1092 1277.1 1092 c 0,42,43
 1494.9 1092 1494.9 1092 1610.55 943.5 c 128,-1,44
 1726.2 795 1726.2 795 1730.7 512 c 1,12,-1
1535.4 618 m 1,45,46
 1530 804 1530 804 1464.75 898.5 c 128,-1,47
 1399.5 993 1399.5 993 1277.1 993 c 0,48,49
 1162.8 993 1162.8 993 1097.1 898 c 128,-1,50
 1031.4 803 1031.4 803 1017 618 c 1,51,-1
 1535.4 618 l 1,45,46
EndSplineSet
EndChar
StartChar: Tbar
Encoding: 358 358 358
Width: 1229
Flags: W
Fore
351.9 0 m 1,0,-1
 351.9 106 l 1,1,-1
 523.8 106 l 1,2,-1
 523.8 679 l 1,3,-1
 284.4 679 l 1,4,-1
 284.4 798 l 1,5,-1
 523.8 798 l 1,6,-1
 523.8 1374 l 1,7,-1
 128.7 1374 l 1,8,-1
 128.7 1141 l 1,9,-1
 18 1141 l 1,10,-1
 18 1493 l 1,11,-1
 1211.4 1493 l 1,12,-1
 1211.4 1141 l 1,13,-1
 1100.7 1141 l 1,14,-1
 1100.7 1374 l 1,15,-1
 705.6 1374 l 1,16,-1
 705.6 798 l 1,17,-1
 945 798 l 1,18,-1
 945 679 l 1,19,-1
 705.6 679 l 1,20,-1
 705.6 106 l 1,21,-1
 877.5 106 l 1,22,-1
 877.5 0 l 1,23,-1
 351.9 0 l 1,0,-1
EndSplineSet
EndChar
StartChar: tbar
Encoding: 359 359 359
Width: 740
Flags: W
Fore
198.9 956 m 1,0,-1
 53.0996 956 l 1,1,-1
 53.0996 1063 l 1,2,-1
 198.9 1063 l 1,3,-1
 198.9 1393 l 1,4,-1
 365.4 1393 l 1,5,-1
 365.4 1063 l 1,6,-1
 676.8 1063 l 1,7,-1
 676.8 956 l 1,8,-1
 365.4 956 l 1,9,-1
 365.4 723 l 1,10,-1
 536.4 723 l 1,11,-1
 536.4 581 l 1,12,-1
 365.4 581 l 1,13,-1
 365.4 281 l 2,14,15
 365.4 146 365.4 146 388.8 108 c 128,-1,16
 412.2 70 412.2 70 475.2 70 c 0,17,18
 540 70 540 70 569.7 112 c 0,19,20
 599.4 155 599.4 155 601.2 250 c 1,21,-1
 726.3 250 l 1,22,23
 719.1 105 719.1 105 655.2 38 c 128,-1,24
 591.3 -29 591.3 -29 460.8 -29 c 0,25,26
 317.7 -29 317.7 -29 258.3 42 c 0,27,28
 198.9 112 198.9 112 198.9 281 c 2,29,-1
 198.9 581 l 1,30,-1
 77.4004 581 l 1,31,-1
 77.4004 723 l 1,32,-1
 198.9 723 l 1,33,-1
 198.9 956 l 1,0,-1
EndSplineSet
EndChar
StartChar: longs
Encoding: 383 383 383
Width: 682
Flags: W
Fore
390.6 106 m 1,0,-1
 603 106 l 1,1,-1
 603 0 l 1,2,-1
 66.5996 0 l 1,3,-1
 66.5996 106 l 1,4,-1
 225 106 l 1,5,-1
 225 956 l 1,6,-1
 66.5996 956 l 1,7,-1
 66.5996 1063 l 1,8,-1
 225 1063 l 1,9,-1
 225 1196 l 2,10,11
 225 1374 225 1374 308.25 1465 c 128,-1,12
 391.5 1556 391.5 1556 552.6 1556 c 0,13,14
 612.9 1556 612.9 1556 673.2 1544 c 128,-1,15
 733.5 1532 733.5 1532 792.9 1507 c 1,16,-1
 792.9 1305 l 1,17,-1
 705.6 1305 l 1,18,19
 704.7 1380 704.7 1380 667.35 1419 c 128,-1,20
 630 1458 630 1458 558.9 1458 c 0,21,22
 466.2 1458 466.2 1458 428.4 1401.5 c 0,23,24
 390.6 1343.2 390.6 1343.2 390.6 1200 c 2,25,-1
 390.6 106 l 1,0,-1
EndSplineSet
EndChar
StartChar: uni0180
Encoding: 384 384 384
Width: 1179
Flags: W
AnchorPoint: "below" 656.1 10 basechar 0
AnchorPoint: "above" 295.2 1536 basechar 0
Fore
212.4 106 m 1,0,-1
 212.4 1210 l 1,1,-1
 54 1210 l 1,2,-1
 54 1332 l 1,3,-1
 212.4 1332 l 1,4,-1
 212.4 1450 l 1,5,-1
 54 1450 l 1,6,-1
 54 1556 l 1,7,-1
 378 1556 l 1,8,-1
 378 1332 l 1,9,-1
 662.4 1332 l 1,10,-1
 662.4 1210 l 1,11,-1
 378 1210 l 1,12,-1
 378 897 l 1,13,14
 426.6 997 426.6 997 501.75 1044.5 c 128,-1,15
 576.9 1092 576.9 1092 687.6 1092 c 0,16,17
 864 1092 864 1092 975.6 937 c 128,-1,18
 1087.2 782 1087.2 782 1087.2 532 c 0,19,20
 1087.2 282 1087.2 282 975.6 126.5 c 128,-1,21
 864 -29 864 -29 687.6 -29 c 0,22,23
 576.9 -29 576.9 -29 501.75 18.5 c 128,-1,24
 426.6 66 426.6 66 378 166 c 1,25,-1
 378 0 l 1,26,-1
 53.0996 0 l 1,27,-1
 53.0996 106 l 1,28,-1
 212.4 106 l 1,0,-1
378 479 m 2,29,30
 378 287 378 287 444.15 186.5 c 128,-1,31
 510.3 86 510.3 86 636.3 86 c 0,32,33
 763.2 86 763.2 86 828.45 199 c 128,-1,34
 893.7 312 893.7 312 893.7 532 c 0,35,36
 893.7 753 893.7 753 828.45 865 c 128,-1,37
 763.2 977 763.2 977 636.3 977 c 0,38,39
 510.3 977 510.3 977 444.15 876 c 128,-1,40
 378 775 378 775 378 584 c 2,41,-1
 378 479 l 2,29,30
EndSplineSet
EndChar
StartChar: uni0181
Encoding: 385 385 385
Width: 1354
Flags: W
Fore
272.7 1386 m 0,0,1
 68.4004 1386 68.4004 1386 7.2002 1297 c 0,2,3
 -56.7002 1206 -56.7002 1206 -56.7002 1020 c 1,4,-1
 -172.8 1020 l 1,5,-1
 -172.8 1364 l 1,6,7
 -81 1440 -81 1440 81 1476 c 0,8,9
 184.5 1493 184.5 1493 272.7 1493 c 2,10,-1
 765 1493 l 0,11,12
 966.6 1493 966.6 1493 1071 1400 c 0,13,14
 1174.5 1308 1174.5 1308 1174.5 1124 c 0,15,16
 1174.5 991 1174.5 991 1103.4 912 c 0,17,18
 1031.4 833 1031.4 833 893.7 815 c 1,19,20
 1066.5 791 1066.5 791 1153.8 694 c 0,21,22
 1242 596 1242 596 1242 432 c 0,23,24
 1242 210 1242 210 1116 105 c 128,-1,25
 990 0 990 0 722.7 0 c 2,26,-1
 101.7 0 l 1,27,-1
 101.7 106 l 1,28,-1
 272.7 106 l 1,29,-1
 272.7 1386 l 0,0,1
455.4 862 m 1,30,-1
 684 862 l 2,31,32
 831.6 862 831.6 862 900 925 c 0,33,34
 967.5 988 967.5 988 967.5 1124 c 0,35,36
 967.5 1281 967.5 1281 900 1324 c 0,37,38
 803.7 1386 803.7 1386 684 1386 c 2,39,-1
 455.4 1386 l 1,40,-1
 455.4 862 l 1,30,-1
455.4 106 m 1,41,-1
 724.5 106 l 2,42,43
 886.5 106 886.5 106 961.2 184 c 128,-1,44
 1035.9 262 1035.9 262 1035.9 432 c 0,45,46
 1035.9 599 1035.9 599 961.2 678 c 0,47,48
 887.4 756 887.4 756 724.5 756 c 2,49,-1
 455.4 756 l 1,50,-1
 455.4 106 l 1,41,-1
EndSplineSet
EndChar
StartChar: uni0183
Encoding: 387 387 387
Width: 1179
Flags: W
Fore
378 479 m 2,0,1
 378 287 378 287 444.6 186 c 0,2,3
 510.3 86 510.3 86 636.3 86 c 0,4,5
 763.2 86 763.2 86 828 199 c 0,6,7
 893.7 312 893.7 312 893.7 532 c 0,8,9
 893.7 753 893.7 753 828 865 c 0,10,11
 763.2 977 763.2 977 636.3 977 c 0,12,13
 510.3 977 510.3 977 444.6 876 c 0,14,15
 378 775 378 775 378 584 c 2,16,-1
 378 479 l 2,0,1
910.8 1556 m 1,17,-1
 910.8 1289 l 1,18,-1
 816.3 1289 l 1,19,-1
 816.3 1433 l 1,20,-1
 378 1433 l 1,21,-1
 378 897 l 1,22,23
 426.6 997 426.6 997 502.2 1044 c 0,24,25
 576.9 1092 576.9 1092 687.6 1092 c 0,26,27
 864 1092 864 1092 975.6 937 c 0,28,29
 1087.2 782 1087.2 782 1087.2 532 c 0,30,31
 1087.2 282 1087.2 282 975.6 126 c 0,32,33
 864 -29 864 -29 687.6 -29 c 0,34,35
 576.9 -29 576.9 -29 502.2 18 c 0,36,37
 426.6 66 426.6 66 378 166 c 1,38,-1
 378 0 l 1,39,-1
 53.0996 0 l 1,40,-1
 53.0996 106 l 1,41,-1
 212.4 106 l 1,42,-1
 212.4 1450 l 1,43,-1
 53.0996 1450 l 1,44,-1
 53.0996 1556 l 1,45,-1
 910.8 1556 l 1,17,-1
EndSplineSet
EndChar
StartChar: uni0184
Encoding: 388 388 388
Width: 1354
Flags: W
Fore
455.4 106 m 1,0,-1
 724.5 106 l 2,1,2
 886.5 106 886.5 106 961.2 184 c 128,-1,3
 1035.9 262 1035.9 262 1035.9 432 c 0,4,5
 1035.9 601 1035.9 601 961.65 678.5 c 128,-1,6
 887.4 756 887.4 756 724.5 756 c 2,7,-1
 455.4 756 l 1,8,-1
 455.4 106 l 1,0,-1
101.7 1098 m 1,9,-1
 455.4 1493 l 1,10,-1
 455.4 862 l 1,11,-1
 684 862 l 2,12,13
 1026 862 1026 862 1153.8 694 c 1,14,15
 1242 576 1242 576 1242 432 c 0,16,17
 1242 210 1242 210 1116 105 c 128,-1,18
 990 0 990 0 722.7 0 c 2,19,-1
 101.7 0 l 1,20,-1
 101.7 106 l 1,21,-1
 272.7 106 l 1,22,-1
 272.7 992 l 1,23,-1
 101.7 992 l 1,24,-1
 101.7 1098 l 1,9,-1
EndSplineSet
EndChar
StartChar: uni0185
Encoding: 389 389 389
Width: 1179
Flags: W
Fore
378 479 m 2,0,1
 378 287 378 287 444.15 186.5 c 128,-1,2
 510.3 86 510.3 86 636.3 86 c 0,3,4
 763.2 86 763.2 86 828.45 199 c 128,-1,5
 893.7 312 893.7 312 893.7 532 c 0,6,7
 893.7 753 893.7 753 828.45 865 c 128,-1,8
 763.2 977 763.2 977 636.3 977 c 0,9,10
 510.3 977 510.3 977 444.15 876 c 128,-1,11
 378 775 378 775 378 584 c 2,12,-1
 378 479 l 2,0,1
378 1556 m 1,13,-1
 378 897 l 1,14,15
 426.6 997 426.6 997 501.75 1044.5 c 128,-1,16
 576.9 1092 576.9 1092 687.6 1092 c 0,17,18
 864 1092 864 1092 975.6 937 c 128,-1,19
 1087.2 782 1087.2 782 1087.2 532 c 128,-1,20
 1087.2 282 1087.2 282 975.6 126.5 c 128,-1,21
 864 -29 864 -29 687.6 -29 c 0,22,23
 576.9 -29 576.9 -29 501.75 18.5 c 128,-1,24
 426.6 66 426.6 66 378 166 c 1,25,-1
 378 0 l 1,26,-1
 53.0996 0 l 1,27,-1
 53.0996 106 l 1,28,-1
 212.4 106 l 1,29,-1
 212.4 1125 l 1,30,-1
 53.0996 1125 l 1,31,-1
 53.0996 1251 l 1,32,-1
 378 1556 l 1,13,-1
EndSplineSet
EndChar
StartChar: uni0186
Encoding: 390 390 390
Width: 1410
Flags: W
AnchorPoint: "above" 659.7 1465 basechar 0
Fore
103.5 1096 m 1,0,1
 162.9 1305 162.9 1305 302.85 1412.5 c 128,-1,2
 442.8 1520 442.8 1520 657 1520 c 0,3,4
 788.4 1520 788.4 1520 900.9 1470 c 128,-1,5
 1013.4 1420 1013.4 1420 1100.7 1323 c 0,6,7
 1201.5 1211 1201.5 1211 1250.55 1068.5 c 128,-1,8
 1299.6 926 1299.6 926 1299.6 746 c 0,9,10
 1299.6 398 1299.6 398 1118.7 184.5 c 128,-1,11
 937.8 -29 937.8 -29 641.7 -29 c 0,12,13
 531.9 -29 531.9 -29 407.7 3 c 128,-1,14
 283.5 35 283.5 35 140.4 100 c 1,15,-1
 140.4 444 l 1,16,-1
 242.1 444 l 1,17,18
 275.4 256 275.4 256 375.75 167 c 128,-1,19
 476.1 78 476.1 78 657 78 c 0,20,21
 872.1 78 872.1 78 982.8 247.5 c 128,-1,22
 1093.5 417 1093.5 417 1093.5 746 c 0,23,24
 1093.5 1074 1093.5 1074 982.8 1243.5 c 128,-1,25
 872.1 1413 872.1 1413 657 1413 c 0,26,27
 506.7 1413 506.7 1413 409.5 1333.5 c 128,-1,28
 312.3 1254 312.3 1254 269.1 1096 c 1,29,-1
 103.5 1096 l 1,0,1
EndSplineSet
EndChar
StartChar: uni0187
Encoding: 391 391 391
Width: 1410
Flags: W
AnchorPoint: "above" 746.1 1465 basechar 0
Fore
1299.6 395 m 1,0,1
 1240.2 186 1240.2 186 1099.8 78 c 0,2,3
 960.3 -29 960.3 -29 746.1 -29 c 0,4,5
 614.7 -29 614.7 -29 502.2 21 c 0,6,7
 389.7 71 389.7 71 302.4 168 c 0,8,9
 201.6 280 201.6 280 153 422 c 0,10,11
 103.5 565 103.5 565 103.5 745 c 0,12,13
 103.5 1093 103.5 1093 284.4 1306 c 0,14,15
 465.3 1520 465.3 1520 761.4 1520 c 0,16,17
 871.2 1520 871.2 1520 995.4 1488 c 0,18,19
 1084.5 1465 1084.5 1465 1182.6 1425 c 1,20,21
 1182.6 1512 1182.6 1512 1255.5 1570 c 0,22,23
 1323 1630 1323 1630 1425.6 1630 c 0,24,25
 1490.4 1630 1490.4 1630 1549.8 1614 c 0,26,27
 1608.3 1597 1608.3 1597 1664.1 1564 c 1,28,-1
 1664.1 1345 l 1,29,-1
 1578.6 1345 l 1,30,31
 1578.6 1441 1578.6 1441 1533.6 1486 c 0,32,33
 1495.8 1531 1495.8 1531 1422 1531 c 0,34,35
 1340.1 1531 1340.1 1531 1301.4 1470 c 0,36,37
 1262.7 1409 1262.7 1409 1262.7 1279 c 2,38,-1
 1262.7 1047 l 1,39,-1
 1161 1047 l 1,40,41
 1127.7 1235 1127.7 1235 1027.8 1324 c 0,42,43
 927 1413 927 1413 746.1 1413 c 0,44,45
 531 1413 531 1413 420.3 1244 c 0,46,47
 309.6 1074 309.6 1074 309.6 745 c 0,48,49
 309.6 417 309.6 417 420.3 248 c 0,50,51
 531 78 531 78 746.1 78 c 0,52,53
 896.4 78 896.4 78 993.6 158 c 0,54,55
 1090.8 237 1090.8 237 1134 395 c 1,56,-1
 1299.6 395 l 1,0,1
EndSplineSet
EndChar
StartChar: uni0188
Encoding: 392 392 392
Width: 1032
Flags: W
AnchorPoint: "above" 554.4 1092 basechar 0
Fore
947.7 319 m 1,0,1
 912.6 149 912.6 149 812.7 60 c 0,2,3
 712.8 -29 712.8 -29 554.4 -29 c 0,4,5
 345.6 -29 345.6 -29 218.7 124 c 0,6,7
 91.7998 278 91.7998 278 91.7998 532 c 0,8,9
 91.7998 787 91.7998 787 218.7 940 c 0,10,11
 345.6 1092 345.6 1092 554.4 1092 c 0,12,13
 645.3 1092 645.3 1092 735.3 1068 c 0,14,15
 779.4 1057 779.4 1057 824.4 1039 c 1,16,17
 839.7 1183 839.7 1183 913.5 1255 c 0,18,19
 967.5 1308 967.5 1308 1079.1 1308 c 0,20,21
 1143.9 1308 1143.9 1308 1202.4 1292 c 0,22,23
 1261.8 1275 1261.8 1275 1317.6 1242 c 1,24,-1
 1317.6 1023 l 1,25,-1
 1232.1 1023 l 1,26,27
 1232.1 1119 1232.1 1119 1188 1164 c 0,28,29
 1149.3 1209 1149.3 1209 1075.5 1209 c 0,30,31
 993.6 1209 993.6 1209 954 1148 c 0,32,33
 916.2 1087 916.2 1087 916.2 957 c 2,34,-1
 916.2 725 l 1,35,-1
 819.9 725 l 1,36,37
 801 865 801 865 738 929 c 0,38,39
 674.1 993 674.1 993 556.2 993 c 0,40,41
 422.1 993 422.1 993 353.7 878 c 0,42,43
 285.3 762 285.3 762 285.3 532 c 0,44,45
 285.3 302 285.3 302 352.8 186 c 0,46,47
 421.2 70 421.2 70 556.2 70 c 0,48,49
 663.3 70 663.3 70 727.2 132 c 0,50,51
 791.1 194 791.1 194 814.5 319 c 1,52,-1
 947.7 319 l 1,0,1
EndSplineSet
EndChar
StartChar: uni018A
Encoding: 394 394 394
Width: 1477
Flags: W
AnchorPoint: "above" 668.7 1465 basechar 0
Fore
272.7 1386 m 0,0,1
 68.4004 1386 68.4004 1386 7.2002 1297 c 0,2,3
 -56.7002 1206 -56.7002 1206 -56.7002 1020 c 1,4,-1
 -172.8 1020 l 1,5,-1
 -172.8 1364 l 1,6,7
 -48.5996 1467 -48.5996 1467 81 1476 c 0,8,9
 165.6 1493 165.6 1493 272.7 1493 c 2,10,-1
 636.3 1493 l 2,11,12
 983.7 1493 983.7 1493 1177.2 1296 c 0,13,14
 1371.6 1099 1371.6 1099 1371.6 748 c 0,15,16
 1371.6 396 1371.6 396 1177.2 198 c 128,-1,17
 982.8 0 982.8 0 636.3 0 c 2,18,-1
 101.7 0 l 1,19,-1
 101.7 106 l 1,20,-1
 272.7 106 l 1,21,-1
 272.7 1386 l 0,0,1
455.4 106 m 1,22,-1
 622.8 106 l 2,23,24
 884.7 106 884.7 106 1024.2 272 c 0,25,26
 1164.6 438 1164.6 438 1164.6 748 c 128,-1,27
 1164.6 1058 1164.6 1058 1025.1 1222 c 128,-1,28
 885.6 1386 885.6 1386 622.8 1386 c 2,29,-1
 455.4 1386 l 1,30,-1
 455.4 106 l 1,22,-1
EndSplineSet
EndChar
StartChar: uni018B
Encoding: 395 395 395
Width: 1354
Flags: W
Fore
888.3 106 m 1,0,-1
 888.3 756 l 1,1,-1
 619.2 756 l 2,2,3
 456.3 756 456.3 756 381.6 678 c 0,4,5
 307.8 601 307.8 601 307.8 432 c 0,6,7
 307.8 262 307.8 262 382.5 184 c 128,-1,8
 457.2 106 457.2 106 619.2 106 c 2,9,-1
 888.3 106 l 1,0,-1
1242 1493 m 1,10,-1
 1242 1386 l 1,11,-1
 1071 1386 l 1,12,-1
 1071 106 l 1,13,-1
 1242 106 l 1,14,-1
 1242 0 l 1,15,-1
 621 0 l 2,16,17
 353.7 0 353.7 0 227.7 105 c 128,-1,18
 101.7 210 101.7 210 101.7 432 c 0,19,20
 101.7 576 101.7 576 189.9 694 c 1,21,22
 317.7 862 317.7 862 659.7 862 c 2,23,-1
 888.3 862 l 1,24,-1
 888.3 1370 l 1,25,-1
 271.8 1370 l 1,26,-1
 271.8 1161 l 1,27,-1
 161.1 1161 l 1,28,-1
 161.1 1493 l 1,29,-1
 1242 1493 l 1,10,-1
EndSplineSet
EndChar
StartChar: uni018C
Encoding: 396 396 396
Width: 1179
Flags: W
Fore
762.3 479 m 2,0,-1
 762.3 584 l 2,1,2
 762.3 775 762.3 775 696.6 876 c 0,3,4
 630 977 630 977 504 977 c 0,5,6
 377.1 977 377.1 977 311.4 865 c 0,7,8
 246.6 753 246.6 753 246.6 532 c 0,9,10
 246.6 312 246.6 312 311.4 199 c 0,11,12
 377.1 86 377.1 86 504 86 c 0,13,14
 630 86 630 86 696.6 186 c 0,15,16
 762.3 287 762.3 287 762.3 479 c 2,0,-1
229.5 1556 m 1,17,-1
 1087.2 1556 l 1,18,-1
 1087.2 1450 l 1,19,-1
 927.9 1450 l 1,20,-1
 927.9 106 l 1,21,-1
 1087.2 106 l 1,22,-1
 1087.2 0 l 1,23,-1
 762.3 0 l 1,24,-1
 762.3 166 l 1,25,26
 713.7 66 713.7 66 639 18 c 0,27,28
 563.4 -29 563.4 -29 452.7 -29 c 0,29,30
 276.3 -29 276.3 -29 164.7 126 c 0,31,32
 53.0996 282 53.0996 282 53.0996 532 c 0,33,34
 53.0996 782 53.0996 782 164.7 937 c 0,35,36
 276.3 1092 276.3 1092 452.7 1092 c 0,37,38
 563.4 1092 563.4 1092 639 1044 c 0,39,40
 713.7 997 713.7 997 762.3 897 c 1,41,-1
 762.3 1433 l 1,42,-1
 324 1433 l 1,43,-1
 324 1289 l 1,44,-1
 229.5 1289 l 1,45,-1
 229.5 1556 l 1,17,-1
EndSplineSet
EndChar
StartChar: uni018D
Encoding: 397 397 397
Width: 1109
Flags: W
Fore
779.4 27 m 1,0,1
 838.8 2 838.8 2 868.5 -47 c 0,2,3
 902.7 -103 902.7 -103 902.7 -240 c 0,4,5
 902.7 -369 902.7 -369 814.5 -437 c 0,6,7
 726.3 -504 726.3 -504 549.9 -504 c 0,8,9
 501.3 -504 501.3 -504 407.7 -488 c 0,10,11
 314.1 -471 314.1 -471 213.3 -440 c 1,12,-1
 213.3 -243 l 1,13,-1
 310.5 -218 l 1,14,15
 321.3 -307 321.3 -307 386.1 -353 c 0,16,17
 450.9 -398 450.9 -398 535.5 -398 c 128,-1,18
 620.1 -398 620.1 -398 682.2 -349 c 0,19,20
 747.9 -297 747.9 -297 745.2 -231 c 0,21,22
 745.2 -136 745.2 -136 711.9 -104 c 0,23,24
 642.6 -29 642.6 -29 554.4 -29 c 16,25,26
 344.7 -29 344.7 -29 217.8 124 c 0,27,28
 91.7998 277 91.7998 277 91.7998 531 c 128,-1,29
 91.7998 785 91.7998 785 217.8 938 c 0,30,31
 344.7 1092 344.7 1092 554.4 1092 c 0,32,33
 763.2 1092 763.2 1092 890.1 938 c 0,34,35
 1017 785 1017 785 1017 531 c 128,-1,36
 1017 277 1017 277 891 124 c 0,37,38
 834.3 57 834.3 57 779.4 27 c 1,0,1
554.4 993 m 0,39,40
 421.2 993 421.2 993 352.8 876 c 0,41,42
 285.3 759 285.3 759 285.3 531 c 128,-1,43
 285.3 303 285.3 303 352.8 186 c 0,44,45
 421.2 70 421.2 70 554.4 70 c 128,-1,46
 687.6 70 687.6 70 756 186 c 0,47,48
 823.5 303 823.5 303 823.5 531 c 128,-1,49
 823.5 759 823.5 759 755.1 876 c 128,-1,50
 686.7 993 686.7 993 554.4 993 c 0,39,40
EndSplineSet
EndChar
StartChar: uni018E
Encoding: 398 398 398
Width: 1345
Flags: W
AnchorPoint: "above" 626.4 1465 basechar 0
Fore
1197.9 0 m 1,0,-1
 101.7 0 l 1,1,-1
 101.7 332 l 1,2,-1
 212.4 332 l 1,3,-1
 212.4 123 l 1,4,-1
 844.2 123 l 1,5,-1
 844.2 748 l 1,6,-1
 404.1 748 l 1,7,-1
 404.1 561 l 1,8,-1
 293.4 561 l 1,9,-1
 293.4 1057 l 1,10,-1
 404.1 1057 l 1,11,-1
 404.1 870 l 1,12,-1
 844.2 870 l 1,13,-1
 844.2 1370 l 1,14,-1
 226.8 1370 l 1,15,-1
 226.8 1161 l 1,16,-1
 116.1 1161 l 1,17,-1
 116.1 1493 l 1,18,-1
 1197.9 1493 l 1,19,-1
 1197.9 1386 l 1,20,-1
 1026.9 1386 l 1,21,-1
 1026.9 106 l 1,22,-1
 1197.9 106 l 1,23,-1
 1197.9 0 l 1,0,-1
EndSplineSet
EndChar
StartChar: uni018F
Encoding: 399 399 399
Width: 1511
Flags: W
Fore
765.9 1413 m 24,0,1
 605.7 1413 605.7 1413 508.5 1334 c 0,2,3
 411.3 1254 411.3 1254 368.1 1096 c 1,4,-1
 202.5 1096 l 1,5,6
 261.9 1305 261.9 1305 401.4 1412 c 0,7,8
 541.8 1520 541.8 1520 756 1520 c 24,9,10
 1048.5 1520 1048.5 1520 1228.5 1307 c 128,-1,11
 1408.5 1094 1408.5 1094 1408.5 745 c 0,12,13
 1408.5 566 1408.5 566 1359 422 c 0,14,15
 1309.5 280 1309.5 280 1208.7 168 c 0,16,17
 1119.6 70 1119.6 70 1007.1 20 c 0,18,19
 893.7 -29 893.7 -29 756 -29 c 0,20,21
 619.2 -29 619.2 -29 504 21 c 0,22,23
 389.7 71 389.7 71 302.4 168 c 0,24,25
 201.6 280 201.6 280 153 422 c 0,26,27
 103.5 564 103.5 564 103.5 745 c 2,28,-1
 103.5 816 l 1,29,-1
 1199.7 816 l 1,30,31
 1199.7 1095 1199.7 1095 1089 1244 c 0,32,33
 976.5 1413 976.5 1413 765.9 1413 c 24,0,1
1200.6 694 m 1,34,-1
 310.5 694 l 1,35,36
 310.5 402 310.5 402 422.1 246 c 0,37,38
 534.6 78 534.6 78 756 78 c 0,39,40
 976.5 78 976.5 78 1089 246 c 0,41,42
 1200.6 402 1200.6 402 1200.6 694 c 1,34,-1
EndSplineSet
EndChar
StartChar: uni0190
Encoding: 400 400 400
Width: 1148
Flags: W
AnchorPoint: "below" 603 0 basechar 0
AnchorPoint: "above" 603 1465 basechar 0
Fore
1032.3 1430 m 1,0,-1
 1032.3 1167 l 1,1,-1
 931.5 1167 l 1,2,3
 919.8 1293 919.8 1293 852.75 1357 c 128,-1,4
 785.7 1421 785.7 1421 632.7 1421 c 0,5,6
 479.7 1421 479.7 1421 414.9 1351.5 c 128,-1,7
 350.1 1282 350.1 1282 350.1 1143.5 c 0,8,9
 350.1 1005 350.1 1005 427.764 933.5 c 128,-1,10
 505.428 862 505.428 862 702 862 c 2,11,-1
 747 862 l 1,12,-1
 747 756 l 1,13,-1
 661.5 756 l 2,14,15
 464.39 756 464.39 756 383.395 666.5 c 128,-1,16
 302.4 577 302.4 577 302.4 412 c 0,17,18
 302.4 247 302.4 247 382.05 158.5 c 128,-1,19
 461.7 70 461.7 70 584.609 70 c 0,20,21
 707.519 70 707.519 70 791.938 139.048 c 128,-1,22
 876.359 208.095 876.359 208.095 882.9 265 c 1,23,-1
 1048.5 265 l 1,24,25
 1014.68 160.022 1014.68 160.022 906.246 65.5107 c 128,-1,26
 797.822 -29 797.822 -29 581.61 -29 c 0,27,28
 365.4 -29 365.4 -29 238.95 82.5 c 128,-1,29
 112.5 194 112.5 194 112.5 403 c 0,30,31
 112.5 574 112.5 574 203.85 681.5 c 128,-1,32
 295.2 789 295.2 789 460.8 815 c 1,33,34
 320.4 847 320.4 847 243.9 937.5 c 128,-1,35
 167.4 1028 167.4 1028 167.4 1163 c 0,36,37
 167.4 1331 167.4 1331 278.1 1425.5 c 128,-1,38
 388.8 1520 388.8 1520 630.9 1520 c 0,39,40
 816.914 1520 816.914 1520 1032.3 1430 c 1,0,-1
EndSplineSet
EndChar
StartChar: uni0191
Encoding: 401 401 401
Width: 1278
Flags: W
Fore
79.2002 -426 m 0,0,1
 -51.2998 -426 -51.2998 -426 -182.7 -358 c 1,2,-1
 -182.7 -123 l 1,3,-1
 -80.0996 -123 l 1,4,5
 -80.0996 -319 -80.0996 -319 81 -319 c 0,6,7
 188.1 -319 188.1 -319 230.4 -244 c 0,8,9
 273.6 -167 273.6 -167 272.7 49 c 2,10,-1
 272.7 1386 l 1,11,-1
 101.7 1386 l 1,12,-1
 101.7 1493 l 1,13,-1
 1201.5 1493 l 1,14,-1
 1201.5 1161 l 1,15,-1
 1090.8 1161 l 1,16,-1
 1090.8 1370 l 1,17,-1
 455.4 1370 l 1,18,-1
 455.4 870 l 1,19,-1
 914.4 870 l 1,20,-1
 914.4 1057 l 1,21,-1
 1025.1 1057 l 1,22,-1
 1025.1 561 l 1,23,-1
 914.4 561 l 1,24,-1
 914.4 748 l 1,25,-1
 455.4 748 l 1,26,-1
 455.4 41 l 2,27,28
 455.4 -272 455.4 -272 306 -371 c 0,29,30
 222.3 -426 222.3 -426 79.2002 -426 c 0,0,1
EndSplineSet
EndChar
StartChar: florin
Encoding: 402 402 402
Width: 682
Flags: W
Fore
792.9 1305 m 1,0,-1
 705.6 1305 l 1,1,2
 705.6 1326 705.6 1326 702 1345 c 0,3,4
 693.9 1391 693.9 1391 667.8 1419 c 0,5,6
 630 1458 630 1458 558.9 1458 c 0,7,8
 466.2 1458 466.2 1458 428.4 1402 c 0,9,10
 390.6 1345 390.6 1345 390.6 1200 c 2,11,-1
 390.6 1063 l 1,12,-1
 657.9 1063 l 1,13,-1
 657.9 956 l 1,14,-1
 390.6 956 l 1,15,-1
 390.6 -19 l 2,16,17
 390.6 -197 390.6 -197 307.8 -288 c 0,18,19
 224.1 -379 224.1 -379 63 -379 c 0,20,21
 2.7002 -379 2.7002 -379 -57.5996 -367 c 0,22,23
 -117.9 -355 -117.9 -355 -177.3 -330 c 1,24,-1
 -177.3 -128 l 1,25,-1
 -90 -128 l 1,26,27
 -90 -149 -90 -149 -86.4004 -168 c 0,28,29
 -78.2998 -214 -78.2998 -214 -52.2002 -242 c 0,30,31
 -14.4004 -281 -14.4004 -281 56.7002 -281 c 0,32,33
 149.4 -281 149.4 -281 187.2 -224 c 0,34,35
 225 -168 225 -168 225 -19 c 2,36,-1
 225 956 l 1,37,-1
 66.5996 956 l 1,38,-1
 66.5996 1063 l 1,39,-1
 225 1063 l 1,40,-1
 225 1196 l 2,41,42
 225 1374 225 1374 307.8 1465 c 0,43,44
 391.5 1556 391.5 1556 552.6 1556 c 0,45,46
 612.9 1556 612.9 1556 673.2 1544 c 0,47,48
 733.5 1532 733.5 1532 792.9 1507 c 1,49,-1
 792.9 1305 l 1,0,-1
EndSplineSet
EndChar
StartChar: uni0193
Encoding: 403 403 403
Width: 1472
Flags: W
AnchorPoint: "above" 770.4 1465 basechar 0
Fore
1440 1531 m 0,0,1
 1327.5 1531 1327.5 1531 1295.1 1413 c 0,2,3
 1280.7 1359 1280.7 1359 1280.7 1279 c 2,4,-1
 1280.7 1047 l 1,5,-1
 1179 1047 l 1,6,-1
 1179 1052 l 2,7,8
 1132.2 1319 1132.2 1319 938.7 1387 c 0,9,10
 865.8 1413 865.8 1413 770.4 1413 c 0,11,12
 538.2 1413 538.2 1413 423.9 1247 c 0,13,14
 309.6 1081 309.6 1081 309.6 745 c 0,15,16
 309.6 215 309.6 215 608.4 105 c 0,17,18
 683.1 78 683.1 78 774 78 c 0,19,20
 977.4 78 977.4 78 1144.8 190 c 1,21,-1
 1144.8 575 l 1,22,-1
 891.9 575 l 1,23,-1
 891.9 682 l 1,24,-1
 1327.5 682 l 1,25,-1
 1327.5 125 l 1,26,27
 1088.1 -29 1088.1 -29 774 -29 c 0,28,29
 469.8 -29 469.8 -29 286.2 182 c 0,30,31
 103.5 394 103.5 394 103.5 745 c 0,32,33
 103.5 1099 103.5 1099 287.1 1310 c 0,34,35
 470.7 1520 470.7 1520 781.2 1520 c 0,36,37
 972 1520 972 1520 1196.1 1436 c 1,38,39
 1218.6 1513 1218.6 1513 1273.5 1570 c 0,40,41
 1331.1 1630 1331.1 1630 1443.6 1630 c 0,42,43
 1570.5 1630 1570.5 1630 1682.1 1564 c 1,44,-1
 1682.1 1345 l 1,45,-1
 1596.6 1345 l 1,46,47
 1596.6 1492 1596.6 1492 1497.6 1522 c 0,48,49
 1472.4 1531 1472.4 1531 1440 1531 c 0,0,1
EndSplineSet
EndChar
StartChar: uni0194
Encoding: 404 404 404
Width: 1312
Flags: W
Fore
552.6 733 m 0,0,-1
 160.2 1386 l 1,1,-1
 16.2002 1386 l 1,2,-1
 16.2002 1493 l 1,3,-1
 549 1493 l 1,4,-1
 549 1386 l 1,5,-1
 390.6 1386 l 1,6,-1
 678.6 905 l 1,7,-1
 974.7 1386 l 1,8,-1
 801.9 1386 l 1,9,-1
 801.9 1493 l 1,10,-1
 1242 1493 l 1,11,-1
 1242 1386 l 1,12,-1
 1090.8 1386 l 1,13,-1
 735.3 811 l 0,14,15
 1234.8 126 1234.8 126 1069.2 -44 c 0,16,17
 928.8 -188 928.8 -188 612 -188 c 16,18,19
 292.5 -188 292.5 -188 237.6 12 c 0,20,21
 187.2 193 187.2 193 552.6 733 c 0,0,-1
612 636 m 1,22,23
 352.8 258 352.8 258 352.8 56 c 24,24,25
 352.8 -82 352.8 -82 612 -82 c 16,26,27
 856.8 -82 856.8 -82 856.8 56 c 16,28,29
 856.8 268 856.8 268 612 636 c 1,22,23
EndSplineSet
EndChar
StartChar: uni0195
Encoding: 405 405 405
Width: 1718
Flags: W
Fore
75.5996 0 m 1,0,-1
 75.5996 106 l 1,1,-1
 225 106 l 1,2,-1
 225 1450 l 1,3,-1
 66.5996 1450 l 1,4,-1
 66.5996 1556 l 1,5,-1
 390.6 1556 l 1,6,-1
 390.6 874 l 1,7,8
 436.5 982 436.5 982 509.4 1037 c 0,9,10
 583.2 1092 583.2 1092 680.4 1092 c 0,11,12
 840.6 1092 840.6 1092 913.5 991 c 0,13,14
 988.2 888 988.2 888 988.2 676 c 2,15,-1
 988.2 351 l 2,16,17
 988.2 220 988.2 220 1026 160 c 0,18,19
 1064.7 100 1064.7 100 1147.5 99 c 0,20,21
 1260 99 1260 99 1360.8 229 c 0,22,23
 1442.7 336 1442.7 336 1442.7 526 c 0,24,25
 1442.7 680 1442.7 680 1387.8 783 c 0,26,27
 1332.9 885 1332.9 885 1226.7 931 c 1,28,-1
 1226.7 990 l 1,29,-1
 1327.5 990 l 1,30,31
 1466.1 926 1466.1 926 1546.2 797 c 0,32,33
 1627.2 667 1627.2 667 1627.2 510 c 0,34,35
 1627.2 399 1627.2 399 1589.4 303 c 0,36,37
 1550.7 205 1550.7 205 1477.8 131 c 0,38,39
 1413 64 1413 64 1328.4 29 c 0,40,41
 1242.9 -7 1242.9 -7 1147.5 -7 c 0,42,43
 999.9 -7 999.9 -7 905.4 94 c 0,44,45
 821.7 177 821.7 177 821.7 351 c 2,46,-1
 821.7 618 l 2,47,48
 821.7 813 821.7 813 779.4 884 c 0,49,50
 736.2 956 736.2 956 626.4 956 c 0,51,52
 511.2 956 511.2 956 450.9 863 c 0,53,54
 390.6 770 390.6 770 390.6 592 c 2,55,-1
 390.6 106 l 1,56,-1
 534.6 106 l 1,57,-1
 534.6 0 l 1,58,-1
 75.5996 0 l 1,0,-1
EndSplineSet
EndChar
StartChar: uni0196
Encoding: 406 406 406
Width: 728
Flags: W
Fore
455.4 351 m 2,0,1
 455.4 220 455.4 220 493.2 160 c 0,2,3
 532.8 99 532.8 99 614.7 99 c 2,4,-1
 626.4 99 l 1,5,-1
 626.4 0 l 1,6,-1
 614.7 0 l 1,7,8
 433.8 0 433.8 0 378 54 c 0,9,10
 272.7 155 272.7 155 272.7 351 c 2,11,-1
 272.7 1386 l 1,12,-1
 101.7 1386 l 1,13,-1
 101.7 1493 l 1,14,-1
 626.4 1493 l 1,15,-1
 626.4 1386 l 1,16,-1
 455.4 1386 l 1,17,-1
 455.4 351 l 2,0,1
EndSplineSet
EndChar
StartChar: uni0197
Encoding: 407 407 407
Width: 728
Flags: W
Fore
455.4 106 m 1,0,-1
 626.4 106 l 1,1,-1
 626.4 0 l 1,2,-1
 101.7 0 l 1,3,-1
 101.7 106 l 1,4,-1
 272.7 106 l 1,5,-1
 272.7 628 l 1,6,-1
 34.2002 628 l 1,7,-1
 34.2002 798 l 1,8,-1
 272.7 798 l 1,9,-1
 272.7 1386 l 1,10,-1
 101.7 1386 l 1,11,-1
 101.7 1493 l 1,12,-1
 626.4 1493 l 1,13,-1
 626.4 1386 l 1,14,-1
 455.4 1386 l 1,15,-1
 455.4 798 l 1,16,-1
 693.9 798 l 1,17,-1
 693.9 628 l 1,18,-1
 455.4 628 l 1,19,-1
 455.4 106 l 1,0,-1
EndSplineSet
EndChar
StartChar: uni0198
Encoding: 408 408 408
Width: 1377
Flags: W
Fore
1034.1 1386 m 2,0,1
 1168.2 1517 1168.2 1517 1279.8 1517 c 0,2,3
 1340.1 1517 1340.1 1517 1398.6 1500 c 0,4,5
 1462.5 1482 1462.5 1482 1513.8 1451 c 1,6,-1
 1513.8 1232 l 1,7,-1
 1428.3 1232 l 1,8,9
 1428.3 1328 1428.3 1328 1384.2 1373 c 0,10,11
 1350.9 1411 1350.9 1411 1296 1416 c 0,12,13
 1217.7 1416 1217.7 1416 1150.2 1356 c 2,14,-1
 606.6 823 l 1,15,-1
 1251.9 106 l 1,16,-1
 1404.9 106 l 1,17,-1
 1404.9 0 l 1,18,-1
 1092.6 0 l 1,19,-1
 455.4 709 l 1,20,-1
 455.4 106 l 1,21,-1
 626.4 106 l 1,22,-1
 626.4 0 l 1,23,-1
 101.7 0 l 1,24,-1
 101.7 106 l 1,25,-1
 272.7 106 l 1,26,-1
 272.7 1386 l 1,27,-1
 101.7 1386 l 1,28,-1
 101.7 1493 l 1,29,-1
 626.4 1493 l 1,30,-1
 626.4 1386 l 1,31,-1
 455.4 1386 l 1,32,-1
 455.4 821 l 1,33,-1
 1034.1 1386 l 2,0,1
EndSplineSet
EndChar
StartChar: uni0199
Encoding: 409 409 409
Width: 1116
Flags: W
Fore
378.9 543 m 1,0,-1
 781.2 956 l 1,1,-1
 643.5 956 l 1,2,-1
 643.5 1063 l 1,3,-1
 1076.4 1063 l 1,4,-1
 1076.4 956 l 1,5,-1
 912.6 956 l 1,6,-1
 628.2 664 l 1,7,-1
 991.8 106 l 1,8,-1
 1129.5 106 l 1,9,-1
 1129.5 0 l 1,10,-1
 657.9 0 l 1,11,-1
 657.9 106 l 1,12,-1
 794.7 106 l 1,13,-1
 508.5 543 l 1,14,-1
 378 408 l 1,15,-1
 378 106 l 1,16,-1
 527.4 106 l 1,17,-1
 527.4 0 l 1,18,-1
 63 0 l 1,19,-1
 63 106 l 1,20,-1
 212.4 106 l 1,21,-1
 212.4 1205 l 2,22,23
 212.4 1367 212.4 1367 300.6 1462 c 0,24,25
 387.9 1556 387.9 1556 541.8 1556 c 0,26,27
 611.1 1556 611.1 1556 666 1540 c 0,28,29
 724.5 1523 724.5 1523 780.3 1490 c 1,30,-1
 780.3 1271 l 1,31,-1
 694.8 1271 l 1,32,33
 694.8 1367 694.8 1367 649.8 1412 c 0,34,35
 612 1457 612 1457 538.2 1457 c 0,36,37
 456.3 1457 456.3 1457 417.6 1396 c 0,38,39
 378.9 1337 378.9 1337 378.9 1205 c 2,40,-1
 378.9 543 l 1,0,-1
EndSplineSet
EndChar
StartChar: uni019A
Encoding: 410 410 410
Width: 589
Flags: W
Fore
54 464 m 1,0,-1
 54 570 l 1,1,-1
 212.4 570 l 1,2,-1
 212.4 1450 l 1,3,-1
 53.0996 1450 l 1,4,-1
 53.0996 1556 l 1,5,-1
 378 1556 l 1,6,-1
 378 570 l 1,7,-1
 534.6 570 l 1,8,-1
 534.6 464 l 1,9,-1
 378 464 l 1,10,-1
 378 106 l 1,11,-1
 534.6 106 l 1,12,-1
 534.6 0 l 1,13,-1
 53.0996 0 l 1,14,-1
 53.0996 106 l 1,15,-1
 212.4 106 l 1,16,-1
 212.4 464 l 1,17,-1
 54 464 l 1,0,-1
EndSplineSet
EndChar
StartChar: uni019B
Encoding: 411 411 411
Width: 1168
Flags: W
Fore
478.8 1307 m 2,0,1
 445.5 1399 445.5 1399 414.9 1429 c 0,2,3
 383.4 1460 383.4 1460 335.7 1460 c 0,4,5
 281.7 1460 281.7 1460 256.5 1431 c 0,6,7
 230.4 1401 230.4 1401 225 1333 c 1,8,-1
 140.4 1333 l 1,9,-1
 140.4 1536 l 1,10,11
 185.4 1551 185.4 1551 229.5 1559 c 0,12,13
 274.5 1567 274.5 1567 316.8 1567 c 0,14,15
 416.7 1567 416.7 1567 471.6 1521 c 0,16,17
 526.5 1476 526.5 1476 571.5 1352 c 1,18,-1
 703.8 1450 l 1,19,-1
 757.8 1364 l 1,20,-1
 607.5 1249 l 1,21,-1
 1009.8 107 l 1,22,-1
 1116.9 107 l 1,23,-1
 1116.9 0 l 1,24,-1
 757.8 0 l 1,25,-1
 757.8 107 l 1,26,-1
 900.9 107 l 1,27,-1
 646.2 841 l 1,28,-1
 362.7 107 l 1,29,-1
 515.7 107 l 1,30,-1
 515.7 0 l 1,31,-1
 75.5996 0 l 1,32,-1
 75.5996 107 l 1,33,-1
 184.5 107 l 1,34,-1
 556.2 1084 l 1,35,-1
 522 1183 l 1,36,-1
 281.7 996 l 1,37,-1
 226.8 1082 l 1,38,-1
 486 1285 l 1,39,-1
 478.8 1307 l 2,0,1
EndSplineSet
EndChar
StartChar: uni019C
Encoding: 412 412 412
Width: 1747
Flags: W
Fore
809.1 207 m 1,0,1
 761.4 90 761.4 90 687.15 30.5 c 128,-1,2
 612.9 -29 612.9 -29 513.9 -29 c 0,3,4
 364.553 -29 364.553 -29 289.8 74.5 c 0,5,6
 216 176.68 216 176.68 216 387 c 2,7,-1
 216 1389 l 1,8,-1
 66.5996 1389 l 1,9,-1
 66.5996 1495 l 1,10,-1
 525.6 1495 l 1,11,-1
 525.6 1389 l 1,12,-1
 381.6 1389 l 1,13,-1
 381.6 408 l 2,14,15
 381.6 245 381.6 245 424.8 176 c 128,-1,16
 468 107 468 107 567.9 107 c 0,17,18
 678.977 107 678.977 107 736.65 200 c 0,19,20
 794.7 293.607 794.7 293.607 794.7 471 c 2,21,-1
 794.7 1389 l 1,22,-1
 650.7 1389 l 1,23,-1
 650.7 1495 l 1,24,-1
 1104.3 1495 l 1,25,-1
 1104.3 1389 l 1,26,-1
 960.3 1389 l 1,27,-1
 960.3 401 l 2,28,29
 960.3 242.004 960.3 242.004 1003.5 174.5 c 128,-1,30
 1046.7 107 1046.7 107 1146.6 107 c 0,31,32
 1257.68 107 1257.68 107 1315.35 200 c 0,33,34
 1373.4 293.609 1373.4 293.609 1373.4 471 c 2,35,-1
 1373.4 1389 l 1,36,-1
 1229.4 1389 l 1,37,-1
 1229.4 1495 l 1,38,-1
 1688.4 1495 l 1,39,-1
 1688.4 1389 l 1,40,-1
 1539 1389 l 1,41,-1
 1539 105 l 1,42,-1
 1697.4 105 l 1,43,-1
 1697.4 0 l 1,44,-1
 1373.4 0 l 1,45,-1
 1373.4 189 l 1,46,47
 1327.5 83 1327.5 83 1256.4 27 c 128,-1,48
 1185.3 -29 1185.3 -29 1095.3 -29 c 0,49,50
 983.7 -29 983.7 -29 909 32.5 c 128,-1,51
 834.3 94 834.3 94 809.1 207 c 1,0,1
EndSplineSet
EndChar
StartChar: uni019D
Encoding: 413 413 413
Width: 1612
Flags: W
AnchorPoint: "above" 783.9 1475 basechar 0
Fore
-184.5 -358 m 1,0,-1
 -184.5 -123 l 1,1,-1
 -81.9004 -123 l 1,2,3
 -81.9004 -222 -81.9004 -222 -39.5996 -270 c 0,4,5
 0 -319 0 -319 79.2002 -319 c 0,6,7
 186.3 -319 186.3 -319 228.6 -244 c 0,8,9
 270.9 -169 270.9 -169 270.9 49 c 2,10,-1
 270.9 1386 l 1,11,-1
 90 1386 l 1,12,-1
 90 1493 l 1,13,-1
 434.7 1493 l 1,14,-1
 1240.2 315 l 1,15,-1
 1240.2 1386 l 1,16,-1
 1060.2 1386 l 1,17,-1
 1060.2 1493 l 1,18,-1
 1531.8 1493 l 1,19,-1
 1531.8 1386 l 1,20,-1
 1350.9 1386 l 1,21,-1
 1350.9 -29 l 1,22,-1
 1242 -29 l 1,23,-1
 382.5 1228 l 1,24,-1
 382.5 41 l 2,25,26
 382.5 -206 382.5 -206 293.4 -316 c 0,27,28
 204.3 -426 204.3 -426 31.5 -426 c 0,29,30
 13.5 -426 13.5 -426 -52.2002 -409 c 0,31,32
 -118.8 -392 -118.8 -392 -184.5 -358 c 1,0,-1
EndSplineSet
EndChar
StartChar: uni019E
Encoding: 414 414 414
Width: 1187
Flags: W
AnchorPoint: "above" 534.6 1092 basechar 0
Fore
75.5996 0 m 1,0,-1
 75.5996 106 l 1,1,-1
 225 106 l 1,2,-1
 225 956 l 1,3,-1
 66.5996 956 l 1,4,-1
 66.5996 1063 l 1,5,-1
 390.6 1063 l 1,6,-1
 390.6 874 l 1,7,8
 436.5 982 436.5 982 509.85 1037 c 128,-1,9
 583.2 1092 583.2 1092 680.4 1092 c 0,10,11
 838.8 1092 838.8 1092 913.5 991 c 128,-1,12
 988.2 890 988.2 890 988.2 676 c 2,13,-1
 988.2 -320 l 1,14,-1
 1135.8 -320 l 1,15,-1
 1135.8 -426 l 1,16,-1
 678.6 -426 l 1,17,-1
 678.6 -320 l 1,18,-1
 821.7 -320 l 1,19,-1
 821.7 618 l 2,20,21
 821.7 813 821.7 813 778.5 885.5 c 128,-1,22
 735.3 958 735.3 958 626.4 958 c 0,23,24
 511.2 958 511.2 958 450.9 864.5 c 128,-1,25
 390.6 771 390.6 771 390.6 592 c 2,26,-1
 390.6 106 l 1,27,-1
 534.6 106 l 1,28,-1
 534.6 0 l 1,29,-1
 75.5996 0 l 1,0,-1
EndSplineSet
EndChar
StartChar: uni019F
Encoding: 415 415 415
Width: 1511
Flags: W
AnchorPoint: "above" 756 1465 basechar 0
Fore
756 -29 m 0,0,1
 619.2 -29 619.2 -29 504.45 21 c 0,2,3
 389.7 71 389.7 71 302.4 168 c 0,4,5
 201.6 280 201.6 280 152.55 422 c 0,6,7
 103.5 564 103.5 564 103.5 745 c 0,8,9
 103.5 926 103.5 926 152.55 1068.5 c 0,10,11
 201.6 1211 201.6 1211 302.4 1323 c 0,12,13
 390.6 1421 390.6 1421 504 1470.5 c 0,14,15
 617.4 1520 617.4 1520 756 1520 c 0,16,17
 1048.5 1520 1048.5 1520 1228.5 1307 c 0,18,19
 1408.5 1094 1408.5 1094 1408.5 745 c 0,20,21
 1408.5 566 1408.5 566 1359 422.5 c 0,22,23
 1309.78 279.807 1309.78 279.807 1208.7 168 c 0,24,25
 1119.84 69.7139 1119.84 69.7139 1007.1 20.5 c 0,26,27
 893.7 -29 893.7 -29 756 -29 c 0,0,1
756 78 m 0,28,29
 976.5 78 976.5 78 1089 246.5 c 0,30,31
 1192.63 401.724 1192.63 401.724 1200.8 694 c 1,32,-1
 310.299 694 l 1,33,34
 318.464 401.724 318.464 401.724 422.1 246.5 c 0,35,36
 534.6 78 534.6 78 756 78 c 0,28,29
1200.13 816 m 1,37,38
 1189.1 1094.57 1189.1 1094.57 1089 1244.5 c 0,39,40
 976.5 1413 976.5 1413 756 1413 c 0,41,42
 534.6 1413 534.6 1413 422.1 1244.5 c 0,43,44
 322.001 1094.57 322.001 1094.57 310.967 816 c 1,45,-1
 1200.13 816 l 1,37,38
EndSplineSet
EndChar
StartChar: uni01A2
Encoding: 418 418 418
Width: 1916
Flags: W
Fore
756 -29 m 0,0,1
 619.2 -29 619.2 -29 504.45 21 c 0,2,3
 389.7 71 389.7 71 302.4 168 c 0,4,5
 201.6 280 201.6 280 152.55 422 c 0,6,7
 103.5 564 103.5 564 103.5 745 c 0,8,9
 103.5 926 103.5 926 152.55 1068.5 c 0,10,11
 201.6 1211 201.6 1211 302.4 1323 c 0,12,13
 390.6 1421 390.6 1421 504 1470.5 c 0,14,15
 617.4 1520 617.4 1520 756 1520 c 0,16,17
 939.366 1520 939.366 1520 1078.52 1436.29 c 1,18,19
 1132.88 1461.95 1132.88 1461.95 1187.55 1476 c 0,20,21
 1253.7 1493 1253.7 1493 1317.6 1493 c 0,22,23
 1515.6 1493 1515.6 1493 1604.7 1383 c 0,24,25
 1693.8 1273 1693.8 1273 1693.8 1026 c 2,26,-1
 1693.8 -214 l 1,27,-1
 1864.8 -214 l 1,28,-1
 1864.8 -321 l 1,29,-1
 1302.3 -321 l 1,30,-1
 1302.3 -214 l 1,31,-1
 1511.1 -214 l 1,32,-1
 1511.1 1018 l 2,33,34
 1511.1 1236 1511.1 1236 1468.8 1311 c 0,35,36
 1426.5 1386 1426.5 1386 1319.4 1386 c 0,37,38
 1240.43 1386 1240.43 1386 1200.83 1337.79 c 1,39,40
 1214.98 1322.99 1214.98 1322.99 1228.5 1307 c 0,41,42
 1408.5 1094 1408.5 1094 1408.5 745 c 0,43,44
 1408.5 566 1408.5 566 1359 422.5 c 0,45,46
 1309.78 279.807 1309.78 279.807 1208.7 168 c 0,47,48
 1119.84 69.7139 1119.84 69.7139 1007.1 20.5 c 0,49,50
 893.7 -29 893.7 -29 756 -29 c 0,0,1
756 78 m 0,51,52
 976.5 78 976.5 78 1089 246.5 c 0,53,54
 1201.5 415 1201.5 415 1201.5 745 c 0,55,56
 1201.5 1076 1201.5 1076 1089 1244.5 c 0,57,58
 976.5 1413 976.5 1413 756 1413 c 0,59,60
 534.6 1413 534.6 1413 422.1 1244.5 c 0,61,62
 309.6 1076 309.6 1076 309.6 745 c 0,63,64
 309.6 415 309.6 415 422.1 246.5 c 0,65,66
 534.6 78 534.6 78 756 78 c 0,51,52
EndSplineSet
EndChar
StartChar: uni01A3
Encoding: 419 419 419
Width: 1487
Flags: W
Fore
782.237 1033.3 m 1,0,1
 782.319 1035.35 782.319 1035.35 822.15 1046.5 c 0,2,3
 881.1 1063 881.1 1063 945.9 1063 c 0,4,5
 1099.8 1063 1099.8 1063 1187.55 969.5 c 128,-1,6
 1275.3 875.994 1275.3 875.994 1275.3 712 c 2,7,-1
 1275.3 -319 l 1,8,-1
 1433.7 -319 l 1,9,-1
 1433.7 -426 l 1,10,-1
 953.1 -426 l 1,11,-1
 953.1 -319 l 1,12,-1
 1109.7 -319 l 1,13,-1
 1109.7 712 l 2,14,15
 1109.7 841 1109.7 841 1070.55 902.5 c 128,-1,16
 1031.4 964 1031.4 964 949.5 964 c 0,17,18
 891.423 964 891.423 964 880.335 950.956 c 0,19,-1
 890.55 939 l 0,20,21
 1017 786 1017 786 1017 532 c 128,-1,22
 1017 278 1017 278 890.55 124.5 c 128,-1,23
 764.1 -29 764.1 -29 554.4 -29 c 0,24,25
 345.6 -29 345.6 -29 218.7 124.5 c 128,-1,26
 91.7998 278 91.7998 278 91.7998 532 c 128,-1,27
 91.7998 786 91.7998 786 218.25 939 c 128,-1,28
 344.7 1092 344.7 1092 554.4 1092 c 0,29,30
 684.289 1092 684.289 1092 782.237 1033.3 c 1,0,1
554.4 70 m 0,31,32
 687.6 70 687.6 70 755.55 187 c 128,-1,33
 823.5 304 823.5 304 823.5 532 c 128,-1,34
 823.5 760 823.5 760 755.55 876.5 c 128,-1,35
 687.6 993 687.6 993 554.4 993 c 128,-1,36
 421.2 993 421.2 993 353.25 876.5 c 128,-1,37
 285.3 760 285.3 760 285.3 532 c 128,-1,38
 285.3 304 285.3 304 353.7 187 c 128,-1,39
 422.1 70 422.1 70 554.4 70 c 0,31,32
EndSplineSet
EndChar
StartChar: uni01A4
Encoding: 420 420 420
Width: 1240
Flags: W
Fore
272.7 1493 m 2,0,-1
 737.1 1493 l 2,1,2
 938.7 1493 938.7 1493 1056.6 1380 c 0,3,4
 1174.5 1266 1174.5 1266 1174.5 1073 c 0,5,6
 1174.5 881 1174.5 881 1056.6 767 c 128,-1,7
 938.7 653 938.7 653 737.1 653 c 2,8,-1
 455.4 653 l 1,9,-1
 455.4 106 l 1,10,-1
 663.3 106 l 1,11,-1
 663.3 0 l 1,12,-1
 101.7 0 l 1,13,-1
 101.7 106 l 1,14,-1
 272.7 106 l 1,15,-1
 272.7 1386 l 0,16,17
 68.4004 1386 68.4004 1386 7.2002 1297 c 0,18,19
 -56.7002 1206 -56.7002 1206 -56.7002 1020 c 1,20,-1
 -172.8 1020 l 1,21,-1
 -172.8 1364 l 1,22,23
 -84.5996 1437 -84.5996 1437 81 1476 c 0,24,25
 184.5 1493 184.5 1493 272.7 1493 c 2,0,-1
455.4 760 m 1,26,-1
 693 760 l 2,27,28
 827.1 760 827.1 760 897.3 840 c 0,29,30
 967.5 921 967.5 921 967.5 1073 c 0,31,32
 967.5 1226 967.5 1226 897.3 1306 c 128,-1,33
 827.1 1386 827.1 1386 693 1386 c 2,34,-1
 455.4 1386 l 1,35,-1
 455.4 760 l 1,26,-1
EndSplineSet
EndChar
StartChar: uni01A5
Encoding: 421 421 421
Width: 1179
Flags: W
Fore
378 584 m 2,0,-1
 378 479 l 2,1,2
 378 287 378 287 444.6 186 c 0,3,4
 510.3 86 510.3 86 636.3 86 c 0,5,6
 763.2 86 763.2 86 828 199 c 0,7,8
 893.7 312 893.7 312 893.7 532 c 0,9,10
 893.7 753 893.7 753 828 865 c 0,11,12
 763.2 977 763.2 977 636.3 977 c 0,13,14
 510.3 977 510.3 977 444.6 876 c 0,15,16
 378 775 378 775 378 584 c 2,0,-1
211.5 1115 m 2,17,18
 211.5 1281 211.5 1281 298.8 1373 c 0,19,20
 387 1466 387 1466 540.9 1466 c 0,21,22
 601.2 1466 601.2 1466 664.2 1449 c 0,23,24
 723.6 1433 723.6 1433 779.4 1400 c 1,25,-1
 779.4 1181 l 1,26,-1
 693.9 1181 l 1,27,28
 693.9 1277 693.9 1277 649.8 1322 c 0,29,30
 611.1 1367 611.1 1367 537.3 1367 c 0,31,32
 455.4 1367 455.4 1367 415.8 1305 c 0,33,34
 378 1245 378 1245 378 1115 c 2,35,-1
 378 897 l 1,36,37
 426.6 997 426.6 997 502.2 1044 c 0,38,39
 576.9 1092 576.9 1092 687.6 1092 c 0,40,41
 864 1092 864 1092 975.6 937 c 0,42,43
 1087.2 782 1087.2 782 1087.2 532 c 0,44,45
 1087.2 282 1087.2 282 975.6 126 c 0,46,47
 864 -29 864 -29 687.6 -29 c 0,48,49
 576.9 -29 576.9 -29 502.2 18 c 0,50,51
 426.6 66 426.6 66 378 166 c 1,52,-1
 378 -319 l 1,53,-1
 534.6 -319 l 1,54,-1
 534.6 -426 l 1,55,-1
 53.0996 -426 l 1,56,-1
 53.0996 -319 l 1,57,-1
 211.5 -319 l 1,58,-1
 211.5 1115 l 2,17,18
EndSplineSet
EndChar
StartChar: uni01A6
Encoding: 422 422 422
Width: 1387
Flags: W
Fore
272.7 1386 m 1,0,-1
 101.7 1386 l 1,1,-1
 101.7 1493 l 1,2,-1
 645.3 1493 l 1,3,-1
 645.3 1386 l 1,4,-1
 455.4 1386 l 1,5,-1
 455.4 1168 l 1,6,-1
 783 1168 l 2,7,8
 979.2 1168 979.2 1168 1085.85 1064 c 128,-1,9
 1192.5 960 1192.5 960 1192.5 769 c 0,10,11
 1192.5 615 1192.5 615 1114.65 526.5 c 128,-1,12
 1036.8 438 1036.8 438 882.9 416 c 1,0,1
 945.9 397 945.9 397 991.35 351.5 c 0,2,3
 1036.53 306.27 1036.53 306.27 1072.8 224 c 2,4,-1
 1268.1 -219 l 1,5,-1
 1431.9 -219 l 1,6,-1
 1431.9 -325 l 1,7,-1
 1115.1 -325 l 1,8,-1
 905.4 150 l 2,9,10
 844.135 288.776 844.135 288.776 794.7 328.5 c 0,11,12
 744.3 369 744.3 369 656.1 369 c 2,13,-1
 455.4 369 l 1,14,-1
 455.4 106 l 1,15,-1
 645.3 106 l 1,16,-1
 645.3 0 l 1,17,-1
 101.7 0 l 1,18,-1
 101.7 106 l 1,19,-1
 272.7 106 l 1,20,-1
 272.7 1386 l 1,0,-1
455.4 476 m 1,28,-1
 720.9 476 l 2,29,30
 856.8 476 856.8 476 921.6 547.5 c 128,-1,31
 986.4 619 986.4 619 986.4 769 c 0,32,33
 986.4 919 986.4 919 921.6 990 c 128,-1,34
 856.8 1061 856.8 1061 720.9 1061 c 2,35,-1
 455.4 1061 l 1,36,-1
 455.4 476 l 1,28,-1
EndSplineSet
EndChar
StartChar: uni01A7
Encoding: 423 423 423
Width: 1262
Flags: W
AnchorPoint: "above" 631.8 1465 basechar 0
Fore
1111.5 72 m 1,0,1
 992.7 21 992.7 21 878.4 -4 c 0,2,3
 763.2 -29 763.2 -29 652.5 -29 c 0,4,5
 405 -29 405 -29 279.9 81 c 128,-1,6
 154.8 191 154.8 191 154.8 408 c 0,7,8
 154.8 567 154.8 567 232.2 662 c 0,9,10
 310.5 756 310.5 756 493.2 817 c 2,11,-1
 659.7 872 l 2,12,13
 840.6 932 840.6 932 896.4 993 c 128,-1,14
 952.2 1054 952.2 1054 952.2 1161 c 0,15,16
 952.2 1284 952.2 1284 878.4 1348 c 0,17,18
 803.7 1413 803.7 1413 661.5 1413 c 0,19,20
 498.6 1413 498.6 1413 419.4 1342 c 0,21,22
 339.3 1272 339.3 1272 324 1114 c 1,23,-1
 222.3 1114 l 1,24,-1
 222.3 1432 l 1,25,26
 348.3 1475 348.3 1475 459.9 1498 c 0,27,28
 571.5 1520 571.5 1520 665.1 1520 c 0,29,30
 884.7 1520 884.7 1520 1006.2 1415 c 128,-1,31
 1127.7 1310 1127.7 1310 1127.7 1120 c 0,32,33
 1127.7 951 1127.7 951 1049.4 854 c 0,34,35
 970.2 757 970.2 757 777.6 692 c 2,36,-1
 600.3 633 l 2,37,38
 436.5 578 436.5 578 385.2 520 c 0,39,40
 334.8 462 334.8 462 334.8 354 c 0,41,42
 334.8 219 334.8 219 419.4 148 c 0,43,44
 503.1 78 503.1 78 663.3 78 c 0,45,46
 835.2 78 835.2 78 919.8 160 c 0,47,48
 1003.5 241 1003.5 241 1008 412 c 1,49,-1
 1111.5 412 l 1,50,-1
 1111.5 72 l 1,0,1
EndSplineSet
EndChar
StartChar: uni01A8
Encoding: 424 424 424
Width: 945
Flags: W
AnchorPoint: "above" 473.4 1092 basechar 0
Fore
851.4 59 m 1,0,1
 763.2 15 763.2 15 675 -7 c 128,-1,2
 586.8 -29 586.8 -29 494.1 -29 c 0,3,4
 311.4 -29 311.4 -29 207 58 c 0,5,6
 103.5 144 103.5 144 103.5 295 c 0,7,8
 103.5 406 103.5 406 163.8 476 c 0,9,10
 223.2 547 223.2 547 359.1 594 c 2,11,-1
 490.5 639 l 2,12,13
 612 681 612 681 652.5 722 c 0,14,15
 693 762 693 762 693 829 c 0,16,17
 693 911 693 911 639 952 c 0,18,19
 585.9 993 585.9 993 481.5 993 c 0,20,21
 376.2 993 376.2 993 315 935 c 128,-1,22
 253.8 877 253.8 877 250.2 774 c 1,23,-1
 154.8 774 l 1,24,-1
 154.8 1006 l 1,25,26
 243.9 1048 243.9 1048 327.6 1070 c 128,-1,27
 411.3 1092 411.3 1092 486.9 1092 c 0,28,29
 657 1092 657 1092 753.3 1009 c 128,-1,30
 849.6 926 849.6 926 849.6 780 c 0,31,32
 849.6 678 849.6 678 793.8 612 c 0,33,34
 738.9 546 738.9 546 615.6 502 c 1,35,-1
 495.9 457 l 1,36,37
 358.2 408 358.2 408 315 365 c 0,38,39
 272.7 322 272.7 322 272.7 252 c 0,40,41
 272.7 163 272.7 163 331.2 116 c 0,42,43
 389.7 70 389.7 70 501.3 70 c 0,44,45
 625.5 70 625.5 70 689.4 129 c 0,46,47
 752.4 188 752.4 188 756 307 c 1,48,-1
 851.4 307 l 1,49,-1
 851.4 59 l 1,0,1
EndSplineSet
EndChar
StartChar: uni01AA
Encoding: 426 426 426
Width: 597
Flags: W
Fore
162.041 1459 m 0,0,1
 18.9414 1459 18.9414 1459 18.9414 1352 c 0,2,3
 18.9414 1229 18.9414 1229 298.842 1229 c 0,4,5
 311.441 1229 311.441 1229 324.041 1230 c 1,6,7
 331.241 1325 331.241 1325 283.541 1397 c 0,8,9
 242.142 1459 242.142 1459 162.041 1459 c 0,0,1
479.741 1333 m 1,10,11
 507.642 1394 507.642 1394 507.642 1489 c 2,12,-1
 507.642 1553 l 1,13,-1
 597.642 1553 l 1,14,-1
 596.741 1489 l 2,15,16
 594.041 1269 594.041 1269 484.241 1183 c 1,17,18
 404.142 643 404.142 643 306.941 -105 c 0,19,20
 292.541 -214 292.541 -214 345.642 -295 c 0,21,22
 384.342 -357 384.342 -357 466.241 -357 c 0,23,24
 540.041 -357 540.041 -357 578.741 -311 c 0,25,26
 616.541 -267 616.541 -267 622.842 -171 c 1,27,-1
 708.342 -171 l 1,28,-1
 708.342 -389 l 1,29,30
 652.541 -423 652.541 -423 594.041 -439 c 0,31,32
 534.642 -455 534.642 -455 469.842 -455 c 0,33,34
 315.941 -455 315.941 -455 228.642 -362 c 0,35,36
 120.642 -247 120.642 -247 140.441 -105 c 1,37,38
 135.941 -91 135.941 -91 310.541 1129 c 1,39,40
 306.041 1129 306.041 1129 302.441 1129 c 0,41,42
 -181.759 1129 -181.759 1129 -177.259 1359 c 0,43,44
 -173.658 1558 -173.658 1558 163.842 1558 c 0,45,46
 308.741 1558 308.741 1558 400.541 1465 c 0,47,48
 459.041 1404 459.041 1404 479.741 1333 c 1,10,11
EndSplineSet
EndChar
StartChar: uni01AB
Encoding: 427 427 427
Width: 740
Flags: W
Fore
198.9 956 m 1,0,-1
 53.0996 956 l 1,1,-1
 53.0996 1063 l 1,2,-1
 198.9 1063 l 1,3,-1
 198.9 1393 l 1,4,-1
 365.4 1393 l 1,5,-1
 365.4 1063 l 1,6,-1
 676.8 1063 l 1,7,-1
 676.8 956 l 1,8,-1
 365.4 956 l 1,9,-1
 365.4 281 l 2,10,11
 365.4 146 365.4 146 388.8 108 c 0,12,13
 412.2 70 412.2 70 475.2 70 c 0,14,15
 540 70 540 70 569.7 112.5 c 0,16,17
 599.4 155 599.4 155 601.2 250 c 1,18,-1
 726.3 250 l 1,19,-1
 726.3 -104 l 2,20,21
 726.3 -268 726.3 -268 638.55 -361.5 c 0,22,23
 550.8 -455 550.8 -455 396.9 -455 c 0,24,25
 332.1 -455 332.1 -455 273.15 -438.5 c 0,26,27
 214.2 -422 214.2 -422 158.4 -389 c 1,28,-1
 158.4 -170 l 1,29,-1
 243.9 -170 l 1,30,31
 250.2 -266 250.2 -266 288.45 -311 c 0,32,33
 326.7 -356 326.7 -356 400.5 -356 c 0,34,35
 482.372 -356 482.372 -356 521.55 -294.5 c 0,36,37
 559.8 -234.457 559.8 -234.457 559.8 -104 c 2,38,-1
 559.8 -16.8691 l 1,39,40
 516.329 -29 516.329 -29 460.8 -29 c 0,41,42
 317.7 -29 317.7 -29 258.3 41.5 c 0,43,44
 198.9 112 198.9 112 198.9 281 c 2,45,-1
 198.9 956 l 1,0,-1
EndSplineSet
EndChar
StartChar: uni01AC
Encoding: 428 428 428
Width: 1229
Flags: W
AnchorPoint: "above" 609.3 1465 basechar 0
Fore
523.8 1493 m 10,0,-1
 1211.4 1493 l 17,1,-1
 1211.4 1141 l 1,2,-1
 1100.7 1141 l 1,3,-1
 1100.7 1374 l 1,4,-1
 705.6 1374 l 1,5,-1
 705.6 106 l 1,6,-1
 877.5 106 l 1,7,-1
 877.5 0 l 1,8,-1
 351.9 0 l 1,9,-1
 351.9 106 l 1,10,-1
 523.8 106 l 1,11,-1
 523.8 1374 l 0,12,13
 319.5 1374 319.5 1374 257.4 1285 c 0,14,15
 194.4 1194 194.4 1194 194.4 1008 c 1,16,-1
 78.2998 1008 l 1,17,-1
 78.2998 1364 l 1,18,19
 170.1 1440 170.1 1440 332.1 1476 c 0,20,21
 440.1 1493 440.1 1493 523.8 1493 c 10,0,-1
EndSplineSet
EndChar
StartChar: uni01AD
Encoding: 429 429 429
Width: 740
Flags: W
Fore
365.4 1063 m 1,0,-1
 676.8 1063 l 1,1,-1
 676.8 956 l 1,2,-1
 365.4 956 l 1,3,-1
 365.4 281 l 2,4,5
 365.4 146 365.4 146 388.8 108 c 128,-1,6
 412.2 70 412.2 70 475.2 70 c 0,7,8
 540 70 540 70 569.7 112 c 0,9,10
 599.4 155 599.4 155 601.2 250 c 1,11,-1
 726.3 250 l 1,12,13
 726.3 105 726.3 105 655.2 38 c 0,14,15
 591.3 -29 591.3 -29 460.8 -29 c 0,16,17
 317.7 -29 317.7 -29 258.3 42 c 0,18,19
 198.9 112 198.9 112 198.9 281 c 2,20,-1
 198.9 956 l 1,21,-1
 53.0996 956 l 1,22,-1
 53.0996 1063 l 1,23,-1
 198.9 1063 l 1,24,-1
 198.9 1205 l 2,25,26
 198.9 1367 198.9 1367 287.1 1462 c 0,27,28
 374.4 1556 374.4 1556 528.3 1556 c 0,29,30
 597.6 1556 597.6 1556 652.5 1540 c 0,31,32
 711 1523 711 1523 766.8 1490 c 1,33,-1
 766.8 1271 l 1,34,-1
 681.3 1271 l 1,35,36
 681.3 1367 681.3 1367 636.3 1412 c 0,37,38
 598.5 1457 598.5 1457 524.7 1457 c 0,39,40
 442.8 1457 442.8 1457 404.1 1396 c 0,41,42
 365.4 1337 365.4 1337 365.4 1205 c 2,43,-1
 365.4 1063 l 1,0,-1
EndSplineSet
EndChar
StartChar: uni01AE
Encoding: 430 430 430
Width: 1229
Flags: W
Fore
1161 -358 m 1,0,1
 1095.3 -392 1095.3 -392 1029.6 -409 c 0,2,3
 963 -426 963 -426 899.1 -426 c 0,4,5
 701.1 -426 701.1 -426 612 -316 c 0,6,7
 522.9 -206 522.9 -206 523.8 41 c 2,8,-1
 523.8 1374 l 1,9,-1
 128.7 1374 l 1,10,-1
 128.7 1141 l 1,11,-1
 18 1141 l 1,12,-1
 18 1493 l 1,13,-1
 1211.4 1493 l 1,14,-1
 1211.4 1141 l 1,15,-1
 1100.7 1141 l 1,16,-1
 1100.7 1374 l 1,17,-1
 705.6 1374 l 1,18,-1
 705.6 49 l 2,19,20
 705.6 -166 705.6 -166 747.9 -244 c 0,21,22
 788.4 -319 788.4 -319 897.3 -319 c 0,23,24
 976.5 -319 976.5 -319 1016.1 -270 c 0,25,26
 1055.7 -222 1055.7 -222 1058.4 -123 c 1,27,-1
 1161 -123 l 1,28,-1
 1161 -358 l 1,0,1
EndSplineSet
EndChar
StartChar: uni01B1
Encoding: 433 433 433
Width: 1528
Flags: W
Fore
522 1356 m 1,0,-1
 219.6 1356 l 1,1,-1
 219.6 1219 l 1,2,-1
 114.3 1219 l 1,3,-1
 114.3 1520 l 1,4,-1
 647.1 1520 l 1,5,-1
 647.1 1338 l 1,6,7
 485.1 1268 485.1 1268 401.4 1112 c 0,8,9
 318.6 957 318.6 957 318.6 725 c 0,10,11
 318.6 446 318.6 446 441.9 276 c 0,12,13
 565.2 107 565.2 107 765 107 c 128,-1,14
 964.8 107 964.8 107 1088.1 276 c 0,15,16
 1211.4 446 1211.4 446 1211.4 725 c 0,17,18
 1211.4 958 1211.4 958 1128.6 1113 c 128,-1,19
 1045.8 1268 1045.8 1268 884.7 1338 c 1,20,-1
 884.7 1520 l 1,21,-1
 1415.7 1520 l 1,22,-1
 1415.7 1219 l 1,23,-1
 1310.4 1219 l 1,24,-1
 1310.4 1356 l 1,25,-1
 1009.8 1356 l 1,26,27
 1197.9 1269 1197.9 1269 1307.7 1093 c 128,-1,28
 1417.5 917 1417.5 917 1417.5 703 c 0,29,30
 1417.5 552 1417.5 552 1366.2 421 c 0,31,32
 1314 290 1314 290 1215 187 c 0,33,34
 1125.9 96 1125.9 96 1010.7 48 c 128,-1,35
 895.5 0 895.5 0 765 0 c 128,-1,36
 634.5 0 634.5 0 520.2 48 c 0,37,38
 405.9 95 405.9 95 316.8 187 c 0,39,40
 216.9 290 216.9 290 164.7 422 c 0,41,42
 112.5 553 112.5 553 112.5 703 c 0,43,44
 112.5 916 112.5 916 223.2 1092 c 0,45,46
 333 1269 333 1269 522 1356 c 1,0,-1
EndSplineSet
EndChar
StartChar: uni01B2
Encoding: 434 434 434
Width: 1400
Flags: W
Fore
637.2 0 m 24,0,1
 445.807 -11.0957 445.807 -11.0957 378 54 c 0,2,3
 272.7 155.089 272.7 155.089 272.7 351 c 2,4,-1
 272.7 1386 l 1,5,-1
 101.7 1386 l 1,6,-1
 101.7 1493 l 1,7,-1
 626.4 1493 l 1,8,-1
 626.4 1386 l 1,9,-1
 455.4 1386 l 1,10,-1
 455.4 351 l 2,11,12
 455.4 226.325 455.4 226.325 493.2 160 c 0,13,14
 520.127 112.753 520.127 112.753 637.2 107 c 24,15,16
 830.104 97.5195 830.104 97.5195 960.3 276.5 c 0,17,18
 1083.6 446 1083.6 446 1083.6 725 c 0,19,20
 1083.6 973.905 1083.6 973.905 1000.8 1113 c 0,21,22
 921.6 1244 921.6 1244 784.8 1272 c 1,23,-1
 784.8 1386 l 1,24,-1
 882 1386 l 1,25,-1
 882 1386 l 1,26,27
 1081.4 1303.35 1081.4 1303.35 1177.2 1128 c 0,28,29
 1289.7 919.998 1289.7 919.998 1289.7 703 c 0,30,31
 1289.7 552 1289.7 552 1237.95 421 c 0,32,33
 1184.95 286.834 1184.95 286.834 1087.2 187 c 0,34,35
 998.1 96 998.1 96 882.9 48 c 0,36,37
 788.791 8.78809 788.791 8.78809 637.2 0 c 24,0,1
EndSplineSet
EndChar
StartChar: uni01B3
Encoding: 435 435 435
Width: 1360
Flags: W
AnchorPoint: "above" 605.7 1472 basechar 0
Fore
702 106 m 17,0,-1
 873.9 106 l 1,1,-1
 873.9 0 l 1,2,-1
 348.3 0 l 1,3,-1
 348.3 106 l 1,4,-1
 520.2 106 l 1,5,-1
 520.2 643 l 1,6,-1
 105.3 1386 l 1,7,-1
 -20.7002 1386 l 1,8,-1
 -20.7002 1493 l 1,9,-1
 478.8 1493 l 1,10,-1
 478.8 1386 l 1,11,-1
 322.2 1386 l 1,12,-1
 657.9 782 l 1,13,-1
 993.6 1386 l 1,14,15
 1110.36 1493 1110.36 1493 1233 1493 c 0,16,17
 1293.19 1493 1293.19 1493 1356.3 1476 c 0,18,19
 1415.7 1460 1415.7 1460 1471.5 1427 c 1,20,-1
 1471.5 1208 l 1,21,-1
 1386 1208 l 1,22,23
 1379.7 1304 1379.7 1304 1341.9 1349 c 0,24,25
 1303.2 1394 1303.2 1394 1229.4 1394 c 0,26,27
 1116.09 1394 1116.09 1394 1070.1 1322 c 0,28,-1
 702 662 l 9,29,-1
 702 106 l 17,0,-1
EndSplineSet
EndChar
StartChar: uni01B4
Encoding: 436 436 436
Width: 1221
Flags: W
AnchorPoint: "above" 515.25 1092 basechar 0
Fore
882.9 825 m 10,0,-1
 490.5 -240 l 1,1,2
 445.5 -364 445.5 -364 390.6 -409.5 c 128,-1,3
 335.7 -455 335.7 -455 235.8 -455 c 0,4,5
 193.5 -455 193.5 -455 148.95 -447 c 128,-1,6
 104.4 -439 104.4 -439 59.4004 -424 c 1,7,-1
 59.4004 -221 l 1,8,-1
 144 -221 l 1,9,10
 149.4 -289 149.4 -289 175.05 -318.5 c 128,-1,11
 200.7 -348 200.7 -348 254.7 -348 c 0,12,13
 304.2 -348 304.2 -348 334.35 -317.5 c 128,-1,14
 364.5 -287 364.5 -287 397.8 -195 c 1,15,-1
 460.8 -18 l 1,16,-1
 103.5 956 l 1,17,-1
 -5.40039 956 l 1,18,-1
 -5.40039 1063 l 1,19,-1
 434.7 1063 l 1,20,-1
 434.7 956 l 1,21,-1
 281.7 956 l 1,22,-1
 550.8 225 l 1,23,-1
 790.2 870 l 18,24,25
 835.2 994 835.2 994 890.1 1039.5 c 128,-1,26
 945 1085 945 1085 1044.9 1085 c 0,27,28
 1087.2 1085 1087.2 1085 1131.75 1077 c 128,-1,29
 1176.3 1069 1176.3 1069 1221.3 1054 c 1,30,-1
 1221.3 851 l 1,31,-1
 1136.7 851 l 1,32,33
 1131.3 919 1131.3 919 1105.65 948.5 c 128,-1,34
 1080 978 1080 978 1026 978 c 0,35,36
 976.5 978 976.5 978 946.35 947.5 c 128,-1,37
 916.2 917 916.2 917 882.9 825 c 10,0,-1
EndSplineSet
EndChar
StartChar: uni01B5
Encoding: 437 437 437
Width: 1280
Flags: W
AnchorPoint: "above" 641.7 1465 basechar 0
Fore
1062.9 798 m 1,0,-1
 1062.9 628 l 1,1,-1
 665.1 628 l 1,2,-1
 339.3 123 l 1,3,-1
 1098.9 123 l 1,4,-1
 1098.9 332 l 1,5,-1
 1208.7 332 l 1,6,-1
 1208.7 0 l 1,7,-1
 82.7998 0 l 1,8,-1
 82.7998 72 l 1,9,-1
 441 628 l 1,10,-1
 217.8 628 l 1,11,-1
 217.8 798 l 1,12,-1
 550.8 798 l 1,13,-1
 919.8 1370 l 1,14,-1
 225 1370 l 1,15,-1
 225 1147 l 1,16,-1
 114.3 1147 l 1,17,-1
 114.3 1493 l 1,18,-1
 1176.3 1493 l 1,19,-1
 1176.3 1421 l 1,20,-1
 774.9 798 l 1,21,-1
 1062.9 798 l 1,0,-1
EndSplineSet
EndChar
StartChar: uni01B6
Encoding: 438 438 438
Width: 971
Flags: W
AnchorPoint: "above" 476.1 1092 basechar 0
Fore
244.8 464 m 1,0,-1
 244.8 570 l 1,1,-1
 407.7 570 l 1,2,-1
 673.2 956 l 1,3,-1
 198.9 956 l 1,4,-1
 198.9 772 l 1,5,-1
 103.5 772 l 1,6,-1
 103.5 1063 l 1,7,-1
 886.5 1063 l 1,8,-1
 886.5 977 l 1,9,-1
 606.6 570 l 1,10,-1
 725.4 570 l 1,11,-1
 725.4 464 l 1,12,-1
 533.7 464 l 1,13,-1
 287.1 106 l 1,14,-1
 807.3 106 l 1,15,-1
 807.3 299 l 1,16,-1
 903.6 299 l 1,17,-1
 903.6 0 l 1,18,-1
 73.7998 0 l 1,19,-1
 73.7998 86 l 1,20,-1
 333.9 464 l 1,21,-1
 244.8 464 l 1,0,-1
EndSplineSet
EndChar
StartChar: uni01B7
Encoding: 439 439 439
Width: 1040
Flags: W
AnchorPoint: "above" 501.3 1465 basechar 0
AnchorPoint: "below" 501.3 0 basechar 0
Fore
475.2 852 m 2,0,-1
 389.7 852 l 1,1,-1
 389.7 954 l 1,2,-1
 699.3 1370 l 1,3,-1
 225 1370 l 1,4,-1
 225 1147 l 1,5,-1
 114.3 1147 l 1,6,-1
 114.3 1493 l 1,7,-1
 900 1493 l 1,8,-1
 900 1368 l 1,9,-1
 567.9 923 l 1,10,-1
 639 916 l 0,11,12
 804.6 887 804.6 887 896.4 766 c 0,13,14
 987.3 646 987.3 646 987.3 454 c 0,15,16
 987.3 220 987.3 220 860.4 95 c 0,17,18
 734.4 -29 734.4 -29 496.8 -29 c 0,19,20
 391.5 -29 391.5 -29 291.6 -1 c 0,21,22
 190.8 27 190.8 27 91.7998 84 c 1,23,-1
 91.7998 408 l 1,24,-1
 192.6 408 l 1,25,26
 201.6 247 201.6 247 279.9 164 c 128,-1,27
 358.2 81 358.2 81 500.4 81 c 0,28,29
 638.1 81 638.1 81 718.2 181 c 0,30,31
 797.4 280 797.4 280 797.4 452 c 0,32,33
 797.4 649 797.4 649 715.5 751 c 0,34,35
 633.6 852 633.6 852 475.2 852 c 2,0,-1
EndSplineSet
EndChar
StartChar: uni01B8
Encoding: 440 440 440
Width: 1040
Flags: W
Fore
603.9 852 m 2,0,1
 445.5 852 445.5 852 363.6 751 c 0,2,3
 281.7 649 281.7 649 281.7 452 c 0,4,5
 281.7 280 281.7 280 360.9 181 c 0,6,7
 441 81 441 81 578.7 81 c 0,8,9
 720.9 81 720.9 81 799.2 164 c 128,-1,10
 877.5 247 877.5 247 886.5 408 c 1,11,-1
 987.3 408 l 1,12,-1
 987.3 84 l 1,13,14
 888.3 27 888.3 27 787.5 -1 c 0,15,16
 687.6 -29 687.6 -29 582.3 -29 c 0,17,18
 344.7 -29 344.7 -29 218.7 95 c 0,19,20
 91.7998 220 91.7998 220 91.7998 454 c 0,21,22
 91.7998 646 91.7998 646 182.7 766 c 0,23,24
 274.5 887 274.5 887 440.1 916 c 0,25,-1
 511.2 923 l 1,26,-1
 179.1 1368 l 1,27,-1
 179.1 1493 l 1,28,-1
 964.8 1493 l 1,29,-1
 964.8 1147 l 1,30,-1
 854.1 1147 l 1,31,-1
 854.1 1370 l 1,32,-1
 379.8 1370 l 1,33,-1
 689.4 954 l 1,34,-1
 689.4 852 l 1,35,-1
 603.9 852 l 2,0,1
EndSplineSet
EndChar
StartChar: uni01B9
Encoding: 441 441 441
Width: 1040
Flags: W
Fore
603.9 423 m 2,0,1
 445.5 423 445.5 423 363.6 322 c 0,2,3
 281.7 220 281.7 220 281.7 23 c 0,4,5
 281.7 -149 281.7 -149 360.9 -248 c 0,6,7
 441 -348 441 -348 578.7 -348 c 0,8,9
 720.9 -348 720.9 -348 799.2 -265 c 128,-1,10
 877.5 -182 877.5 -182 886.5 -21 c 1,11,-1
 987.3 -21 l 1,12,-1
 987.3 -345 l 1,13,14
 888.3 -402 888.3 -402 787.5 -430 c 0,15,16
 687.6 -458 687.6 -458 582.3 -458 c 0,17,18
 344.7 -458 344.7 -458 218.7 -334 c 0,19,20
 91.7998 -209 91.7998 -209 91.7998 25 c 0,21,22
 91.7998 217 91.7998 217 182.7 337 c 0,23,24
 274.5 458 274.5 458 440.1 487 c 0,25,-1
 511.2 494 l 1,26,-1
 179.1 977 l 1,27,-1
 179.1 1063 l 1,28,-1
 962.1 1063 l 1,29,-1
 962.1 772 l 1,30,-1
 866.7 772 l 1,31,-1
 866.7 956 l 1,32,-1
 392.4 956 l 1,33,-1
 689.4 525 l 1,34,-1
 689.4 423 l 1,35,-1
 603.9 423 l 2,0,1
EndSplineSet
EndChar
StartChar: uni01BB
Encoding: 443 443 443
Width: 1172
Flags: W
Fore
235.8 1137 m 1,0,-1
 135 1137 l 1,1,-1
 135 1403 l 1,2,3
 231.3 1460 231.3 1460 329.4 1490 c 0,4,5
 426.6 1520 426.6 1520 520.2 1520 c 0,6,7
 729.9 1520 729.9 1520 851.4 1407 c 0,8,9
 972.9 1294 972.9 1294 972.9 1100 c 0,10,11
 972.9 965 972.9 965 868.5 798 c 1,12,-1
 1008.9 798 l 1,13,-1
 1008.9 628 l 1,14,-1
 743.4 628 l 1,15,-1
 325.8 164 l 1,16,-1
 886.5 164 l 1,17,-1
 886.5 348 l 1,18,-1
 991.8 348 l 1,19,-1
 991.8 0 l 1,20,-1
 125.1 0 l 1,21,-1
 125.1 109 l 1,22,-1
 532.8 561 l 2,23,24
 563.4 595 563.4 595 590.4 628 c 1,25,-1
 163.8 628 l 1,26,-1
 163.8 798 l 1,27,-1
 706.5 798 l 1,28,29
 716.4 818 716.4 818 725.4 836 c 0,30,31
 783 962 783 962 783 1100 c 0,32,33
 783 1251 783 1251 712.8 1336 c 0,34,35
 641.7 1421 641.7 1421 517.5 1421 c 0,36,37
 388.8 1421 388.8 1421 318.6 1350 c 0,38,39
 235.8 1279 235.8 1279 235.8 1137 c 1,0,-1
EndSplineSet
EndChar
StartChar: uni01BC
Encoding: 444 444 444
Width: 1265
Flags: W
Fore
780.3 840 m 0,0,1
 945.9 814 945.9 814 1037.25 706.5 c 0,2,3
 1128.6 599 1128.6 599 1128.6 403 c 0,4,5
 1128.6 194 1128.6 194 1002.15 82.5 c 0,6,7
 875.7 -29 875.7 -29 638.1 -29 c 0,8,9
 532.8 -29 532.8 -29 432.45 -4 c 0,10,11
 332.1 21 332.1 21 233.1 72 c 1,12,-1
 233.1 362 l 1,13,-1
 333.9 362 l 1,14,15
 342.9 218 342.9 218 421.2 144 c 0,16,17
 499.5 70 499.5 70 641.7 70 c 0,18,19
 779.4 70 779.4 70 859.05 158.5 c 0,20,21
 938.7 247 938.7 247 938.7 401 c 0,22,23
 938.7 577 938.7 577 856.8 667.5 c 0,24,25
 774.9 758 774.9 758 616.5 758 c 2,26,-1
 272.7 758 l 1,27,-1
 272.7 1386 l 1,28,-1
 101.7 1386 l 1,29,-1
 101.7 1493 l 1,30,-1
 1078.2 1493 l 1,31,-1
 1078.2 1161 l 1,32,-1
 967.5 1161 l 1,33,-1
 967.5 1370 l 1,34,-1
 455.4 1370 l 1,35,-1
 455.4 860 l 1,36,-1
 576 860 l 2,37,38
 652.918 860 652.918 860 780.3 840 c 0,0,1
EndSplineSet
EndChar
StartChar: uni01BD
Encoding: 445 445 445
Width: 1040
Flags: W
Fore
475.2 525 m 1,0,-1
 639 504 l 2,1,2
 804.6 475 804.6 475 896.4 354 c 0,3,4
 987.3 234 987.3 234 987.3 25 c 0,5,6
 987.3 -209 987.3 -209 860.4 -334 c 0,7,8
 734.4 -458 734.4 -458 496.8 -458 c 0,9,10
 391.948 -458 391.948 -458 291.6 -430 c 0,11,12
 190.375 -401.755 190.375 -401.755 91.7998 -345 c 1,13,-1
 91.7998 -21 l 1,14,-1
 192.6 -21 l 1,15,16
 201.6 -182 201.6 -182 279.9 -265 c 0,17,18
 358.2 -348 358.2 -348 500.4 -348 c 0,19,20
 638.1 -348 638.1 -348 718.2 -248 c 0,21,22
 797.4 -149 797.4 -149 797.4 23 c 0,23,24
 797.4 220 797.4 220 715.5 322 c 0,25,26
 633.6 423 633.6 423 475.2 423 c 2,27,-1
 194.4 423 l 1,28,-1
 194.4 958 l 1,29,-1
 35.0996 958 l 1,30,-1
 35.0996 1063 l 1,31,-1
 892.8 1063 l 1,32,-1
 892.8 796 l 1,33,-1
 798.3 796 l 1,34,-1
 798.3 940 l 1,35,-1
 360 940 l 1,36,-1
 360 525 l 1,37,-1
 475.2 525 l 1,0,-1
EndSplineSet
EndChar
StartChar: uni01BE
Encoding: 446 446 446
Width: 988
Flags: W
Fore
358.2 1393 m 1,0,-1
 523.8 1393 l 1,1,-1
 523.8 1064 l 1,2,-1
 680.4 1064 l 1,3,-1
 680.4 958 l 1,4,-1
 523.8 958 l 1,5,-1
 523.8 787 l 1,6,7
 626.402 778.999 626.402 778.999 700.2 702 c 0,8,9
 788.4 608.002 788.4 608.002 788.4 380 c 0,10,11
 788.4 156 788.4 156 700.2 63 c 0,12,13
 612.9 -30 612.9 -30 459 -30 c 0,14,15
 394.203 -30 394.203 -30 334.8 -14 c 0,16,17
 276.308 2 276.308 2 220.5 36 c 1,18,-1
 220.5 254 l 1,19,-1
 306 254 l 1,20,21
 312.299 158 312.299 158 351 114 c 1,22,23
 388.801 68 388.801 68 462.6 68 c 0,24,25
 544.502 68 544.502 68 583.2 130 c 0,26,27
 621.9 190 621.9 190 621.9 380 c 0,28,29
 621.9 573.999 621.9 573.999 583.2 634 c 0,30,31
 544.502 696 544.502 696 462.6 696 c 2,32,-1
 358.2 696 l 1,33,-1
 358.2 958 l 1,34,-1
 199.8 958 l 1,35,-1
 199.8 1064 l 1,36,-1
 358.2 1064 l 1,37,-1
 358.2 1393 l 1,0,-1
EndSplineSet
EndChar
StartChar: uni01C0
Encoding: 448 448 448
Width: 543
Flags: W
Fore
344.7 1493 m 1,0,-1
 344.7 0 l 1,1,-1
 198.9 0 l 1,2,-1
 198.9 1493 l 1,3,-1
 344.7 1493 l 1,0,-1
EndSplineSet
EndChar
StartChar: uni01C2
Encoding: 450 450 450
Width: 846
Flags: W
Fore
350.1 851 m 1,0,-1
 16.2002 851 l 1,1,-1
 16.2002 1013 l 1,2,-1
 350.1 1013 l 1,3,-1
 350.1 1493 l 1,4,-1
 495.9 1493 l 1,5,-1
 495.9 1013 l 1,6,-1
 829.8 1013 l 1,7,-1
 829.8 851 l 1,8,-1
 495.9 851 l 1,9,-1
 495.9 642 l 1,10,-1
 829.8 642 l 1,11,-1
 829.8 480 l 1,12,-1
 495.9 480 l 1,13,-1
 495.9 0 l 1,14,-1
 350.1 0 l 1,15,-1
 350.1 480 l 1,16,-1
 16.2002 480 l 1,17,-1
 16.2002 642 l 1,18,-1
 350.1 642 l 1,19,-1
 350.1 851 l 1,0,-1
EndSplineSet
EndChar
StartChar: uni01C3
Encoding: 451 451 451
Width: 543
Flags: W
Fore
344.7 156 m 1,0,-1
 344.7 0 l 1,1,-1
 198.9 0 l 1,2,-1
 198.9 156 l 1,3,-1
 344.7 156 l 1,0,-1
344.7 1493 m 1,4,-1
 344.7 312 l 1,5,-1
 198.9 312 l 1,6,-1
 198.9 1493 l 1,7,-1
 344.7 1493 l 1,4,-1
EndSplineSet
EndChar
StartChar: uni01E4
Encoding: 484 484 484
Width: 1562
Flags: W
Fore
1179.9 1047 m 1,0,1
 1148.4 1234 1148.4 1234 1048.5 1323.5 c 128,-1,2
 948.6 1413 948.6 1413 770.4 1413 c 0,3,4
 538.2 1413 538.2 1413 423.9 1247 c 128,-1,5
 309.6 1081 309.6 1081 309.6 745 c 0,6,7
 309.6 416 309.6 416 427.5 247 c 128,-1,8
 545.4 78 545.4 78 774 78 c 0,9,10
 875.7 78 875.7 78 968.4 106 c 128,-1,11
 1061.1 134 1061.1 134 1144.8 190 c 1,12,-1
 1144.8 320 l 1,13,-1
 745.2 320 l 1,14,-1
 745.2 427 l 1,15,-1
 1144.8 427 l 1,16,-1
 1144.8 575 l 1,17,-1
 891.9 575 l 1,18,-1
 891.9 682 l 1,19,-1
 1327.5 682 l 1,20,-1
 1327.5 427 l 1,21,-1
 1508.4 427 l 1,22,-1
 1508.4 320 l 1,23,-1
 1327.5 320 l 1,24,-1
 1327.5 125 l 1,25,26
 1207.8 48 1207.8 48 1069.65 9.5 c 128,-1,27
 931.5 -29 931.5 -29 774 -29 c 0,28,29
 469.8 -29 469.8 -29 286.65 182.5 c 128,-1,30
 103.5 394 103.5 394 103.5 745 c 0,31,32
 103.5 1099 103.5 1099 287.1 1309.5 c 128,-1,33
 470.7 1520 470.7 1520 781.2 1520 c 0,34,35
 896.4 1520 896.4 1520 1019.25 1490.5 c 128,-1,36
 1142.1 1461 1142.1 1461 1280.7 1401 c 1,37,-1
 1280.7 1047 l 1,38,-1
 1179.9 1047 l 1,0,1
EndSplineSet
EndChar
StartChar: uni01E5
Encoding: 485 485 485
Width: 1179
Flags: W
Fore
801.9 479 m 1,0,-1
 585 479 l 1,1,-1
 585 586 l 1,2,-1
 801.898 586 l 1,3,4
 801.554 775.529 801.554 775.529 735.75 876 c 0,5,6
 669.6 977 669.6 977 543.6 977 c 0,7,8
 415.8 977 415.8 977 350.55 865 c 128,-1,9
 285.3 753 285.3 753 285.3 532 c 0,10,11
 285.3 312 285.3 312 350.55 199 c 128,-1,12
 415.8 86 415.8 86 543.6 86 c 0,13,14
 669.6 86 669.6 86 735.75 186.5 c 128,-1,15
 801.9 287 801.9 287 801.9 479 c 1,0,-1
967.5 479 m 1,16,-1
 967.5 23 l 2,17,18
 967.5 -206 967.5 -206 854.1 -330.5 c 128,-1,19
 740.7 -455 740.7 -455 531 -455 c 0,20,21
 436.5 -455 436.5 -455 350.1 -436 c 128,-1,22
 263.7 -417 263.7 -417 184.5 -379 c 1,23,-1
 184.5 -156 l 1,24,-1
 270.9 -156 l 1,25,26
 287.1 -260 287.1 -260 347.4 -308 c 128,-1,27
 407.7 -356 407.7 -356 520.2 -356 c 0,28,29
 666 -356 666 -356 733.95 -264.5 c 128,-1,30
 801.9 -173 801.9 -173 801.9 23 c 2,31,-1
 801.9 166 l 1,32,33
 753.3 66 753.3 66 678.15 18.5 c 128,-1,34
 603 -29 603 -29 492.3 -29 c 0,35,36
 315.9 -29 315.9 -29 203.85 126.5 c 128,-1,37
 91.7998 282 91.7998 282 91.7998 532 c 128,-1,38
 91.7998 782 91.7998 782 203.4 937 c 128,-1,39
 315 1092 315 1092 492.3 1092 c 0,40,41
 603 1092 603 1092 678.15 1044.5 c 128,-1,42
 753.3 997 753.3 997 801.9 897 c 1,43,-1
 801.9 1063 l 1,44,-1
 1125.9 1063 l 1,45,-1
 1125.9 956 l 1,46,-1
 967.5 956 l 1,47,-1
 967.5 586 l 1,48,-1
 1125.9 586 l 1,49,-1
 1125.9 479 l 1,50,-1
 967.5 479 l 1,16,-1
EndSplineSet
EndChar
StartChar: uni01F6
Encoding: 502 502 502
Width: 2126
Flags: W
Fore
1152 594 m 2,0,-1
 1152 748 l 1,1,-1
 455.4 748 l 1,2,-1
 455.4 106 l 1,3,-1
 626.4 106 l 1,4,-1
 626.4 0 l 1,5,-1
 101.7 0 l 1,6,-1
 101.7 106 l 1,7,-1
 272.7 106 l 1,8,-1
 272.7 1386 l 1,9,-1
 101.7 1386 l 1,10,-1
 101.7 1493 l 1,11,-1
 626.4 1493 l 1,12,-1
 626.4 1386 l 1,13,-1
 455.4 1386 l 1,14,-1
 455.4 870 l 1,15,-1
 1152 870 l 1,16,-1
 1152 1386 l 1,17,-1
 981 1386 l 1,18,-1
 981 1493 l 1,19,-1
 1505.7 1493 l 1,20,-1
 1505.7 1386 l 1,21,-1
 1334.7 1386 l 1,22,-1
 1334.7 614 l 2,23,24
 1334.7 328 1334.7 328 1418.4 215 c 0,25,26
 1503 102 1503 102 1620 102 c 0,27,28
 1749.6 102 1749.6 102 1812.6 215 c 0,29,30
 1879.2 333 1879.2 333 1879.2 614 c 2,31,-1
 1879.2 955 l 1,32,-1
 1722.6 955 l 1,33,-1
 1722.6 1063 l 1,34,-1
 2044.8 1063 l 1,35,-1
 2044.8 594 l 2,36,37
 2044.8 253 2044.8 253 1926 112 c 0,38,39
 1809 -29 1809 -29 1629 -29 c 0,40,41
 1394.1 -29 1394.1 -29 1272.6 113 c 0,42,43
 1152 255 1152 255 1152 594 c 2,0,-1
EndSplineSet
EndChar
StartChar: Aringacute
Encoding: 506 506 506
Width: 1331
Flags: W
Fore
631.8 1206 m 9,0,-1
 601.2 1208 l 17,1,-1
 369 541 l 1,2,-1
 862.2 541 l 1,3,-1
 631.8 1206 l 9,0,-1
798.3 1459 m 128,-1,5
 798.3 1522 798.3 1522 758.25 1566.5 c 128,-1,6
 718.2 1611 718.2 1611 661.5 1611 c 0,7,8
 603.9 1611 603.9 1611 564.75 1567.5 c 128,-1,9
 525.6 1524 525.6 1524 525.6 1459 c 0,10,11
 525.6 1396 525.6 1396 564.75 1352 c 128,-1,12
 603.9 1308 603.9 1308 661.5 1308 c 0,13,14
 718.2 1308 718.2 1308 758.25 1352 c 128,-1,4
 798.3 1396 798.3 1396 798.3 1459 c 128,-1,5
745.2 1899 m 1,15,-1
 922.5 1899 l 1,16,-1
 733.06 1723.06 l 1,17,18
 790.812 1704.32 790.812 1704.32 836.55 1653.5 c 0,19,20
 909 1573 909 1573 909 1459 c 0,21,22
 909 1379 909 1379 873.9 1315.5 c 0,23,24
 852.893 1277.5 852.893 1277.5 821.246 1249.7 c 1,25,-1
 1216.8 106 l 1,26,-1
 1349.1 106 l 1,27,-1
 1349.1 0 l 1,28,-1
 860.4 0 l 1,29,-1
 860.4 106 l 1,30,-1
 1009.8 106 l 1,31,-1
 897.3 434 l 1,32,-1
 332.1 434 l 1,33,-1
 219.6 106 l 1,34,-1
 367.2 106 l 1,35,-1
 367.2 0 l 1,36,-1
 -10.7998 0 l 1,37,-1
 -10.7998 106 l 1,38,-1
 107.1 106 l 1,39,-1
 501.737 1249.2 l 1,40,41
 469.353 1277.58 469.353 1277.58 448.65 1315 c 0,42,43
 414.9 1376 414.9 1376 414.9 1459 c 0,44,45
 414.9 1573 414.9 1573 486.9 1653.5 c 0,46,47
 543.511 1716.79 543.511 1716.79 619.038 1730.32 c 1,48,-1
 745.2 1899 l 1,15,-1
EndSplineSet
EndChar
StartChar: aringacute
Encoding: 507 507 507
Width: 1098
Flags: W
Fore
733.5 334 m 2,0,-1
 733.5 559 l 1,1,-1
 520.2 559 l 2,2,3
 396.9 559 396.9 559 336.6 500 c 128,-1,4
 276.3 441 276.3 441 276.3 319 c 0,5,6
 276.3 208 276.3 208 337.5 143 c 128,-1,7
 398.7 78 398.7 78 503.1 78 c 0,8,9
 606.6 78 606.6 78 670.05 149 c 128,-1,10
 733.5 220 733.5 220 733.5 334 c 2,0,-1
899.1 664 m 2,11,-1
 899.1 106 l 1,12,-1
 1046.7 106 l 1,13,-1
 1046.7 0 l 1,14,-1
 733.5 0 l 1,15,-1
 733.5 115 l 1,16,17
 678.6 41 678.6 41 606.6 6 c 128,-1,18
 534.6 -29 534.6 -29 438.3 -29 c 0,19,20
 279 -29 279 -29 185.4 65 c 128,-1,21
 91.7998 159 91.7998 159 91.7998 319 c 0,22,23
 91.7998 484 91.7998 484 198.9 575 c 128,-1,24
 306 666 306 666 501.3 666 c 2,25,-1
 733.5 666 l 1,26,-1
 733.5 739 l 2,27,28
 733.5 860 733.5 860 667.35 926.5 c 128,-1,29
 601.2 993 601.2 993 481.5 993 c 0,30,31
 382.5 993 382.5 993 324 943 c 128,-1,32
 265.5 893 265.5 893 251.1 795 c 1,33,-1
 165.6 795 l 1,34,-1
 165.6 1010 l 1,35,36
 252 1051 252 1051 333.45 1071.5 c 128,-1,37
 414.9 1092 414.9 1092 492.3 1092 c 0,38,39
 691.2 1092 691.2 1092 795.15 982.5 c 128,-1,40
 899.1 873 899.1 873 899.1 664 c 2,11,-1
594.9 1899 m 1,0,-1
 772.2 1899 l 1,1,-1
 606.591 1713.59 l 1,2,3
 650.958 1693.71 650.958 1693.71 687.15 1653.5 c 0,4,5
 758.7 1574 758.7 1574 758.7 1459 c 128,-1,7
 758.7 1344 758.7 1344 687.15 1264 c 128,-1,9
 615.6 1184 615.6 1184 512.1 1184 c 128,-1,11
 408.6 1184 408.6 1184 337.05 1264 c 128,-1,13
 265.5 1344 265.5 1344 265.5 1459 c 128,-1,15
 265.5 1574 265.5 1574 337.05 1653.5 c 0,16,17
 401.329 1724.92 401.329 1724.92 491.396 1732.18 c 1,18,-1
 594.9 1899 l 1,0,-1
648.9 1459 m 0,19,20
 648.9 1522 648.9 1522 609.3 1566 c 128,-1,22
 569.7 1610 569.7 1610 512.1 1610 c 0,23,24
 453.6 1610 453.6 1610 414.45 1566.5 c 128,-1,26
 375.3 1523 375.3 1523 375.3 1459 c 0,27,28
 375.3 1394 375.3 1394 414.45 1350.5 c 128,-1,30
 453.6 1307 453.6 1307 512.1 1307 c 0,31,32
 569.7 1307 569.7 1307 609.3 1351 c 128,-1,34
 648.9 1395 648.9 1395 648.9 1459 c 0,19,20
EndSplineSet
EndChar
StartChar: uni0220
Encoding: 544 544 544
Width: 1553
Flags: W
Fore
86.4004 0 m 1,0,-1
 86.4004 107 l 1,1,-1
 258.3 107 l 1,2,-1
 258.3 1386 l 1,3,-1
 99.9004 1386 l 1,4,-1
 99.9004 1493 l 1,5,-1
 441 1493 l 1,6,-1
 441 1292.19 l 1,7,8
 507.6 1406.11 507.6 1406.11 612.9 1464.12 c 128,-1,9
 718.2 1522.13 718.2 1522.13 857.7 1522.13 c 0,10,11
 1085.3 1522.13 1085.3 1522.13 1192.5 1376.31 c 128,-1,12
 1299.6 1230.62 1299.6 1230.62 1299.6 921.92 c 2,13,-1
 1299.6 -319 l 1,14,-1
 1470.6 -319 l 1,15,-1
 1470.6 -426 l 1,16,-1
 943.452 -426 l 1,17,-1
 943.452 -319 l 1,18,-1
 1115.35 -319 l 1,19,-1
 1115.35 880.645 l 2,20,21
 1115.35 1173.39 1115.35 1173.39 1047.92 1282.23 c 128,-1,22
 980.478 1391.08 980.478 1391.08 809.083 1391.08 c 0,23,24
 629.257 1391.08 629.257 1391.08 535.128 1262.37 c 128,-1,25
 441 1133.66 441 1133.66 441 887.253 c 2,26,-1
 441 107 l 1,27,-1
 612 107 l 1,28,-1
 612 0 l 1,29,-1
 86.4004 0 l 1,0,-1
EndSplineSet
EndChar
StartChar: uni0221
Encoding: 545 545 545
Width: 1500
Flags: W
Fore
1129.5 -51 m 0,0,1
 1369.8 -51 1369.8 -51 1369.8 56 c 0,2,3
 1369.8 179 1369.8 179 992.7 179 c 0,4,5
 980.1 179 980.1 179 967.5 178 c 1,6,7
 960.3 83 960.3 83 1008 11 c 0,8,9
 1049.4 -51 1049.4 -51 1129.5 -51 c 0,0,1
801.9 479 m 2,10,-1
 801.9 584 l 2,11,12
 801.9 775 801.9 775 735.75 876 c 128,-1,13
 669.6 977 669.6 977 543.6 977 c 0,14,15
 415.8 977 415.8 977 350.55 865 c 128,-1,16
 285.3 753 285.3 753 285.3 532 c 0,17,18
 285.3 312 285.3 312 350.55 199 c 128,-1,19
 415.8 86 415.8 86 543.6 86 c 0,20,21
 669.6 86 669.6 86 735.75 186.5 c 128,-1,22
 801.9 287 801.9 287 801.9 479 c 2,10,-1
967.5 279.224 m 1,23,24
 974.188 279.255 974.188 279.255 981 279 c 2,25,-1
 989.1 279 l 2,26,27
 1473.13 279 1473.13 279 1468.8 49 c 0,28,29
 1465.06 -150 1465.06 -150 1127.7 -150 c 0,30,31
 982.8 -150 982.8 -150 891 -57 c 0,32,33
 832.5 4 832.5 4 811.8 75 c 1,34,35
 783.9 14 783.9 14 783.9 -81 c 2,36,-1
 783.9 -145 l 1,37,-1
 693.9 -145 l 1,38,-1
 694.8 -81 l 2,39,40
 695.727 -15.0762 695.727 -15.0762 706.173 38.7939 c 1,41,42
 692.656 27.6689 692.656 27.6689 678.15 18.5 c 0,43,44
 603 -29 603 -29 492.3 -29 c 0,45,46
 315.9 -29 315.9 -29 203.85 126.5 c 128,-1,47
 91.7998 282 91.7998 282 91.7998 532 c 128,-1,48
 91.7998 782 91.7998 782 203.4 937 c 128,-1,49
 315 1092 315 1092 492.3 1092 c 0,50,51
 603 1092 603 1092 678.15 1044.5 c 128,-1,52
 753.3 997 753.3 997 801.9 897 c 1,53,-1
 801.9 1450 l 1,54,-1
 645.3 1450 l 1,55,-1
 645.3 1556 l 1,56,-1
 967.5 1556 l 1,57,-1
 967.5 279.224 l 1,23,24
EndSplineSet
EndChar
StartChar: uni0224
Encoding: 548 548 548
Width: 1280
Flags: W
Fore
82.7998 0 m 1,0,-1
 82.7998 72 l 1,1,-1
 919.8 1370 l 1,2,-1
 225 1370 l 1,3,-1
 225 1147 l 1,4,-1
 114.3 1147 l 1,5,-1
 114.3 1493 l 1,6,-1
 1176.3 1493 l 1,7,-1
 1176.3 1421 l 1,8,-1
 339.3 123 l 1,9,-1
 1031.4 123 l 1,10,-1
 1208.7 123 l 1,11,12
 1201.5 -48 1201.5 -48 1136.25 -170.5 c 128,-1,14
 1071 -293 1071 -293 939.6 -383 c 1,15,-1
 867.6 -303 l 1,16,17
 952.2 -234 952.2 -234 991.8 -140.5 c 0,18,19
 1017.92 -78.8389 1017.92 -78.8389 1026.81 0 c 1,20,-1
 82.7998 0 l 1,0,-1
EndSplineSet
EndChar
StartChar: uni0225
Encoding: 549 549 549
Width: 971
Flags: W
Fore
73.7998 0 m 1,0,-1
 73.7998 86 l 1,1,-1
 673.2 956 l 1,2,-1
 198.9 956 l 1,3,-1
 198.9 772 l 1,4,-1
 103.5 772 l 1,5,-1
 103.5 1063 l 1,6,-1
 886.5 1063 l 1,7,-1
 886.5 977 l 1,8,-1
 287.1 106 l 1,9,-1
 726.3 106 l 1,10,-1
 903.6 106 l 1,11,12
 896.4 -65 896.4 -65 831.15 -187.5 c 128,-1,14
 765.9 -310 765.9 -310 634.5 -400 c 1,15,-1
 562.5 -320 l 1,16,17
 647.1 -251 647.1 -251 686.7 -157.5 c 0,18,19
 715.598 -89.2676 715.598 -89.2676 723.408 0 c 1,20,-1
 73.7998 0 l 1,0,-1
EndSplineSet
EndChar
StartChar: uni0234
Encoding: 564 564 564
Width: 922
Flags: W
Fore
463.5 164 m 1,0,1
 524.7 70 524.7 70 648.9 70 c 0,2,3
 792 68 792 68 792 177 c 0,4,5
 792 301 792 301 692.1 300 c 0,6,7
 530.1 298 530.1 298 463.5 164 c 1,0,1
378 532 m 2,8,9
 378 373 378 373 410.4 268 c 1,10,11
 536.949 408 536.949 408 707.4 408 c 0,12,13
 891 408 891 408 891 170 c 0,14,15
 891 -29.0596 891 -29.0596 647.1 -29 c 0,16,17
 509.354 -28.9658 509.354 -28.9658 413.1 42 c 1,18,19
 405 10 405 10 405.9 -75 c 1,20,-1
 405.9 -219 l 1,21,-1
 303.3 -219 l 1,22,-1
 304.2 -75 l 1,23,24
 306.9 26 306.9 26 328.5 105 c 1,25,-1
 311.4 124 l 0,26,27
 212.4 294.669 212.4 294.669 212.4 532 c 2,28,-1
 212.4 1450 l 1,29,-1
 53.0996 1450 l 1,30,-1
 53.0996 1556 l 1,31,-1
 378 1556 l 1,32,-1
 378 532 l 2,8,9
EndSplineSet
EndChar
StartChar: uni0235
Encoding: 565 565 565
Width: 1532
Flags: W
Fore
1073.7 164 m 1,0,1
 1134.9 70 1134.9 70 1259.1 70 c 0,2,3
 1402.2 68 1402.2 68 1402.2 177 c 0,4,5
 1402.2 301 1402.2 301 1302.3 300 c 0,6,7
 1140.3 298 1140.3 298 1073.7 164 c 1,0,1
821.7 618 m 18,8,9
 821.7 813 821.7 813 778.5 885.5 c 128,-1,10
 735.3 958 735.3 958 626.4 958 c 0,11,12
 511.2 958 511.2 958 450.9 864.5 c 128,-1,13
 390.6 771 390.6 771 390.6 592 c 2,14,-1
 390.6 106 l 1,15,-1
 534.6 106 l 1,16,-1
 534.6 0 l 1,17,-1
 75.5996 0 l 1,18,-1
 75.5996 106 l 1,19,-1
 225 106 l 1,20,-1
 225 956 l 1,21,-1
 66.5996 956 l 1,22,-1
 66.5996 1063 l 1,23,-1
 390.6 1063 l 1,24,-1
 390.6 874 l 1,25,26
 436.5 982 436.5 982 509.85 1037 c 128,-1,27
 583.2 1092 583.2 1092 680.4 1092 c 0,28,29
 838.8 1092 838.8 1092 913.5 991 c 128,-1,30
 988.2 890 988.2 890 988.2 676 c 10,31,-1
 988.2 532 l 18,32,33
 988.2 354.932 988.2 354.932 1020.6 268 c 1,34,35
 1147.15 408 1147.15 408 1317.6 408 c 0,36,37
 1501.2 408 1501.2 408 1501.2 170 c 0,38,39
 1501.2 -29.0596 1501.2 -29.0596 1257.3 -29 c 0,40,41
 1119.55 -28.9658 1119.55 -28.9658 1023.3 42 c 1,42,43
 1015.2 10 1015.2 10 1016.1 -75 c 1,44,-1
 1016.1 -219 l 1,45,-1
 913.5 -219 l 1,46,-1
 914.4 -75 l 1,47,48
 917.1 26 917.1 26 938.7 105 c 1,49,-1
 921.6 124 l 0,50,51
 821.7 296.222 821.7 296.222 821.7 532 c 10,52,-1
 821.7 618 l 18,8,9
EndSplineSet
EndChar
StartChar: uni0236
Encoding: 566 566 566
Width: 909
Flags: W
Fore
450.9 164 m 1,0,1
 512.1 70 512.1 70 636.3 70 c 0,2,3
 779.4 68 779.4 68 779.4 177 c 0,4,5
 779.4 301 779.4 301 679.5 300 c 0,6,7
 517.5 298 517.5 298 450.9 164 c 1,0,1
365.4 956 m 9,8,-1
 365.4 532 l 2,9,10
 365.4 373 365.4 373 397.8 268 c 1,11,12
 524.35 408 524.35 408 694.8 408 c 0,13,14
 878.4 408 878.4 408 878.4 170 c 0,15,16
 878.4 -29.0596 878.4 -29.0596 634.5 -29 c 0,17,18
 496.754 -28.9658 496.754 -28.9658 400.5 42 c 1,19,20
 392.4 10 392.4 10 393.3 -75 c 1,21,-1
 393.3 -219 l 1,22,-1
 290.7 -219 l 1,23,-1
 291.6 -75 l 1,24,25
 294.3 26 294.3 26 315.9 105 c 1,26,-1
 298.8 124 l 0,27,28
 198.9 296.221 198.9 296.221 198.9 532 c 10,29,-1
 198.9 956 l 17,30,-1
 53.0996 956 l 1,31,-1
 53.0996 1063 l 1,32,-1
 198.9 1063 l 1,33,-1
 198.9 1393 l 1,34,-1
 365.4 1393 l 1,35,-1
 365.4 1063 l 1,36,-1
 676.8 1063 l 1,37,-1
 676.8 956 l 1,38,-1
 365.4 956 l 9,8,-1
EndSplineSet
EndChar
StartChar: dotlessj
Encoding: 567 567 567
Width: 571
Flags: W
AnchorPoint: "below" 106.2 -430 basechar 0
AnchorPoint: "above" 295.2 1092 basechar 0
Fore
225 956 m 1,0,-1
 68.4004 956 l 1,1,-1
 68.4004 1063 l 1,2,-1
 390.6 1063 l 1,3,-1
 390.6 -104 l 2,4,5
 390.6 -268 390.6 -268 302.85 -361.5 c 128,-1,6
 215.1 -455 215.1 -455 61.2002 -455 c 0,7,8
 -3.59961 -455 -3.59961 -455 -62.5498 -438.5 c 128,-1,9
 -121.5 -422 -121.5 -422 -177.3 -389 c 1,10,-1
 -177.3 -170 l 1,11,-1
 -91.7998 -170 l 1,12,13
 -85.5 -266 -85.5 -266 -47.25 -311 c 128,-1,14
 -9 -356 -9 -356 64.7998 -356 c 0,15,16
 146.7 -356 146.7 -356 185.85 -294.5 c 128,-1,17
 225 -233 225 -233 225 -104 c 2,18,-1
 225 956 l 1,0,-1
EndSplineSet
EndChar
StartChar: uni0238
Encoding: 568 568 568
Width: 1769
Flags: W
Fore
801.9 479 m 2,0,-1
 801.9 584 l 2,1,2
 801.9 775 801.9 775 735.75 876 c 128,-1,3
 669.6 977 669.6 977 543.6 977 c 0,4,5
 415.8 977 415.8 977 350.55 865 c 128,-1,6
 285.3 753 285.3 753 285.3 532 c 0,7,8
 285.3 312 285.3 312 350.55 199 c 128,-1,9
 415.8 86 415.8 86 543.6 86 c 0,10,11
 669.6 86 669.6 86 735.75 186.5 c 128,-1,12
 801.9 287 801.9 287 801.9 479 c 2,0,-1
967.5 479 m 2,13,14
 967.5 287 967.5 287 1033.65 186.5 c 128,-1,15
 1099.8 86 1099.8 86 1225.8 86 c 0,16,17
 1352.7 86 1352.7 86 1417.95 199 c 128,-1,18
 1483.2 312 1483.2 312 1483.2 532 c 0,19,20
 1483.2 753 1483.2 753 1417.95 865 c 128,-1,21
 1352.7 977 1352.7 977 1225.8 977 c 0,22,23
 1099.8 977 1099.8 977 1033.65 876 c 128,-1,24
 967.5 775 967.5 775 967.5 584 c 2,25,-1
 967.5 479 l 2,13,14
801.9 0 m 1,26,-1
 801.9 166 l 1,27,28
 753.3 66 753.3 66 678.15 18.5 c 128,-1,29
 603 -29 603 -29 492.3 -29 c 0,30,31
 315.9 -29 315.9 -29 203.85 126.5 c 128,-1,32
 91.7998 282 91.7998 282 91.7998 532 c 128,-1,33
 91.7998 782 91.7998 782 203.4 937 c 128,-1,34
 315 1092 315 1092 492.3 1092 c 0,35,36
 603 1092 603 1092 678.15 1044.5 c 128,-1,37
 753.3 997 753.3 997 801.9 897 c 1,38,-1
 801.9 1450 l 1,39,-1
 642.6 1450 l 1,40,-1
 642.6 1556 l 1,41,-1
 967.5 1556 l 1,42,-1
 967.5 897 l 1,43,44
 1016.1 997 1016.1 997 1091.25 1044.5 c 128,-1,45
 1166.4 1092 1166.4 1092 1277.1 1092 c 0,46,47
 1453.5 1092 1453.5 1092 1565.1 937 c 128,-1,48
 1676.7 782 1676.7 782 1676.7 532 c 128,-1,49
 1676.7 282 1676.7 282 1565.1 126.5 c 128,-1,50
 1453.5 -29 1453.5 -29 1277.1 -29 c 0,51,52
 1166.4 -29 1166.4 -29 1091.25 18.5 c 128,-1,53
 1016.1 66 1016.1 66 967.5 166 c 1,54,-1
 967.5 0 l 1,55,-1
 801.9 0 l 1,26,-1
EndSplineSet
EndChar
